%FSLAX35Y35*%
%MOIN*%
%IN*%
%ADD10C,0.00591*%
%ADD11C,0.00087*%
%ADD12C,0.00141*%
%ADD13C,0.00409*%
%ADD14C,0.00443*%
%ADD15C,0.00768*%
%ADD16C,0.01024*%
%ADD17C,0.01181*%
%ADD18C,0.01575*%
%ADD19C,0.01969*%
%ADD20C,0.03150*%
%ADD21C,0.03937*%
%ADD22C,0.05906*%
%ADD23C,0.12795*%
%ADD24C,0.13189*%
%ADD25C,0.23622*%
%ADD26C,0.24016*%
%ADD27R,0.01969X0.01969*%
%ADD28R,0.03199X0.03199*%
%ADD29R,0.04134X0.05315*%
%ADD30R,0.04587X0.05433*%
%ADD31R,0.04980X0.05827*%
%ADD32R,0.05433X0.04587*%
%ADD33R,0.05512X0.05512*%
%ADD34R,0.05827X0.04980*%
%ADD35R,0.05906X0.05906*%
%ADD36R,0.06890X0.06890*%
%ADD37R,0.07283X0.07283*%
%ADD38R,0.19685X0.19685*%
%AMOCT_39*4,1,8,0.027559,0.013780,0.013780,0.027559,-0.013780,0.027559,-0.027559,0.013780,-0.027559,-0.013780,-0.013780,-0.027559,0.013780,-0.027559,0.027559,-0.013780,0.027559,0.013780,0*%
%ADD39OCT_39*%
%AMOCT_40*4,1,8,0.029528,0.014764,0.014764,0.029528,-0.014764,0.029528,-0.029528,0.014764,-0.029528,-0.014764,-0.014764,-0.029528,0.014764,-0.029528,0.029528,-0.014764,0.029528,0.014764,0*%
%ADD40OCT_40*%
%AMOCT_41*4,1,8,0.034449,0.017224,0.017224,0.034449,-0.017224,0.034449,-0.034449,0.017224,-0.034449,-0.017224,-0.017224,-0.034449,0.017224,-0.034449,0.034449,-0.017224,0.034449,0.017224,0*%
%ADD41OCT_41*%
%AMOCT_42*4,1,8,0.035433,0.017717,0.017717,0.035433,-0.017717,0.035433,-0.035433,0.017717,-0.035433,-0.017717,-0.017717,-0.035433,0.017717,-0.035433,0.035433,-0.017717,0.035433,0.017717,0*%
%ADD42OCT_42*%
%AMOCT_43*4,1,8,0.036417,0.018209,0.018209,0.036417,-0.018209,0.036417,-0.036417,0.018209,-0.036417,-0.018209,-0.018209,-0.036417,0.018209,-0.036417,0.036417,-0.018209,0.036417,0.018209,0*%
%ADD43OCT_43*%
%AMOCT_44*4,1,8,0.037402,0.018701,0.018701,0.037402,-0.018701,0.037402,-0.037402,0.018701,-0.037402,-0.018701,-0.018701,-0.037402,0.018701,-0.037402,0.037402,-0.018701,0.037402,0.018701,0*%
%ADD44OCT_44*%
G54D19*
X180836Y251968D02*
X173494Y251968D01*
X19685Y244094D02*
X27559Y244094D01*
X35433Y244094D01*
X43307Y244094D01*
X51181Y244094D01*
X59055Y244094D01*
X66929Y244094D01*
X74803Y244094D01*
X82677Y244094D01*
X90551Y244094D01*
X218779Y243031D02*
X228779Y243031D01*
X238779Y243031D01*
X248779Y243031D01*
X258779Y243031D01*
X268779Y243031D01*
X278779Y243031D01*
X288779Y243031D01*
X298779Y243031D01*
X173494Y251968D02*
X173228Y251968D01*
X173494Y251968D02*
X173228Y251702D01*
X173228Y251968D02*
X173228Y251702D01*
X173228Y251968D02*
X173228Y248031D01*
X90551Y244094D02*
X112204Y244094D01*
X173228Y248031D02*
X173228Y242125D01*
X167322Y236220D01*
X114173Y236220D01*
X112204Y238188D01*
X112204Y244094D01*
X200157Y224409D02*
X218779Y243031D01*
X200157Y224409D02*
X112204Y224409D01*
X200157Y224409D02*
X200157Y205354D01*
X200157Y19685D01*
X200157Y205354D02*
X200157Y204724D01*
X200157Y205354D02*
X200157Y204724D01*
X189242Y244094D02*
X192913Y244094D01*
X204724Y250000D02*
X198818Y244094D01*
X204724Y250000D02*
X204724Y259842D01*
X210629Y265748D01*
X271653Y265748D01*
X278779Y258622D01*
X278779Y253031D01*
X192913Y244094D02*
X198818Y244094D01*
X189242Y236220D02*
X192913Y236220D01*
X200787Y236220D02*
X208661Y244094D01*
X208661Y257874D01*
X212598Y261811D01*
X265748Y261811D01*
X268779Y258779D01*
X268779Y253031D01*
X192913Y236220D02*
X200787Y236220D01*
X189242Y259842D02*
X189242Y251968D01*
X90551Y251968D02*
X82677Y251968D01*
X152204Y244094D02*
X142204Y254094D01*
X137204Y254094D02*
X142204Y254094D01*
X74803Y251968D02*
X66929Y251968D01*
X59055Y251968D02*
X51181Y251968D01*
X132204Y265433D02*
X132204Y244094D01*
X132204Y265433D02*
X131889Y265748D01*
X59055Y252378D02*
X72424Y265748D01*
X91889Y265748D02*
X91555Y265748D01*
X72424Y265748D01*
X59055Y251968D02*
X59055Y252378D01*
X180836Y259842D02*
X173494Y259842D01*
X308779Y243031D02*
X317992Y243031D01*
X317992Y253031D02*
X308779Y253031D01*
X317992Y253031D02*
X317992Y243031D01*
X43307Y251968D02*
X35433Y251968D01*
X173494Y259842D02*
X173228Y259842D01*
X173494Y259842D02*
X173228Y260108D01*
X173228Y259842D02*
X173228Y260108D01*
X173228Y259842D02*
X173228Y263779D01*
X180836Y236220D02*
X180836Y240157D01*
X180836Y244094D01*
X181102Y240157D02*
X180836Y240157D01*
X175196Y236220D02*
X180836Y236220D01*
X175196Y236220D02*
X169291Y230314D01*
X122047Y230314D01*
X243336Y270334D02*
X243258Y270412D01*
X61814Y270866D02*
X43307Y252359D01*
X43307Y251968D02*
X43307Y252359D01*
X173228Y263779D02*
X179783Y270334D01*
X243336Y270334D01*
X61814Y270866D02*
X95433Y270866D01*
X122204Y244094D01*
X27559Y251968D02*
X19685Y251968D01*
G54D20*
X173228Y248031D03*
X112204Y224409D03*
X192913Y244094D03*
X192913Y236220D03*
X137204Y254094D03*
X131889Y265748D03*
X91889Y265748D03*
X173228Y263779D03*
X181102Y240157D03*
X122047Y230314D03*
X243336Y270334D03*
G54D22*
X19685Y19685D02*
X200157Y19685D01*
X322834Y204724D02*
X200157Y204724D01*
X19685Y204724D01*
X200157Y19685D02*
X322834Y19685D01*
G54D23*
X116437Y49281D03*
X126437Y61092D03*
X176437Y49281D03*
X186437Y61092D03*
X136437Y49281D03*
X146437Y61092D03*
X166437Y61092D03*
X156437Y49281D03*
G54D25*
X19685Y204724D03*
X322834Y204724D03*
X322834Y19685D03*
X19685Y19685D03*
G54D30*
X189242Y244094D03*
X180836Y244094D03*
X189242Y236220D03*
X180836Y236220D03*
X189242Y259842D03*
X180836Y259842D03*
X189242Y251968D03*
X180836Y251968D03*
G54D32*
X173228Y251702D03*
X173228Y260108D03*
G54D33*
X112204Y244094D03*
G54D36*
X90551Y251968D03*
G54D39*
X122204Y244094D03*
X132204Y244094D03*
X142204Y244094D03*
X152204Y244094D03*
X162204Y244094D03*
G54D41*
X82677Y251968D03*
X74803Y251968D03*
X66929Y251968D03*
X59055Y251968D03*
X51181Y251968D03*
X43307Y251968D03*
X35433Y251968D03*
X27559Y251968D03*
X19685Y251968D03*
X90551Y244094D03*
X82677Y244094D03*
X74803Y244094D03*
X66929Y244094D03*
X59055Y244094D03*
X51181Y244094D03*
X43307Y244094D03*
X35433Y244094D03*
X27559Y244094D03*
X19685Y244094D03*
G54D42*
X228779Y253031D03*
X228779Y243031D03*
X218779Y253031D03*
X218779Y243031D03*
X308779Y253031D03*
X308779Y243031D03*
X298779Y253031D03*
X298779Y243031D03*
X288779Y253031D03*
X288779Y243031D03*
X278779Y243031D03*
X278779Y253031D03*
X268779Y253031D03*
X268779Y243031D03*
X258779Y243031D03*
X258779Y253031D03*
X248779Y253031D03*
X248779Y243031D03*
X238779Y253031D03*
X238779Y243031D03*
G36*
X227795Y236535D02*
X227795Y236535D01*
X229763Y236535D01*
X229763Y243031D01*
X227795Y243031D01*
X227795Y236535D01*
D02*G37*
G36*
X237795Y236535D02*
X237795Y236535D01*
X239763Y236535D01*
X239763Y243031D01*
X237795Y243031D01*
X237795Y236535D01*
D02*G37*
G36*
X247795Y236535D02*
X247795Y236535D01*
X249763Y236535D01*
X249763Y243031D01*
X247795Y243031D01*
X247795Y236535D01*
D02*G37*
G36*
X257795Y236535D02*
X257795Y236535D01*
X259763Y236535D01*
X259763Y243031D01*
X257795Y243031D01*
X257795Y236535D01*
D02*G37*
G36*
X267795Y236535D02*
X267795Y236535D01*
X269763Y236535D01*
X269763Y243031D01*
X267795Y243031D01*
X267795Y236535D01*
D02*G37*
G36*
X277795Y236535D02*
X277795Y236535D01*
X279763Y236535D01*
X279763Y243031D01*
X277795Y243031D01*
X277795Y236535D01*
D02*G37*
G36*
X287795Y236535D02*
X287795Y236535D01*
X289763Y236535D01*
X289763Y243031D01*
X287795Y243031D01*
X287795Y236535D01*
D02*G37*
G36*
X297795Y236535D02*
X297795Y236535D01*
X299763Y236535D01*
X299763Y243031D01*
X297795Y243031D01*
X297795Y236535D01*
D02*G37*
G36*
X116437Y47682D02*
X116437Y47682D01*
X126402Y47682D01*
X126402Y50880D01*
X116437Y50880D01*
X116437Y47682D01*
D02*G37*
G36*
X114837Y49281D02*
X114837Y49281D01*
X118036Y49281D01*
X118036Y59247D01*
X114837Y59247D01*
X114837Y49281D01*
D02*G37*
G36*
X106471Y47682D02*
X106471Y47682D01*
X116437Y47682D01*
X116437Y50880D01*
X106471Y50880D01*
X106471Y47682D01*
D02*G37*
G36*
X114837Y39315D02*
X114837Y39315D01*
X118036Y39315D01*
X118036Y49281D01*
X114837Y49281D01*
X114837Y39315D01*
D02*G37*
G36*
X167559Y250718D02*
X167559Y250718D01*
X173228Y250718D01*
X173228Y252687D01*
X167559Y252687D01*
X167559Y250718D01*
D02*G37*
G36*
X172244Y246456D02*
X172244Y246456D01*
X174212Y246456D01*
X174212Y251702D01*
X172244Y251702D01*
X172244Y246456D01*
D02*G37*
G36*
X13287Y243110D02*
X13287Y243110D01*
X19685Y243110D01*
X19685Y245078D01*
X13287Y245078D01*
X13287Y243110D01*
D02*G37*
G36*
X18700Y237696D02*
X18700Y237696D01*
X20669Y237696D01*
X20669Y244094D01*
X18700Y244094D01*
X18700Y237696D01*
D02*G37*
G36*
X26574Y237696D02*
X26574Y237696D01*
X28543Y237696D01*
X28543Y244094D01*
X26574Y244094D01*
X26574Y237696D01*
D02*G37*
G36*
X34448Y237696D02*
X34448Y237696D01*
X36417Y237696D01*
X36417Y244094D01*
X34448Y244094D01*
X34448Y237696D01*
D02*G37*
G36*
X42322Y237696D02*
X42322Y237696D01*
X44291Y237696D01*
X44291Y244094D01*
X42322Y244094D01*
X42322Y237696D01*
D02*G37*
G36*
X50196Y237696D02*
X50196Y237696D01*
X52165Y237696D01*
X52165Y244094D01*
X50196Y244094D01*
X50196Y237696D01*
D02*G37*
G36*
X58070Y237696D02*
X58070Y237696D01*
X60039Y237696D01*
X60039Y244094D01*
X58070Y244094D01*
X58070Y237696D01*
D02*G37*
G36*
X65944Y237696D02*
X65944Y237696D01*
X67913Y237696D01*
X67913Y244094D01*
X65944Y244094D01*
X65944Y237696D01*
D02*G37*
G36*
X73818Y237696D02*
X73818Y237696D01*
X75787Y237696D01*
X75787Y244094D01*
X73818Y244094D01*
X73818Y237696D01*
D02*G37*
G36*
X81692Y237696D02*
X81692Y237696D01*
X83661Y237696D01*
X83661Y244094D01*
X81692Y244094D01*
X81692Y237696D01*
D02*G37*
G36*
X89566Y237696D02*
X89566Y237696D01*
X91535Y237696D01*
X91535Y244094D01*
X89566Y244094D01*
X89566Y237696D01*
D02*G37*
G36*
X168700Y247047D02*
X168700Y247047D01*
X173228Y247047D01*
X173228Y249015D01*
X168700Y249015D01*
X168700Y247047D01*
D02*G37*
G36*
X111220Y224409D02*
X111220Y224409D01*
X113188Y224409D01*
X113188Y228937D01*
X111220Y228937D01*
X111220Y224409D01*
D02*G37*
G36*
X107677Y223425D02*
X107677Y223425D01*
X112204Y223425D01*
X112204Y225393D01*
X107677Y225393D01*
X107677Y223425D01*
D02*G37*
G36*
X111220Y219881D02*
X111220Y219881D01*
X113188Y219881D01*
X113188Y224409D01*
X111220Y224409D01*
X111220Y219881D01*
D02*G37*
G36*
X16732Y204724D02*
X16732Y204724D01*
X22637Y204724D01*
X22637Y220669D01*
X16732Y220669D01*
X16732Y204724D01*
D02*G37*
G36*
X3740Y201771D02*
X3740Y201771D01*
X19685Y201771D01*
X19685Y207677D01*
X3740Y207677D01*
X3740Y201771D01*
D02*G37*
G36*
X16732Y188779D02*
X16732Y188779D01*
X22637Y188779D01*
X22637Y204724D01*
X16732Y204724D01*
X16732Y188779D01*
D02*G37*
G36*
X322834Y201771D02*
X322834Y201771D01*
X338779Y201771D01*
X338779Y207677D01*
X322834Y207677D01*
X322834Y201771D01*
D02*G37*
G36*
X319881Y204724D02*
X319881Y204724D01*
X325787Y204724D01*
X325787Y220669D01*
X319881Y220669D01*
X319881Y204724D01*
D02*G37*
G36*
X319881Y188779D02*
X319881Y188779D01*
X325787Y188779D01*
X325787Y204724D01*
X319881Y204724D01*
X319881Y188779D01*
D02*G37*
G36*
X322834Y16732D02*
X322834Y16732D01*
X338779Y16732D01*
X338779Y22637D01*
X322834Y22637D01*
X322834Y16732D01*
D02*G37*
G36*
X319881Y19685D02*
X319881Y19685D01*
X325787Y19685D01*
X325787Y35629D01*
X319881Y35629D01*
X319881Y19685D01*
D02*G37*
G36*
X319881Y3740D02*
X319881Y3740D01*
X325787Y3740D01*
X325787Y19685D01*
X319881Y19685D01*
X319881Y3740D01*
D02*G37*
G36*
X16732Y19685D02*
X16732Y19685D01*
X22637Y19685D01*
X22637Y35629D01*
X16732Y35629D01*
X16732Y19685D01*
D02*G37*
G36*
X3740Y16732D02*
X3740Y16732D01*
X19685Y16732D01*
X19685Y22637D01*
X3740Y22637D01*
X3740Y16732D01*
D02*G37*
G36*
X16732Y3740D02*
X16732Y3740D01*
X22637Y3740D01*
X22637Y19685D01*
X16732Y19685D01*
X16732Y3740D01*
D02*G37*
G54D10*
X295Y0D02*
X9974Y0D01*
X332544Y0D02*
X342224Y0D01*
X332544Y0D02*
X332894Y157D01*
X9974Y0D02*
X9624Y157D01*
X332894Y157D02*
X333033Y236D01*
X9624Y157D02*
X9485Y236D01*
X333033Y236D02*
X333140Y275D01*
X9485Y236D02*
X9379Y275D01*
X333140Y275D02*
X333208Y314D01*
X9379Y275D02*
X9311Y314D01*
X333208Y314D02*
X333260Y354D01*
X9311Y314D02*
X9258Y354D01*
X295Y551D02*
X8933Y551D01*
X333586Y551D02*
X342224Y551D01*
X295Y1102D02*
X8021Y1102D01*
X334498Y1102D02*
X342224Y1102D01*
X333260Y354D02*
X335084Y1456D01*
X9258Y354D02*
X7435Y1456D01*
X335084Y1456D02*
X335174Y1496D01*
X7435Y1456D02*
X7344Y1496D01*
X335174Y1496D02*
X335242Y1535D01*
X7344Y1496D02*
X7276Y1535D01*
X335242Y1535D02*
X335289Y1574D01*
X7276Y1535D02*
X7229Y1574D01*
X295Y1653D02*
X7143Y1653D01*
X335376Y1653D02*
X342224Y1653D01*
X335289Y1574D02*
X335325Y1614D01*
X7229Y1574D02*
X7194Y1614D01*
X335325Y1614D02*
X335376Y1653D01*
X7194Y1614D02*
X7143Y1653D01*
X335376Y1653D02*
X335444Y1692D01*
X7143Y1653D02*
X7075Y1692D01*
X295Y2204D02*
X6421Y2204D01*
X336097Y2204D02*
X342224Y2204D01*
X19091Y2322D02*
X323428Y2322D01*
X323428Y2322D02*
X323822Y2362D01*
X19091Y2322D02*
X18697Y2362D01*
X324079Y2362D02*
X324472Y2401D01*
X18440Y2362D02*
X18046Y2401D01*
X324730Y2401D02*
X325111Y2440D01*
X17789Y2401D02*
X17407Y2440D01*
X295Y2755D02*
X5718Y2755D01*
X15689Y2755D02*
X326830Y2755D01*
X336801Y2755D02*
X342224Y2755D01*
X325111Y2440D02*
X326830Y2755D01*
X17407Y2440D02*
X15689Y2755D01*
X326830Y2755D02*
X327010Y2795D01*
X15689Y2755D02*
X15508Y2795D01*
X335444Y1692D02*
X337350Y3188D01*
X7075Y1692D02*
X5169Y3188D01*
X5169Y3188D02*
X5133Y3228D01*
X295Y3307D02*
X5039Y3307D01*
X13866Y3307D02*
X328653Y3307D01*
X337480Y3307D02*
X342224Y3307D01*
X5133Y3228D02*
X5094Y3267D01*
X337350Y3188D02*
X337425Y3267D01*
X337425Y3267D02*
X337480Y3307D01*
X5094Y3267D02*
X5039Y3307D01*
X337480Y3307D02*
X337527Y3346D01*
X5039Y3307D02*
X4992Y3346D01*
X327010Y2795D02*
X328906Y3385D01*
X15508Y2795D02*
X13613Y3385D01*
X328906Y3385D02*
X329011Y3425D01*
X13613Y3385D02*
X13508Y3425D01*
X295Y3858D02*
X4480Y3858D01*
X12546Y3858D02*
X329973Y3858D01*
X338039Y3858D02*
X342224Y3858D01*
X329011Y3425D02*
X330848Y4251D01*
X13508Y3425D02*
X11671Y4251D01*
X330848Y4251D02*
X330929Y4291D01*
X11671Y4251D02*
X11590Y4291D01*
X295Y4409D02*
X3929Y4409D01*
X11394Y4409D02*
X331125Y4409D01*
X338590Y4409D02*
X342224Y4409D01*
X295Y4960D02*
X3366Y4960D01*
X10482Y4960D02*
X332036Y4960D01*
X339153Y4960D02*
X342224Y4960D01*
X337527Y3346D02*
X339102Y4921D01*
X4992Y3346D02*
X3417Y4921D01*
X339102Y4921D02*
X339153Y4960D01*
X3417Y4921D02*
X3366Y4960D01*
X339153Y4960D02*
X339200Y5000D01*
X3366Y4960D02*
X3319Y5000D01*
X339200Y5000D02*
X339236Y5039D01*
X3319Y5000D02*
X3283Y5039D01*
X339236Y5039D02*
X339263Y5078D01*
X3283Y5039D02*
X3256Y5078D01*
X339263Y5078D02*
X339284Y5118D01*
X3256Y5078D02*
X3235Y5118D01*
X339284Y5118D02*
X339313Y5157D01*
X3235Y5118D02*
X3206Y5157D01*
X339313Y5157D02*
X339356Y5196D01*
X3206Y5157D02*
X3162Y5196D01*
X339356Y5196D02*
X339392Y5236D01*
X3162Y5196D02*
X3127Y5236D01*
X330929Y4291D02*
X332688Y5354D01*
X11590Y4291D02*
X9831Y5354D01*
X295Y5511D02*
X2911Y5511D01*
X9629Y5511D02*
X332890Y5511D01*
X339608Y5511D02*
X342224Y5511D01*
X332688Y5354D02*
X332890Y5511D01*
X9831Y5354D02*
X9629Y5511D01*
X295Y6062D02*
X2479Y6062D01*
X8925Y6062D02*
X333593Y6062D01*
X340040Y6062D02*
X342224Y6062D01*
X19299Y6417D02*
X19539Y6417D01*
X322449Y6417D02*
X322688Y6417D01*
X323259Y6377D02*
X323437Y6417D01*
X323259Y6377D02*
X323082Y6417D01*
X20110Y6377D02*
X20287Y6417D01*
X20110Y6377D02*
X19933Y6417D01*
X322449Y6417D02*
X322055Y6456D01*
X19299Y6417D02*
X18905Y6456D01*
X321698Y6456D02*
X321305Y6496D01*
X18549Y6456D02*
X18155Y6496D01*
X295Y6614D02*
X2047Y6614D01*
X8222Y6614D02*
X17546Y6614D01*
X22163Y6614D02*
X320696Y6614D01*
X325312Y6614D02*
X334297Y6614D01*
X340472Y6614D02*
X342224Y6614D01*
X323437Y6417D02*
X324801Y6574D01*
X20287Y6417D02*
X21651Y6574D01*
X324919Y6574D02*
X325312Y6614D01*
X21769Y6574D02*
X22163Y6614D01*
X325312Y6614D02*
X325493Y6653D01*
X22163Y6614D02*
X22343Y6653D01*
X332890Y5511D02*
X334347Y6653D01*
X9629Y5511D02*
X8172Y6653D01*
X325493Y6653D02*
X325564Y6692D01*
X22343Y6653D02*
X22415Y6692D01*
X321305Y6496D02*
X319681Y6811D01*
X18155Y6496D02*
X16531Y6811D01*
X319681Y6811D02*
X319432Y6850D01*
X16531Y6811D02*
X16282Y6850D01*
X319432Y6850D02*
X319252Y6889D01*
X16282Y6850D02*
X16102Y6889D01*
X319252Y6889D02*
X319167Y6929D01*
X16102Y6889D02*
X16017Y6929D01*
X339392Y5236D02*
X340780Y7007D01*
X3127Y5236D02*
X1739Y7007D01*
X340780Y7007D02*
X340853Y7086D01*
X1739Y7007D02*
X1666Y7086D01*
X295Y7165D02*
X1618Y7165D01*
X7660Y7165D02*
X15360Y7165D01*
X24134Y7165D02*
X318509Y7165D01*
X327283Y7165D02*
X334859Y7165D01*
X340901Y7165D02*
X342224Y7165D01*
X340853Y7086D02*
X340880Y7125D01*
X1666Y7086D02*
X1638Y7125D01*
X340880Y7125D02*
X340901Y7165D01*
X1638Y7125D02*
X1618Y7165D01*
X325564Y6692D02*
X327283Y7165D01*
X22415Y6692D02*
X24134Y7165D01*
X340901Y7165D02*
X340917Y7204D01*
X327283Y7165D02*
X327416Y7204D01*
X24134Y7165D02*
X24266Y7204D01*
X1618Y7165D02*
X1602Y7204D01*
X340917Y7204D02*
X340947Y7244D01*
X1602Y7204D02*
X1572Y7244D01*
X340947Y7244D02*
X340983Y7283D01*
X1572Y7244D02*
X1536Y7283D01*
X340983Y7283D02*
X341010Y7322D01*
X1536Y7283D02*
X1509Y7322D01*
X334347Y6653D02*
X335056Y7362D01*
X8172Y6653D02*
X7463Y7362D01*
X341010Y7322D02*
X341054Y7401D01*
X1509Y7322D02*
X1464Y7401D01*
X319167Y6929D02*
X317523Y7519D01*
X16017Y6929D02*
X14373Y7519D01*
X317523Y7519D02*
X317391Y7559D01*
X14373Y7519D02*
X14242Y7559D01*
X317391Y7559D02*
X317323Y7598D01*
X14242Y7559D02*
X14174Y7598D01*
X317323Y7598D02*
X317261Y7637D01*
X14174Y7598D02*
X14111Y7637D01*
X295Y7716D02*
X1274Y7716D01*
X7108Y7716D02*
X13966Y7716D01*
X25408Y7716D02*
X317116Y7716D01*
X328558Y7716D02*
X335410Y7716D01*
X341245Y7716D02*
X342224Y7716D01*
X327416Y7204D02*
X329085Y7952D01*
X24266Y7204D02*
X25935Y7952D01*
X329085Y7952D02*
X329203Y7992D01*
X25935Y7952D02*
X26053Y7992D01*
X329203Y7992D02*
X329271Y8031D01*
X26053Y7992D02*
X26121Y8031D01*
X329271Y8031D02*
X329318Y8070D01*
X26121Y8031D02*
X26168Y8070D01*
X329318Y8070D02*
X329371Y8110D01*
X26168Y8070D02*
X26222Y8110D01*
X335056Y7362D02*
X335842Y8149D01*
X7463Y7362D02*
X6677Y8149D01*
X295Y8267D02*
X941Y8267D01*
X6585Y8267D02*
X12953Y8267D01*
X26465Y8267D02*
X316102Y8267D01*
X329614Y8267D02*
X335934Y8267D01*
X341578Y8267D02*
X342224Y8267D01*
X317261Y7637D02*
X315740Y8464D01*
X14111Y7637D02*
X12591Y8464D01*
X315740Y8464D02*
X315654Y8503D01*
X12591Y8464D02*
X12505Y8503D01*
X315654Y8503D02*
X315587Y8543D01*
X12505Y8503D02*
X12437Y8543D01*
X315587Y8543D02*
X315441Y8661D01*
X12437Y8543D02*
X12292Y8661D01*
X295Y8818D02*
X608Y8818D01*
X6153Y8818D02*
X12085Y8818D01*
X27316Y8818D02*
X315235Y8818D01*
X330466Y8818D02*
X336366Y8818D01*
X341911Y8818D02*
X342224Y8818D01*
X329371Y8110D02*
X330891Y9094D01*
X26222Y8110D02*
X27742Y9094D01*
X330891Y9094D02*
X330946Y9133D01*
X27742Y9094D02*
X27796Y9133D01*
X330946Y9133D02*
X331037Y9212D01*
X27796Y9133D02*
X27888Y9212D01*
X295Y9330D02*
X298Y9330D01*
X342220Y9330D02*
X342224Y9330D01*
X5721Y9370D02*
X11362Y9370D01*
X28064Y9370D02*
X314512Y9370D01*
X331214Y9370D02*
X336798Y9370D01*
X341054Y7401D02*
X342220Y9330D01*
X1464Y7401D02*
X298Y9330D01*
X342224Y0D02*
X342224Y9330D01*
X295Y0D02*
X295Y9330D01*
X315441Y8661D02*
X314047Y9724D01*
X12292Y8661D02*
X10897Y9724D01*
X314047Y9724D02*
X313953Y9803D01*
X10897Y9724D02*
X10803Y9803D01*
X335842Y8149D02*
X337136Y9803D01*
X6677Y8149D02*
X5383Y9803D01*
X5312Y9921D02*
X10690Y9921D01*
X28683Y9921D02*
X313839Y9921D01*
X331833Y9921D02*
X337207Y9921D01*
X4979Y10472D02*
X10159Y10472D01*
X29304Y10472D02*
X313309Y10472D01*
X332453Y10472D02*
X337540Y10472D01*
X331037Y9212D02*
X332453Y10472D01*
X27888Y9212D02*
X29304Y10472D01*
X332453Y10472D02*
X332489Y10511D01*
X29304Y10472D02*
X29339Y10511D01*
X332489Y10511D02*
X332585Y10629D01*
X29339Y10511D02*
X29435Y10629D01*
X4645Y11023D02*
X9629Y11023D01*
X29760Y11023D02*
X312778Y11023D01*
X332909Y11023D02*
X337873Y11023D01*
X313953Y9803D02*
X312591Y11220D01*
X10803Y9803D02*
X9441Y11220D01*
X312591Y11220D02*
X312555Y11259D01*
X9441Y11220D02*
X9406Y11259D01*
X4312Y11574D02*
X9184Y11574D01*
X30214Y11574D02*
X312334Y11574D01*
X333364Y11574D02*
X338207Y11574D01*
X337136Y9803D02*
X338227Y11614D01*
X5383Y9803D02*
X4292Y11614D01*
X332585Y10629D02*
X333752Y12047D01*
X29435Y10629D02*
X30602Y12047D01*
X4061Y12125D02*
X8797Y12125D01*
X30653Y12125D02*
X311946Y12125D01*
X333802Y12125D02*
X338457Y12125D01*
X333752Y12047D02*
X333802Y12125D01*
X30602Y12047D02*
X30653Y12125D01*
X3813Y12677D02*
X8409Y12677D01*
X30980Y12677D02*
X311558Y12677D01*
X334130Y12677D02*
X338706Y12677D01*
X312555Y11259D02*
X311394Y12913D01*
X9406Y11259D02*
X8244Y12913D01*
X311394Y12913D02*
X311334Y13031D01*
X8244Y12913D02*
X8184Y13031D01*
X3565Y13228D02*
X8087Y13228D01*
X31308Y13228D02*
X311236Y13228D01*
X334458Y13228D02*
X338954Y13228D01*
X338227Y11614D02*
X339078Y13503D01*
X4292Y11614D02*
X3441Y13503D01*
X339078Y13503D02*
X339140Y13700D01*
X3441Y13503D02*
X3379Y13700D01*
X3354Y13779D02*
X7814Y13779D01*
X31635Y13779D02*
X310963Y13779D01*
X334785Y13779D02*
X339164Y13779D01*
X333802Y12125D02*
X334806Y13818D01*
X30653Y12125D02*
X31656Y13818D01*
X3183Y14330D02*
X7541Y14330D01*
X31863Y14330D02*
X310691Y14330D01*
X335012Y14330D02*
X339336Y14330D01*
X311334Y13031D02*
X310496Y14724D01*
X8184Y13031D02*
X7347Y14724D01*
X310496Y14724D02*
X310468Y14803D01*
X7347Y14724D02*
X7319Y14803D01*
X3011Y14881D02*
X7294Y14881D01*
X32085Y14881D02*
X310444Y14881D01*
X335234Y14881D02*
X339508Y14881D01*
X2839Y15433D02*
X7119Y15433D01*
X32307Y15433D02*
X310269Y15433D01*
X335456Y15433D02*
X339680Y15433D01*
X339140Y13700D02*
X339704Y15511D01*
X3379Y13700D02*
X2814Y15511D01*
X339704Y15511D02*
X339741Y15708D01*
X2814Y15511D02*
X2778Y15708D01*
X334806Y13818D02*
X335564Y15708D01*
X31656Y13818D02*
X32414Y15708D01*
X335564Y15708D02*
X335593Y15826D01*
X32414Y15708D02*
X32444Y15826D01*
X2727Y15984D02*
X6945Y15984D01*
X32480Y15984D02*
X310095Y15984D01*
X335630Y15984D02*
X339792Y15984D01*
X2626Y16535D02*
X6771Y16535D01*
X32609Y16535D02*
X309920Y16535D01*
X335759Y16535D02*
X339893Y16535D01*
X310468Y14803D02*
X309874Y16692D01*
X7319Y14803D02*
X6724Y16692D01*
X2525Y17086D02*
X6663Y17086D01*
X32738Y17086D02*
X309813Y17086D01*
X335888Y17086D02*
X339994Y17086D01*
X309874Y16692D02*
X309752Y17480D01*
X6724Y16692D02*
X6602Y17480D01*
X2430Y17637D02*
X6578Y17637D01*
X32871Y17637D02*
X309728Y17637D01*
X336021Y17637D02*
X340088Y17637D01*
X335593Y15826D02*
X336010Y17598D01*
X32444Y15826D02*
X32861Y17598D01*
X339741Y15708D02*
X340086Y17598D01*
X2778Y15708D02*
X2433Y17598D01*
X336010Y17598D02*
X336021Y17637D01*
X32861Y17598D02*
X32871Y17637D01*
X336021Y17637D02*
X336027Y17677D01*
X32871Y17637D02*
X32878Y17677D01*
X336027Y17677D02*
X336041Y17874D01*
X32878Y17677D02*
X32891Y17874D01*
X2397Y18188D02*
X6493Y18188D01*
X32916Y18188D02*
X309642Y18188D01*
X336065Y18188D02*
X340122Y18188D01*
X2364Y18740D02*
X6415Y18740D01*
X32958Y18740D02*
X309565Y18740D01*
X336108Y18740D02*
X340155Y18740D01*
X309752Y17480D02*
X309565Y18700D01*
X6602Y17480D02*
X6415Y18700D01*
X2330Y19291D02*
X6415Y19291D01*
X33000Y19291D02*
X309565Y19291D01*
X336150Y19291D02*
X340188Y19291D01*
X336041Y17874D02*
X336181Y19724D01*
X32891Y17874D02*
X33031Y19724D01*
X2303Y19842D02*
X6415Y19842D01*
X33021Y19842D02*
X309565Y19842D01*
X336171Y19842D02*
X340216Y19842D01*
X340086Y17598D02*
X340216Y19803D01*
X2433Y17598D02*
X2303Y19803D01*
X336181Y19724D02*
X336171Y19842D01*
X33031Y19724D02*
X33021Y19842D01*
X2303Y20393D02*
X6415Y20393D01*
X32979Y20393D02*
X309565Y20393D01*
X336129Y20393D02*
X340216Y20393D01*
X309565Y18700D02*
X309567Y20748D01*
X6415Y18700D02*
X6417Y20748D01*
X2303Y20944D02*
X6450Y20944D01*
X32937Y20944D02*
X309600Y20944D01*
X336086Y20944D02*
X340216Y20944D01*
X2303Y21496D02*
X6535Y21496D01*
X32894Y21496D02*
X309685Y21496D01*
X336044Y21496D02*
X340216Y21496D01*
X336171Y19842D02*
X336021Y21771D01*
X33021Y19842D02*
X32871Y21771D01*
X336021Y21771D02*
X335971Y21968D01*
X32871Y21771D02*
X32821Y21968D01*
X309567Y20748D02*
X309758Y21968D01*
X6417Y20748D02*
X6608Y21968D01*
X2303Y22047D02*
X6620Y22047D01*
X32803Y22047D02*
X309770Y22047D01*
X335952Y22047D02*
X340216Y22047D01*
X2303Y22598D02*
X6706Y22598D01*
X32674Y22598D02*
X309855Y22598D01*
X335823Y22598D02*
X340216Y22598D01*
X309758Y21968D02*
X309874Y22716D01*
X6608Y21968D02*
X6724Y22716D01*
X309874Y22716D02*
X309920Y22874D01*
X6724Y22716D02*
X6771Y22874D01*
X2303Y23149D02*
X6858Y23149D01*
X32545Y23149D02*
X310007Y23149D01*
X335694Y23149D02*
X340216Y23149D01*
X2303Y23700D02*
X7032Y23700D01*
X32414Y23700D02*
X310182Y23700D01*
X335564Y23700D02*
X340216Y23700D01*
X335971Y21968D02*
X335564Y23700D01*
X32821Y21968D02*
X32414Y23700D01*
X335564Y23700D02*
X335536Y23779D01*
X32414Y23700D02*
X32386Y23779D01*
X2303Y24251D02*
X7207Y24251D01*
X32196Y24251D02*
X310356Y24251D01*
X335345Y24251D02*
X340216Y24251D01*
X309920Y22874D02*
X310496Y24685D01*
X6771Y22874D02*
X7347Y24685D01*
X2303Y24803D02*
X7404Y24803D01*
X31974Y24803D02*
X310554Y24803D01*
X335123Y24803D02*
X340216Y24803D01*
X310496Y24685D02*
X310593Y24881D01*
X7347Y24685D02*
X7443Y24881D01*
X2303Y25354D02*
X7677Y25354D01*
X31751Y25354D02*
X310827Y25354D01*
X334901Y25354D02*
X340216Y25354D01*
X335536Y23779D02*
X334806Y25590D01*
X32386Y23779D02*
X31656Y25590D01*
X334806Y25590D02*
X334762Y25669D01*
X31656Y25590D02*
X31612Y25669D01*
X2303Y25905D02*
X7950Y25905D01*
X31472Y25905D02*
X311100Y25905D01*
X334621Y25905D02*
X340216Y25905D01*
X2303Y26456D02*
X8223Y26456D01*
X31144Y26456D02*
X311373Y26456D01*
X334294Y26456D02*
X340216Y26456D01*
X310593Y24881D02*
X311394Y26496D01*
X7443Y24881D02*
X8244Y26496D01*
X311394Y26496D02*
X311531Y26692D01*
X8244Y26496D02*
X8381Y26692D01*
X2303Y27007D02*
X8603Y27007D01*
X30816Y27007D02*
X311752Y27007D01*
X333966Y27007D02*
X340216Y27007D01*
X334762Y25669D02*
X333752Y27362D01*
X31612Y25669D02*
X30602Y27362D01*
X333752Y27362D02*
X333656Y27480D01*
X30602Y27362D02*
X30506Y27480D01*
X2303Y27559D02*
X8990Y27559D01*
X30441Y27559D02*
X312140Y27559D01*
X333591Y27559D02*
X340216Y27559D01*
X2303Y28110D02*
X9378Y28110D01*
X29987Y28110D02*
X312528Y28110D01*
X333137Y28110D02*
X340216Y28110D01*
X311531Y26692D02*
X312555Y28149D01*
X8381Y26692D02*
X9406Y28149D01*
X312555Y28149D02*
X312665Y28267D01*
X9406Y28149D02*
X9515Y28267D01*
X2303Y28661D02*
X9894Y28661D01*
X29532Y28661D02*
X313044Y28661D01*
X332682Y28661D02*
X340216Y28661D01*
X333656Y27480D02*
X332453Y28937D01*
X30506Y27480D02*
X29304Y28937D01*
X332453Y28937D02*
X332363Y29015D01*
X29304Y28937D02*
X29213Y29015D01*
X2303Y29212D02*
X10425Y29212D01*
X28992Y29212D02*
X313574Y29212D01*
X332142Y29212D02*
X340216Y29212D01*
X312665Y28267D02*
X313953Y29606D01*
X9515Y28267D02*
X10803Y29606D01*
X313953Y29606D02*
X314047Y29685D01*
X10803Y29606D02*
X10897Y29685D01*
X2303Y29763D02*
X11000Y29763D01*
X28374Y29763D02*
X314150Y29763D01*
X331523Y29763D02*
X340216Y29763D01*
X2303Y30314D02*
X11724Y30314D01*
X27742Y30314D02*
X314873Y30314D01*
X330891Y30314D02*
X340216Y30314D01*
X332363Y29015D02*
X330946Y30275D01*
X29213Y29015D02*
X27796Y30275D01*
X330946Y30275D02*
X330891Y30314D01*
X27796Y30275D02*
X27742Y30314D01*
X314047Y29685D02*
X315493Y30787D01*
X10897Y29685D02*
X12343Y30787D01*
X2303Y30866D02*
X12437Y30866D01*
X26890Y30866D02*
X315587Y30866D01*
X330040Y30866D02*
X340216Y30866D01*
X315493Y30787D02*
X315587Y30866D01*
X12343Y30787D02*
X12437Y30866D01*
X315587Y30866D02*
X315654Y30905D01*
X12437Y30866D02*
X12505Y30905D01*
X315654Y30905D02*
X315740Y30944D01*
X12505Y30905D02*
X12591Y30944D01*
X330891Y30314D02*
X329371Y31299D01*
X27742Y30314D02*
X26222Y31299D01*
X329371Y31299D02*
X329318Y31338D01*
X26222Y31299D02*
X26168Y31338D01*
X2303Y31417D02*
X13460Y31417D01*
X26053Y31417D02*
X316609Y31417D01*
X329203Y31417D02*
X340216Y31417D01*
X329318Y31338D02*
X329271Y31377D01*
X26168Y31338D02*
X26121Y31377D01*
X329271Y31377D02*
X329203Y31417D01*
X26121Y31377D02*
X26053Y31417D01*
X329203Y31417D02*
X329085Y31456D01*
X26053Y31417D02*
X25935Y31456D01*
X315740Y30944D02*
X317261Y31771D01*
X12591Y30944D02*
X14111Y31771D01*
X317261Y31771D02*
X317323Y31811D01*
X14111Y31771D02*
X14174Y31811D01*
X317323Y31811D02*
X317391Y31850D01*
X14174Y31811D02*
X14242Y31850D01*
X317391Y31850D02*
X317523Y31889D01*
X14242Y31850D02*
X14373Y31889D01*
X2303Y31968D02*
X14592Y31968D01*
X24793Y31968D02*
X317742Y31968D01*
X327943Y31968D02*
X340216Y31968D01*
X329085Y31456D02*
X327416Y32204D01*
X25935Y31456D02*
X24266Y32204D01*
X327416Y32204D02*
X327283Y32244D01*
X24266Y32204D02*
X24134Y32244D01*
X2303Y32519D02*
X16102Y32519D01*
X23131Y32519D02*
X319252Y32519D01*
X326281Y32519D02*
X340216Y32519D01*
X317523Y31889D02*
X319167Y32480D01*
X14373Y31889D02*
X16017Y32480D01*
X319167Y32480D02*
X319252Y32519D01*
X16017Y32480D02*
X16102Y32519D01*
X319252Y32519D02*
X319432Y32559D01*
X16102Y32519D02*
X16282Y32559D01*
X319432Y32559D02*
X319681Y32598D01*
X16282Y32559D02*
X16531Y32598D01*
X327283Y32244D02*
X325564Y32716D01*
X24134Y32244D02*
X22415Y32716D01*
X325564Y32716D02*
X325493Y32755D01*
X22415Y32716D02*
X22343Y32755D01*
X325493Y32755D02*
X325312Y32795D01*
X22343Y32755D02*
X22163Y32795D01*
X325312Y32795D02*
X324919Y32834D01*
X22163Y32795D02*
X21769Y32834D01*
X319681Y32598D02*
X321305Y32913D01*
X16531Y32598D02*
X18155Y32913D01*
X19299Y32992D02*
X19539Y32992D01*
X322449Y32992D02*
X322688Y32992D01*
X321305Y32913D02*
X321698Y32952D01*
X18155Y32913D02*
X18549Y32952D01*
X322055Y32952D02*
X322449Y32992D01*
X18905Y32952D02*
X19299Y32992D01*
X324801Y32834D02*
X323437Y32992D01*
X21651Y32834D02*
X20287Y32992D01*
X2303Y33070D02*
X340216Y33070D01*
X323437Y32992D02*
X323259Y33031D01*
X323082Y32992D02*
X323259Y33031D01*
X20287Y32992D02*
X20110Y33031D01*
X19933Y32992D02*
X20110Y33031D01*
X2303Y33622D02*
X340216Y33622D01*
X2303Y34173D02*
X340216Y34173D01*
X2303Y34724D02*
X340216Y34724D01*
X2303Y35275D02*
X340216Y35275D01*
X2303Y35826D02*
X340216Y35826D01*
X2303Y36377D02*
X340216Y36377D01*
X2303Y36929D02*
X340216Y36929D01*
X2303Y37480D02*
X340216Y37480D01*
X2303Y38031D02*
X340216Y38031D01*
X2303Y38582D02*
X340216Y38582D01*
X2303Y39133D02*
X340216Y39133D01*
X2303Y39685D02*
X340216Y39685D01*
X2303Y40236D02*
X340216Y40236D01*
X116408Y40629D02*
X116447Y40629D01*
X136408Y40629D02*
X136447Y40629D01*
X156408Y40629D02*
X156447Y40629D01*
X176408Y40629D02*
X176447Y40629D01*
X176847Y40590D02*
X176854Y40629D01*
X176847Y40590D02*
X176841Y40629D01*
X156847Y40590D02*
X156854Y40629D01*
X156847Y40590D02*
X156841Y40629D01*
X136847Y40590D02*
X136854Y40629D01*
X136847Y40590D02*
X136841Y40629D01*
X116847Y40590D02*
X116854Y40629D01*
X116847Y40590D02*
X116841Y40629D01*
X176408Y40629D02*
X176014Y40669D01*
X156408Y40629D02*
X156014Y40669D01*
X136408Y40629D02*
X136014Y40669D01*
X116408Y40629D02*
X116014Y40669D01*
X175653Y40669D02*
X175259Y40708D01*
X155653Y40669D02*
X155259Y40708D01*
X135653Y40669D02*
X135259Y40708D01*
X115653Y40669D02*
X115259Y40708D01*
X2303Y40787D02*
X114917Y40787D01*
X117949Y40787D02*
X134917Y40787D01*
X137949Y40787D02*
X154917Y40787D01*
X157949Y40787D02*
X174917Y40787D01*
X177949Y40787D02*
X340216Y40787D01*
X175259Y40708D02*
X175079Y40748D01*
X155259Y40708D02*
X155079Y40748D01*
X135259Y40708D02*
X135079Y40748D01*
X115259Y40708D02*
X115079Y40748D01*
X176854Y40629D02*
X178223Y40826D01*
X156854Y40629D02*
X158223Y40826D01*
X136854Y40629D02*
X138223Y40826D01*
X116854Y40629D02*
X118223Y40826D01*
X178223Y40826D02*
X178446Y40866D01*
X158223Y40826D02*
X158446Y40866D01*
X138223Y40826D02*
X138446Y40866D01*
X118223Y40826D02*
X118446Y40866D01*
X178446Y40866D02*
X178626Y40905D01*
X158446Y40866D02*
X158626Y40905D01*
X138446Y40866D02*
X138626Y40905D01*
X118446Y40866D02*
X118626Y40905D01*
X175079Y40748D02*
X173943Y41023D01*
X155079Y40748D02*
X153943Y41023D01*
X135079Y40748D02*
X133943Y41023D01*
X115079Y40748D02*
X113943Y41023D01*
X173943Y41023D02*
X173746Y41062D01*
X153943Y41023D02*
X153746Y41062D01*
X133943Y41023D02*
X133746Y41062D01*
X113943Y41023D02*
X113746Y41062D01*
X173746Y41062D02*
X173565Y41102D01*
X153746Y41062D02*
X153565Y41102D01*
X133746Y41062D02*
X133565Y41102D01*
X113746Y41062D02*
X113565Y41102D01*
X173565Y41102D02*
X173498Y41141D01*
X153565Y41102D02*
X153498Y41141D01*
X133565Y41102D02*
X133498Y41141D01*
X113565Y41102D02*
X113498Y41141D01*
X173498Y41141D02*
X173421Y41181D01*
X153498Y41141D02*
X153421Y41181D01*
X133498Y41141D02*
X133421Y41181D01*
X113498Y41141D02*
X113421Y41181D01*
X2303Y41338D02*
X113076Y41338D01*
X119877Y41338D02*
X133076Y41338D01*
X139877Y41338D02*
X153076Y41338D01*
X159877Y41338D02*
X173076Y41338D01*
X179877Y41338D02*
X340216Y41338D01*
X178626Y40905D02*
X179991Y41377D01*
X158626Y40905D02*
X159991Y41377D01*
X138626Y40905D02*
X139991Y41377D01*
X118626Y40905D02*
X119991Y41377D01*
X179991Y41377D02*
X180095Y41417D01*
X159991Y41377D02*
X160095Y41417D01*
X139991Y41377D02*
X140095Y41417D01*
X119991Y41377D02*
X120095Y41417D01*
X173421Y41181D02*
X172130Y41771D01*
X153421Y41181D02*
X152130Y41771D01*
X133421Y41181D02*
X132130Y41771D01*
X113421Y41181D02*
X112130Y41771D01*
X172130Y41771D02*
X172062Y41811D01*
X152130Y41771D02*
X152062Y41811D01*
X132130Y41771D02*
X132062Y41811D01*
X112130Y41771D02*
X112062Y41811D01*
X2303Y41889D02*
X111951Y41889D01*
X120913Y41889D02*
X131951Y41889D01*
X140913Y41889D02*
X151951Y41889D01*
X160913Y41889D02*
X171951Y41889D01*
X180913Y41889D02*
X340216Y41889D01*
X180095Y41417D02*
X181458Y42204D01*
X160095Y41417D02*
X161458Y42204D01*
X140095Y41417D02*
X141458Y42204D01*
X120095Y41417D02*
X121458Y42204D01*
X181458Y42204D02*
X181521Y42244D01*
X161458Y42204D02*
X161521Y42244D01*
X141458Y42204D02*
X141521Y42244D01*
X121458Y42204D02*
X121521Y42244D01*
X181521Y42244D02*
X181659Y42362D01*
X161521Y42244D02*
X161659Y42362D01*
X141521Y42244D02*
X141659Y42362D01*
X121521Y42244D02*
X121659Y42362D01*
X2303Y42440D02*
X111177Y42440D01*
X121750Y42440D02*
X131177Y42440D01*
X141750Y42440D02*
X151177Y42440D01*
X161750Y42440D02*
X171177Y42440D01*
X181750Y42440D02*
X340216Y42440D01*
X172062Y41811D02*
X170845Y42677D01*
X152062Y41811D02*
X150845Y42677D01*
X132062Y41811D02*
X130845Y42677D01*
X112062Y41811D02*
X110845Y42677D01*
X170845Y42677D02*
X170781Y42716D01*
X150845Y42677D02*
X150781Y42716D01*
X130845Y42677D02*
X130781Y42716D01*
X110845Y42677D02*
X110781Y42716D01*
X170781Y42716D02*
X170734Y42755D01*
X150781Y42716D02*
X150734Y42755D01*
X130781Y42716D02*
X130734Y42755D01*
X110781Y42716D02*
X110734Y42755D01*
X170734Y42755D02*
X170590Y42913D01*
X150734Y42755D02*
X150590Y42913D01*
X130734Y42755D02*
X130590Y42913D01*
X110734Y42755D02*
X110590Y42913D01*
X2303Y42992D02*
X110515Y42992D01*
X122386Y42992D02*
X130515Y42992D01*
X142386Y42992D02*
X150515Y42992D01*
X162386Y42992D02*
X170515Y42992D01*
X182386Y42992D02*
X340216Y42992D01*
X181659Y42362D02*
X182750Y43307D01*
X161659Y42362D02*
X162750Y43307D01*
X141659Y42362D02*
X142750Y43307D01*
X121659Y42362D02*
X122750Y43307D01*
X182750Y43307D02*
X182785Y43346D01*
X162750Y43307D02*
X162785Y43346D01*
X142750Y43307D02*
X142785Y43346D01*
X122750Y43307D02*
X122785Y43346D01*
X2303Y43543D02*
X109989Y43543D01*
X122940Y43543D02*
X129989Y43543D01*
X142940Y43543D02*
X149989Y43543D01*
X162940Y43543D02*
X169989Y43543D01*
X182940Y43543D02*
X340216Y43543D01*
X170590Y42913D02*
X169689Y43858D01*
X150590Y42913D02*
X149689Y43858D01*
X130590Y42913D02*
X129689Y43858D01*
X110590Y42913D02*
X109689Y43858D01*
X169689Y43858D02*
X169647Y43897D01*
X149689Y43858D02*
X149647Y43897D01*
X129689Y43858D02*
X129647Y43897D01*
X109689Y43858D02*
X109647Y43897D01*
X169647Y43897D02*
X169611Y43937D01*
X149647Y43897D02*
X149611Y43937D01*
X129647Y43897D02*
X129611Y43937D01*
X109647Y43897D02*
X109611Y43937D01*
X169611Y43937D02*
X169584Y43976D01*
X149611Y43937D02*
X149584Y43976D01*
X129611Y43937D02*
X129584Y43976D01*
X109611Y43937D02*
X109584Y43976D01*
X2303Y44094D02*
X109511Y44094D01*
X123373Y44094D02*
X129511Y44094D01*
X143373Y44094D02*
X149511Y44094D01*
X163373Y44094D02*
X169511Y44094D01*
X183373Y44094D02*
X340216Y44094D01*
X169584Y43976D02*
X169536Y44055D01*
X149584Y43976D02*
X149536Y44055D01*
X129584Y43976D02*
X129536Y44055D01*
X109584Y43976D02*
X109536Y44055D01*
X182785Y43346D02*
X183683Y44488D01*
X162785Y43346D02*
X163683Y44488D01*
X142785Y43346D02*
X143683Y44488D01*
X122785Y43346D02*
X123683Y44488D01*
X183683Y44488D02*
X183723Y44527D01*
X163683Y44488D02*
X163723Y44527D01*
X143683Y44488D02*
X143723Y44527D01*
X123683Y44488D02*
X123723Y44527D01*
X183723Y44527D02*
X183759Y44566D01*
X163723Y44527D02*
X163759Y44566D01*
X143723Y44527D02*
X143759Y44566D01*
X123723Y44527D02*
X123759Y44566D01*
X2303Y44645D02*
X109157Y44645D01*
X123807Y44645D02*
X129157Y44645D01*
X143807Y44645D02*
X149157Y44645D01*
X163807Y44645D02*
X169157Y44645D01*
X183807Y44645D02*
X340216Y44645D01*
X183759Y44566D02*
X183786Y44606D01*
X163759Y44566D02*
X163786Y44606D01*
X143759Y44566D02*
X143786Y44606D01*
X123759Y44566D02*
X123786Y44606D01*
X183786Y44606D02*
X183807Y44645D01*
X163786Y44606D02*
X163807Y44645D01*
X143786Y44606D02*
X143807Y44645D01*
X123786Y44606D02*
X123807Y44645D01*
X183807Y44645D02*
X183838Y44724D01*
X163807Y44645D02*
X163838Y44724D01*
X143807Y44645D02*
X143838Y44724D01*
X123807Y44645D02*
X123838Y44724D01*
X2303Y45196D02*
X108803Y45196D01*
X124082Y45196D02*
X128803Y45196D01*
X144082Y45196D02*
X148803Y45196D01*
X164082Y45196D02*
X168803Y45196D01*
X184082Y45196D02*
X340216Y45196D01*
X169536Y44055D02*
X168729Y45314D01*
X149536Y44055D02*
X148729Y45314D01*
X129536Y44055D02*
X128729Y45314D01*
X109536Y44055D02*
X108729Y45314D01*
X168729Y45314D02*
X168708Y45354D01*
X148729Y45314D02*
X148708Y45354D01*
X128729Y45314D02*
X128708Y45354D01*
X108729Y45314D02*
X108708Y45354D01*
X2303Y45748D02*
X108550Y45748D01*
X124366Y45748D02*
X128550Y45748D01*
X144366Y45748D02*
X148550Y45748D01*
X164366Y45748D02*
X168550Y45748D01*
X184366Y45748D02*
X340216Y45748D01*
X183838Y44724D02*
X184529Y46062D01*
X163838Y44724D02*
X164529Y46062D01*
X143838Y44724D02*
X144529Y46062D01*
X123838Y44724D02*
X124529Y46062D01*
X184529Y46062D02*
X184544Y46102D01*
X164529Y46062D02*
X164544Y46102D01*
X144529Y46062D02*
X144544Y46102D01*
X124529Y46062D02*
X124544Y46102D01*
X2303Y46299D02*
X108330Y46299D01*
X124602Y46299D02*
X128330Y46299D01*
X144602Y46299D02*
X148330Y46299D01*
X164602Y46299D02*
X168330Y46299D01*
X184602Y46299D02*
X340216Y46299D01*
X2303Y46850D02*
X108110Y46850D01*
X124764Y46850D02*
X128110Y46850D01*
X144764Y46850D02*
X148110Y46850D01*
X164764Y46850D02*
X168110Y46850D01*
X184764Y46850D02*
X340216Y46850D01*
X168708Y45354D02*
X168110Y46850D01*
X148708Y45354D02*
X148110Y46850D01*
X128708Y45354D02*
X128110Y46850D01*
X108708Y45354D02*
X108110Y46850D01*
X168110Y46850D02*
X168091Y46929D01*
X148110Y46850D02*
X148091Y46929D01*
X128110Y46850D02*
X128091Y46929D01*
X108110Y46850D02*
X108091Y46929D01*
X184544Y46102D02*
X184810Y47007D01*
X164544Y46102D02*
X164810Y47007D01*
X144544Y46102D02*
X144810Y47007D01*
X124544Y46102D02*
X124810Y47007D01*
X2303Y47401D02*
X108000Y47401D01*
X124926Y47401D02*
X128000Y47401D01*
X144926Y47401D02*
X148000Y47401D01*
X164926Y47401D02*
X168000Y47401D01*
X184926Y47401D02*
X340216Y47401D01*
X184810Y47007D02*
X184973Y47559D01*
X164810Y47007D02*
X164973Y47559D01*
X144810Y47007D02*
X144973Y47559D01*
X124810Y47007D02*
X124973Y47559D01*
X184973Y47559D02*
X184988Y47598D01*
X164973Y47559D02*
X164988Y47598D01*
X144973Y47559D02*
X144988Y47598D01*
X124973Y47559D02*
X124988Y47598D01*
X184988Y47598D02*
X184999Y47637D01*
X164988Y47598D02*
X164999Y47637D01*
X144988Y47598D02*
X144999Y47637D01*
X124988Y47598D02*
X124999Y47637D01*
X184999Y47637D02*
X185005Y47677D01*
X164999Y47637D02*
X165005Y47677D01*
X144999Y47637D02*
X145005Y47677D01*
X124999Y47637D02*
X125005Y47677D01*
X185005Y47677D02*
X185015Y47795D01*
X165005Y47677D02*
X165015Y47795D01*
X145005Y47677D02*
X145015Y47795D01*
X125005Y47677D02*
X125015Y47795D01*
X2303Y47952D02*
X107894Y47952D01*
X125030Y47952D02*
X127894Y47952D01*
X145030Y47952D02*
X147894Y47952D01*
X165030Y47952D02*
X167894Y47952D01*
X185030Y47952D02*
X340216Y47952D01*
X2303Y48503D02*
X107793Y48503D01*
X125083Y48503D02*
X127793Y48503D01*
X145083Y48503D02*
X147793Y48503D01*
X165083Y48503D02*
X167793Y48503D01*
X185083Y48503D02*
X340216Y48503D01*
X168091Y46929D02*
X167795Y48464D01*
X148091Y46929D02*
X147795Y48464D01*
X128091Y46929D02*
X127795Y48464D01*
X108091Y46929D02*
X107795Y48464D01*
X167795Y48464D02*
X167793Y48543D01*
X147795Y48464D02*
X147793Y48543D01*
X127795Y48464D02*
X127793Y48543D01*
X107795Y48464D02*
X107793Y48543D01*
X2303Y49055D02*
X107793Y49055D01*
X125135Y49055D02*
X127793Y49055D01*
X145135Y49055D02*
X147793Y49055D01*
X165135Y49055D02*
X167793Y49055D01*
X185135Y49055D02*
X340216Y49055D01*
X185015Y47795D02*
X185157Y49291D01*
X165015Y47795D02*
X165157Y49291D01*
X145015Y47795D02*
X145157Y49291D01*
X125015Y47795D02*
X125157Y49291D01*
X185157Y49291D02*
X185148Y49409D01*
X165157Y49291D02*
X165148Y49409D01*
X145157Y49291D02*
X145148Y49409D01*
X125157Y49291D02*
X125148Y49409D01*
X2303Y49606D02*
X107793Y49606D01*
X125130Y49606D02*
X127793Y49606D01*
X145130Y49606D02*
X147793Y49606D01*
X165130Y49606D02*
X167793Y49606D01*
X185130Y49606D02*
X340216Y49606D01*
X2303Y50157D02*
X107801Y50157D01*
X125077Y50157D02*
X127801Y50157D01*
X145077Y50157D02*
X147801Y50157D01*
X165077Y50157D02*
X167801Y50157D01*
X185077Y50157D02*
X340216Y50157D01*
X167793Y48543D02*
X167795Y50118D01*
X147793Y48543D02*
X147795Y50118D01*
X127793Y48543D02*
X127795Y50118D01*
X107793Y48543D02*
X107795Y50118D01*
X167795Y50118D02*
X167814Y50236D01*
X147795Y50118D02*
X147814Y50236D01*
X127795Y50118D02*
X127814Y50236D01*
X107795Y50118D02*
X107814Y50236D01*
X2303Y50708D02*
X107906Y50708D01*
X125024Y50708D02*
X127906Y50708D01*
X145024Y50708D02*
X147906Y50708D01*
X165024Y50708D02*
X167906Y50708D01*
X185024Y50708D02*
X340216Y50708D01*
X185148Y49409D02*
X184999Y50944D01*
X165148Y49409D02*
X164999Y50944D01*
X145148Y49409D02*
X144999Y50944D01*
X125148Y49409D02*
X124999Y50944D01*
X184999Y50944D02*
X184931Y51181D01*
X164999Y50944D02*
X164931Y51181D01*
X144999Y50944D02*
X144931Y51181D01*
X124999Y50944D02*
X124931Y51181D01*
X2303Y51259D02*
X108012Y51259D01*
X124908Y51259D02*
X128012Y51259D01*
X144908Y51259D02*
X148012Y51259D01*
X164908Y51259D02*
X168012Y51259D01*
X184908Y51259D02*
X340216Y51259D01*
X2303Y51811D02*
X108126Y51811D01*
X124746Y51811D02*
X128126Y51811D01*
X144746Y51811D02*
X148126Y51811D01*
X164746Y51811D02*
X168126Y51811D01*
X184746Y51811D02*
X340216Y51811D01*
X167814Y50236D02*
X168110Y51771D01*
X147814Y50236D02*
X148110Y51771D01*
X127814Y50236D02*
X128110Y51771D01*
X107814Y50236D02*
X108110Y51771D01*
X168110Y51771D02*
X168126Y51811D01*
X148110Y51771D02*
X148126Y51811D01*
X128110Y51771D02*
X128126Y51811D01*
X108110Y51771D02*
X108126Y51811D01*
X168126Y51811D02*
X168164Y51889D01*
X148126Y51811D02*
X148164Y51889D01*
X128126Y51811D02*
X128164Y51889D01*
X108126Y51811D02*
X108164Y51889D01*
X2303Y52362D02*
X108353Y52362D01*
X124585Y52362D02*
X128353Y52362D01*
X144585Y52362D02*
X148353Y52362D01*
X164585Y52362D02*
X168353Y52362D01*
X184585Y52362D02*
X340216Y52362D01*
X126408Y52440D02*
X126447Y52440D01*
X146408Y52440D02*
X146447Y52440D01*
X166408Y52440D02*
X166447Y52440D01*
X186408Y52440D02*
X186447Y52440D01*
X186847Y52401D02*
X186854Y52440D01*
X186847Y52401D02*
X186841Y52440D01*
X166847Y52401D02*
X166854Y52440D01*
X166847Y52401D02*
X166841Y52440D01*
X146847Y52401D02*
X146854Y52440D01*
X146847Y52401D02*
X146841Y52440D01*
X126847Y52401D02*
X126854Y52440D01*
X126847Y52401D02*
X126841Y52440D01*
X186408Y52440D02*
X186014Y52480D01*
X166408Y52440D02*
X166014Y52480D01*
X146408Y52440D02*
X146014Y52480D01*
X126408Y52440D02*
X126014Y52480D01*
X184931Y51181D02*
X184550Y52480D01*
X164931Y51181D02*
X164550Y52480D01*
X144931Y51181D02*
X144550Y52480D01*
X124931Y51181D02*
X124550Y52480D01*
X185653Y52480D02*
X185259Y52519D01*
X165653Y52480D02*
X165259Y52519D01*
X145653Y52480D02*
X145259Y52519D01*
X125653Y52480D02*
X125259Y52519D01*
X185259Y52519D02*
X185079Y52559D01*
X165259Y52519D02*
X165079Y52559D01*
X145259Y52519D02*
X145079Y52559D01*
X125259Y52519D02*
X125079Y52559D01*
X184550Y52480D02*
X184518Y52559D01*
X164550Y52480D02*
X164518Y52559D01*
X144550Y52480D02*
X144518Y52559D01*
X124550Y52480D02*
X124518Y52559D01*
X124457Y52677D02*
X124592Y52677D01*
X128446Y52677D02*
X128479Y52677D01*
X144457Y52677D02*
X144592Y52677D01*
X148446Y52677D02*
X148479Y52677D01*
X164457Y52677D02*
X164592Y52677D01*
X168446Y52677D02*
X168479Y52677D01*
X184457Y52677D02*
X184592Y52677D01*
X186854Y52440D02*
X188223Y52637D01*
X166854Y52440D02*
X168223Y52637D01*
X146854Y52440D02*
X148223Y52637D01*
X126854Y52440D02*
X128223Y52637D01*
X188223Y52637D02*
X188446Y52677D01*
X168223Y52637D02*
X168446Y52677D01*
X148223Y52637D02*
X148446Y52677D01*
X128223Y52637D02*
X128446Y52677D01*
X185079Y52559D02*
X184592Y52677D01*
X184518Y52559D02*
X184457Y52677D01*
X165079Y52559D02*
X164592Y52677D01*
X164518Y52559D02*
X164457Y52677D01*
X145079Y52559D02*
X144592Y52677D01*
X144518Y52559D02*
X144457Y52677D01*
X125079Y52559D02*
X124592Y52677D01*
X124518Y52559D02*
X124457Y52677D01*
X168164Y51889D02*
X168479Y52677D01*
X148164Y51889D02*
X148479Y52677D01*
X128164Y51889D02*
X128479Y52677D01*
X188446Y52677D02*
X188626Y52716D01*
X2303Y52913D02*
X108574Y52913D01*
X189195Y52913D02*
X340216Y52913D01*
X188626Y52716D02*
X189991Y53188D01*
X108164Y51889D02*
X108684Y53188D01*
X189991Y53188D02*
X190095Y53228D01*
X108684Y53188D02*
X108696Y53228D01*
X108696Y53228D02*
X108711Y53267D01*
X108711Y53267D02*
X108732Y53307D01*
X2303Y53464D02*
X108841Y53464D01*
X190504Y53464D02*
X340216Y53464D01*
X108732Y53307D02*
X108866Y53503D01*
X2303Y54015D02*
X109195Y54015D01*
X191458Y54015D02*
X340216Y54015D01*
X190095Y53228D02*
X191458Y54015D01*
X191458Y54015D02*
X191521Y54055D01*
X191521Y54055D02*
X191659Y54173D01*
X2303Y54566D02*
X109549Y54566D01*
X192114Y54566D02*
X340216Y54566D01*
X108866Y53503D02*
X109602Y54645D01*
X109602Y54645D02*
X109670Y54724D01*
X2303Y55118D02*
X110046Y55118D01*
X192750Y55118D02*
X340216Y55118D01*
X191659Y54173D02*
X192750Y55118D01*
X192750Y55118D02*
X192785Y55157D01*
X2303Y55669D02*
X110571Y55669D01*
X193188Y55669D02*
X340216Y55669D01*
X109670Y54724D02*
X110721Y55826D01*
X110721Y55826D02*
X110818Y55905D01*
X2303Y56220D02*
X111260Y56220D01*
X193621Y56220D02*
X340216Y56220D01*
X192785Y55157D02*
X193683Y56299D01*
X193683Y56299D02*
X193723Y56338D01*
X193723Y56338D02*
X193759Y56377D01*
X193759Y56377D02*
X193786Y56417D01*
X193786Y56417D02*
X193807Y56456D01*
X193807Y56456D02*
X193838Y56535D01*
X2303Y56771D02*
X112017Y56771D01*
X193960Y56771D02*
X340216Y56771D01*
X110818Y55905D02*
X111979Y56732D01*
X111979Y56732D02*
X112017Y56771D01*
X112017Y56771D02*
X112064Y56811D01*
X112064Y56811D02*
X112132Y56850D01*
X112132Y56850D02*
X112257Y56889D01*
X2303Y57322D02*
X113206Y57322D01*
X194244Y57322D02*
X340216Y57322D01*
X112257Y56889D02*
X113551Y57480D01*
X113551Y57480D02*
X113700Y57519D01*
X134447Y57716D02*
X134511Y57716D01*
X154447Y57716D02*
X154511Y57716D01*
X174447Y57716D02*
X174511Y57716D01*
X118410Y57755D02*
X118472Y57755D01*
X138410Y57755D02*
X138472Y57755D01*
X158410Y57755D02*
X158472Y57755D01*
X178410Y57755D02*
X178472Y57755D01*
X178410Y57755D02*
X178086Y57795D01*
X158410Y57755D02*
X158086Y57795D01*
X138410Y57755D02*
X138086Y57795D01*
X118410Y57755D02*
X118086Y57795D01*
X2303Y57874D02*
X115097Y57874D01*
X117538Y57874D02*
X118424Y57874D01*
X134529Y57874D02*
X135097Y57874D01*
X137538Y57874D02*
X138424Y57874D01*
X154529Y57874D02*
X155097Y57874D01*
X157538Y57874D02*
X158424Y57874D01*
X174529Y57874D02*
X175097Y57874D01*
X177538Y57874D02*
X178424Y57874D01*
X194529Y57874D02*
X340216Y57874D01*
X174511Y57716D02*
X174998Y57834D01*
X154511Y57716D02*
X154998Y57834D01*
X134511Y57716D02*
X134998Y57834D01*
X113700Y57519D02*
X114998Y57834D01*
X174998Y57834D02*
X175097Y57874D01*
X154998Y57834D02*
X155097Y57874D01*
X134998Y57834D02*
X135097Y57874D01*
X114998Y57834D02*
X115097Y57874D01*
X174447Y57716D02*
X174529Y57874D01*
X154447Y57716D02*
X154529Y57874D01*
X134447Y57716D02*
X134529Y57874D01*
X193838Y56535D02*
X194529Y57874D01*
X115670Y57952D02*
X116034Y57952D01*
X135670Y57952D02*
X136034Y57952D01*
X155670Y57952D02*
X156034Y57952D01*
X175670Y57952D02*
X176034Y57952D01*
X194529Y57874D02*
X194544Y57913D01*
X175097Y57874D02*
X175277Y57913D01*
X174529Y57874D02*
X174544Y57913D01*
X155097Y57874D02*
X155277Y57913D01*
X154529Y57874D02*
X154544Y57913D01*
X135097Y57874D02*
X135277Y57913D01*
X134529Y57874D02*
X134544Y57913D01*
X115097Y57874D02*
X115277Y57913D01*
X175277Y57913D02*
X175670Y57952D01*
X155277Y57913D02*
X155670Y57952D01*
X135277Y57913D02*
X135670Y57952D01*
X115277Y57913D02*
X115670Y57952D01*
X178086Y57795D02*
X176991Y57952D01*
X158086Y57795D02*
X156991Y57952D01*
X138086Y57795D02*
X136991Y57952D01*
X118086Y57795D02*
X116991Y57952D01*
X176991Y57952D02*
X176709Y57992D01*
X176428Y57952D02*
X176709Y57992D01*
X156991Y57952D02*
X156709Y57992D01*
X156428Y57952D02*
X156709Y57992D01*
X136991Y57952D02*
X136709Y57992D01*
X136428Y57952D02*
X136709Y57992D01*
X116991Y57952D02*
X116709Y57992D01*
X116428Y57952D02*
X116709Y57992D01*
X2303Y58425D02*
X118204Y58425D01*
X134694Y58425D02*
X138204Y58425D01*
X154694Y58425D02*
X158204Y58425D01*
X174694Y58425D02*
X178204Y58425D01*
X194694Y58425D02*
X340216Y58425D01*
X178472Y57755D02*
X178110Y58661D01*
X158472Y57755D02*
X158110Y58661D01*
X138472Y57755D02*
X138110Y58661D01*
X118472Y57755D02*
X118110Y58661D01*
X178110Y58661D02*
X178091Y58740D01*
X158110Y58661D02*
X158091Y58740D01*
X138110Y58661D02*
X138091Y58740D01*
X118110Y58661D02*
X118091Y58740D01*
X194544Y57913D02*
X194810Y58818D01*
X174544Y57913D02*
X174810Y58818D01*
X154544Y57913D02*
X154810Y58818D01*
X134544Y57913D02*
X134810Y58818D01*
X2303Y58976D02*
X118046Y58976D01*
X134856Y58976D02*
X138046Y58976D01*
X154856Y58976D02*
X158046Y58976D01*
X174856Y58976D02*
X178046Y58976D01*
X194856Y58976D02*
X340216Y58976D01*
X194810Y58818D02*
X194973Y59370D01*
X174810Y58818D02*
X174973Y59370D01*
X154810Y58818D02*
X154973Y59370D01*
X134810Y58818D02*
X134973Y59370D01*
X194973Y59370D02*
X194988Y59409D01*
X174973Y59370D02*
X174988Y59409D01*
X154973Y59370D02*
X154988Y59409D01*
X134973Y59370D02*
X134988Y59409D01*
X194988Y59409D02*
X194999Y59448D01*
X174988Y59409D02*
X174999Y59448D01*
X154988Y59409D02*
X154999Y59448D01*
X134988Y59409D02*
X134999Y59448D01*
X2303Y59527D02*
X117940Y59527D01*
X135007Y59527D02*
X137940Y59527D01*
X155007Y59527D02*
X157940Y59527D01*
X175007Y59527D02*
X177940Y59527D01*
X195007Y59527D02*
X340216Y59527D01*
X194999Y59448D02*
X195005Y59488D01*
X174999Y59448D02*
X175005Y59488D01*
X154999Y59448D02*
X155005Y59488D01*
X134999Y59448D02*
X135005Y59488D01*
X195005Y59488D02*
X195015Y59606D01*
X175005Y59488D02*
X175015Y59606D01*
X155005Y59488D02*
X155015Y59606D01*
X135005Y59488D02*
X135015Y59606D01*
X2303Y60078D02*
X117833Y60078D01*
X135060Y60078D02*
X137833Y60078D01*
X155060Y60078D02*
X157833Y60078D01*
X175060Y60078D02*
X177833Y60078D01*
X195060Y60078D02*
X340216Y60078D01*
X178091Y58740D02*
X177795Y60275D01*
X158091Y58740D02*
X157795Y60275D01*
X138091Y58740D02*
X137795Y60275D01*
X118091Y58740D02*
X117795Y60275D01*
X177795Y60275D02*
X177793Y60354D01*
X157795Y60275D02*
X157793Y60354D01*
X137795Y60275D02*
X137793Y60354D01*
X117795Y60275D02*
X117793Y60354D01*
X2303Y60629D02*
X117793Y60629D01*
X135113Y60629D02*
X137793Y60629D01*
X155113Y60629D02*
X157793Y60629D01*
X175113Y60629D02*
X177793Y60629D01*
X195113Y60629D02*
X340216Y60629D01*
X195015Y59606D02*
X195157Y61102D01*
X175015Y59606D02*
X175157Y61102D01*
X155015Y59606D02*
X155157Y61102D01*
X135015Y59606D02*
X135157Y61102D01*
X2303Y61181D02*
X117793Y61181D01*
X135152Y61181D02*
X137793Y61181D01*
X155152Y61181D02*
X157793Y61181D01*
X175152Y61181D02*
X177793Y61181D01*
X195152Y61181D02*
X340216Y61181D01*
X195157Y61102D02*
X195148Y61220D01*
X175157Y61102D02*
X175148Y61220D01*
X155157Y61102D02*
X155148Y61220D01*
X135157Y61102D02*
X135148Y61220D01*
X2303Y61732D02*
X117793Y61732D01*
X135099Y61732D02*
X137793Y61732D01*
X155099Y61732D02*
X157793Y61732D01*
X175099Y61732D02*
X177793Y61732D01*
X195099Y61732D02*
X340216Y61732D01*
X177793Y60354D02*
X177795Y61929D01*
X157793Y60354D02*
X157795Y61929D01*
X137793Y60354D02*
X137795Y61929D01*
X117793Y60354D02*
X117795Y61929D01*
X177795Y61929D02*
X177814Y62047D01*
X157795Y61929D02*
X157814Y62047D01*
X137795Y61929D02*
X137814Y62047D01*
X117795Y61929D02*
X117814Y62047D01*
X2303Y62283D02*
X117860Y62283D01*
X135047Y62283D02*
X137860Y62283D01*
X155047Y62283D02*
X157860Y62283D01*
X175047Y62283D02*
X177860Y62283D01*
X195047Y62283D02*
X340216Y62283D01*
X195148Y61220D02*
X194999Y62755D01*
X175148Y61220D02*
X174999Y62755D01*
X155148Y61220D02*
X154999Y62755D01*
X135148Y61220D02*
X134999Y62755D01*
X2303Y62834D02*
X117966Y62834D01*
X134978Y62834D02*
X137966Y62834D01*
X154978Y62834D02*
X157966Y62834D01*
X174978Y62834D02*
X177966Y62834D01*
X194978Y62834D02*
X340216Y62834D01*
X194999Y62755D02*
X194931Y62992D01*
X174999Y62755D02*
X174931Y62992D01*
X154999Y62755D02*
X154931Y62992D01*
X134999Y62755D02*
X134931Y62992D01*
X2303Y63385D02*
X118072Y63385D01*
X134816Y63385D02*
X138072Y63385D01*
X154816Y63385D02*
X158072Y63385D01*
X174816Y63385D02*
X178072Y63385D01*
X194816Y63385D02*
X340216Y63385D01*
X177814Y62047D02*
X178110Y63582D01*
X157814Y62047D02*
X158110Y63582D01*
X137814Y62047D02*
X138110Y63582D01*
X117814Y62047D02*
X118110Y63582D01*
X178110Y63582D02*
X178126Y63622D01*
X158110Y63582D02*
X158126Y63622D01*
X138110Y63582D02*
X138126Y63622D01*
X118110Y63582D02*
X118126Y63622D01*
X178126Y63622D02*
X178164Y63700D01*
X158126Y63622D02*
X158164Y63700D01*
X138126Y63622D02*
X138164Y63700D01*
X118126Y63622D02*
X118164Y63700D01*
X2303Y63937D02*
X118259Y63937D01*
X134654Y63937D02*
X138259Y63937D01*
X154654Y63937D02*
X158259Y63937D01*
X174654Y63937D02*
X178259Y63937D01*
X194654Y63937D02*
X340216Y63937D01*
X194931Y62992D02*
X194550Y64291D01*
X174931Y62992D02*
X174550Y64291D01*
X154931Y62992D02*
X154550Y64291D01*
X134931Y62992D02*
X134550Y64291D01*
X194550Y64291D02*
X194518Y64370D01*
X174550Y64291D02*
X174518Y64370D01*
X154550Y64291D02*
X154518Y64370D01*
X134550Y64291D02*
X134518Y64370D01*
X2303Y64488D02*
X118479Y64488D01*
X134457Y64488D02*
X138479Y64488D01*
X154457Y64488D02*
X158479Y64488D01*
X174457Y64488D02*
X178479Y64488D01*
X194457Y64488D02*
X340216Y64488D01*
X2303Y65039D02*
X118696Y65039D01*
X134173Y65039D02*
X138696Y65039D01*
X154173Y65039D02*
X158696Y65039D01*
X174173Y65039D02*
X178696Y65039D01*
X194173Y65039D02*
X340216Y65039D01*
X178164Y63700D02*
X178684Y65000D01*
X158164Y63700D02*
X158684Y65000D01*
X138164Y63700D02*
X138684Y65000D01*
X118164Y63700D02*
X118684Y65000D01*
X178684Y65000D02*
X178696Y65039D01*
X158684Y65000D02*
X158696Y65039D01*
X138684Y65000D02*
X138696Y65039D01*
X118684Y65000D02*
X118696Y65039D01*
X178696Y65039D02*
X178711Y65078D01*
X158696Y65039D02*
X158711Y65078D01*
X138696Y65039D02*
X138711Y65078D01*
X118696Y65039D02*
X118711Y65078D01*
X178711Y65078D02*
X178732Y65118D01*
X158711Y65078D02*
X158732Y65118D01*
X138711Y65078D02*
X138732Y65118D01*
X118711Y65078D02*
X118732Y65118D01*
X178732Y65118D02*
X178866Y65314D01*
X158732Y65118D02*
X158866Y65314D01*
X138732Y65118D02*
X138866Y65314D01*
X118732Y65118D02*
X118866Y65314D01*
X2303Y65590D02*
X119043Y65590D01*
X133889Y65590D02*
X139043Y65590D01*
X153889Y65590D02*
X159043Y65590D01*
X173889Y65590D02*
X179043Y65590D01*
X193889Y65590D02*
X340216Y65590D01*
X194518Y64370D02*
X193787Y65787D01*
X174518Y64370D02*
X173787Y65787D01*
X154518Y64370D02*
X153787Y65787D01*
X134518Y64370D02*
X133787Y65787D01*
X193787Y65787D02*
X193729Y65866D01*
X173787Y65787D02*
X173729Y65866D01*
X153787Y65787D02*
X153729Y65866D01*
X133787Y65787D02*
X133729Y65866D01*
X2303Y66141D02*
X119397Y66141D01*
X133513Y66141D02*
X139397Y66141D01*
X153513Y66141D02*
X159397Y66141D01*
X173513Y66141D02*
X179397Y66141D01*
X193513Y66141D02*
X340216Y66141D01*
X178866Y65314D02*
X179602Y66456D01*
X158866Y65314D02*
X159602Y66456D01*
X138866Y65314D02*
X139602Y66456D01*
X118866Y65314D02*
X119602Y66456D01*
X179602Y66456D02*
X179670Y66535D01*
X159602Y66456D02*
X159670Y66535D01*
X139602Y66456D02*
X139670Y66535D01*
X119602Y66456D02*
X119670Y66535D01*
X2303Y66692D02*
X119820Y66692D01*
X133079Y66692D02*
X139820Y66692D01*
X153079Y66692D02*
X159820Y66692D01*
X173079Y66692D02*
X179820Y66692D01*
X193079Y66692D02*
X340216Y66692D01*
X193729Y65866D02*
X192833Y67007D01*
X173729Y65866D02*
X172833Y67007D01*
X153729Y65866D02*
X152833Y67007D01*
X133729Y65866D02*
X132833Y67007D01*
X192833Y67007D02*
X192812Y67047D01*
X172833Y67007D02*
X172812Y67047D01*
X152833Y67007D02*
X152812Y67047D01*
X132833Y67007D02*
X132812Y67047D01*
X192812Y67047D02*
X192785Y67086D01*
X172812Y67047D02*
X172785Y67086D01*
X152812Y67047D02*
X152785Y67086D01*
X132812Y67047D02*
X132785Y67086D01*
X192785Y67086D02*
X192749Y67125D01*
X172785Y67086D02*
X172749Y67125D01*
X152785Y67086D02*
X152749Y67125D01*
X132785Y67086D02*
X132749Y67125D01*
X192749Y67125D02*
X192702Y67165D01*
X172749Y67125D02*
X172702Y67165D01*
X152749Y67125D02*
X152702Y67165D01*
X132749Y67125D02*
X132702Y67165D01*
X2303Y67244D02*
X120346Y67244D01*
X132591Y67244D02*
X140346Y67244D01*
X152591Y67244D02*
X160346Y67244D01*
X172591Y67244D02*
X180346Y67244D01*
X192591Y67244D02*
X340216Y67244D01*
X192702Y67165D02*
X192636Y67204D01*
X172702Y67165D02*
X172636Y67204D01*
X152702Y67165D02*
X152636Y67204D01*
X132702Y67165D02*
X132636Y67204D01*
X179670Y66535D02*
X180721Y67637D01*
X159670Y66535D02*
X160721Y67637D01*
X139670Y66535D02*
X140721Y67637D01*
X119670Y66535D02*
X120721Y67637D01*
X180721Y67637D02*
X180818Y67716D01*
X160721Y67637D02*
X160818Y67716D01*
X140721Y67637D02*
X140818Y67716D01*
X120721Y67637D02*
X120818Y67716D01*
X2303Y67795D02*
X120928Y67795D01*
X131955Y67795D02*
X140928Y67795D01*
X151955Y67795D02*
X160928Y67795D01*
X171955Y67795D02*
X180928Y67795D01*
X191955Y67795D02*
X340216Y67795D01*
X192636Y67204D02*
X191594Y68110D01*
X172636Y67204D02*
X171594Y68110D01*
X152636Y67204D02*
X151594Y68110D01*
X132636Y67204D02*
X131594Y68110D01*
X191594Y68110D02*
X191559Y68149D01*
X171594Y68110D02*
X171559Y68149D01*
X151594Y68110D02*
X151559Y68149D01*
X131594Y68110D02*
X131559Y68149D01*
X191559Y68149D02*
X191511Y68188D01*
X171559Y68149D02*
X171511Y68188D01*
X151559Y68149D02*
X151511Y68188D01*
X131559Y68149D02*
X131511Y68188D01*
X191511Y68188D02*
X191444Y68228D01*
X171511Y68188D02*
X171444Y68228D01*
X151511Y68188D02*
X151444Y68228D01*
X131511Y68188D02*
X131444Y68228D01*
X191444Y68228D02*
X191356Y68267D01*
X171444Y68228D02*
X171356Y68267D01*
X151444Y68228D02*
X151356Y68267D01*
X131444Y68228D02*
X131356Y68267D01*
X2303Y68346D02*
X121702Y68346D01*
X131220Y68346D02*
X141702Y68346D01*
X151220Y68346D02*
X161702Y68346D01*
X171220Y68346D02*
X181702Y68346D01*
X191220Y68346D02*
X340216Y68346D01*
X180818Y67716D02*
X181979Y68543D01*
X160818Y67716D02*
X161979Y68543D01*
X140818Y67716D02*
X141979Y68543D01*
X120818Y67716D02*
X121979Y68543D01*
X181979Y68543D02*
X182017Y68582D01*
X161979Y68543D02*
X162017Y68582D01*
X141979Y68543D02*
X142017Y68582D01*
X121979Y68543D02*
X122017Y68582D01*
X182017Y68582D02*
X182064Y68622D01*
X162017Y68582D02*
X162064Y68622D01*
X142017Y68582D02*
X142064Y68622D01*
X122017Y68582D02*
X122064Y68622D01*
X182064Y68622D02*
X182132Y68661D01*
X162064Y68622D02*
X162132Y68661D01*
X142064Y68622D02*
X142132Y68661D01*
X122064Y68622D02*
X122132Y68661D01*
X182132Y68661D02*
X182257Y68700D01*
X162132Y68661D02*
X162257Y68700D01*
X142132Y68661D02*
X142257Y68700D01*
X122132Y68661D02*
X122257Y68700D01*
X2303Y68897D02*
X122688Y68897D01*
X130265Y68897D02*
X142688Y68897D01*
X150265Y68897D02*
X162688Y68897D01*
X170265Y68897D02*
X182688Y68897D01*
X190265Y68897D02*
X340216Y68897D01*
X191356Y68267D02*
X190197Y68937D01*
X171356Y68267D02*
X170197Y68937D01*
X151356Y68267D02*
X150197Y68937D01*
X131356Y68267D02*
X130197Y68937D01*
X190197Y68937D02*
X190147Y68976D01*
X170197Y68937D02*
X170147Y68976D01*
X150197Y68937D02*
X150147Y68976D01*
X130197Y68937D02*
X130147Y68976D01*
X190147Y68976D02*
X190079Y69015D01*
X170147Y68976D02*
X170079Y69015D01*
X150147Y68976D02*
X150079Y69015D01*
X130147Y68976D02*
X130079Y69015D01*
X190079Y69015D02*
X189934Y69055D01*
X170079Y69015D02*
X169934Y69055D01*
X150079Y69015D02*
X149934Y69055D01*
X130079Y69015D02*
X129934Y69055D01*
X182257Y68700D02*
X183551Y69291D01*
X162257Y68700D02*
X163551Y69291D01*
X142257Y68700D02*
X143551Y69291D01*
X122257Y68700D02*
X123551Y69291D01*
X183551Y69291D02*
X183700Y69330D01*
X163551Y69291D02*
X163700Y69330D01*
X143551Y69291D02*
X143700Y69330D01*
X123551Y69291D02*
X123700Y69330D01*
X2303Y69448D02*
X124187Y69448D01*
X128797Y69448D02*
X144187Y69448D01*
X148797Y69448D02*
X164187Y69448D01*
X168797Y69448D02*
X184187Y69448D01*
X188797Y69448D02*
X340216Y69448D01*
X189934Y69055D02*
X188683Y69488D01*
X169934Y69055D02*
X168683Y69488D01*
X149934Y69055D02*
X148683Y69488D01*
X129934Y69055D02*
X128683Y69488D01*
X188683Y69488D02*
X188590Y69527D01*
X168683Y69488D02*
X168590Y69527D01*
X148683Y69488D02*
X148590Y69527D01*
X128683Y69488D02*
X128590Y69527D01*
X188590Y69527D02*
X188410Y69566D01*
X168590Y69527D02*
X168410Y69566D01*
X148590Y69527D02*
X148410Y69566D01*
X128590Y69527D02*
X128410Y69566D01*
X188410Y69566D02*
X188086Y69606D01*
X168410Y69566D02*
X168086Y69606D01*
X148410Y69566D02*
X148086Y69606D01*
X128410Y69566D02*
X128086Y69606D01*
X183700Y69330D02*
X184998Y69645D01*
X163700Y69330D02*
X164998Y69645D01*
X143700Y69330D02*
X144998Y69645D01*
X123700Y69330D02*
X124998Y69645D01*
X184998Y69645D02*
X185097Y69685D01*
X164998Y69645D02*
X165097Y69685D01*
X144998Y69645D02*
X145097Y69685D01*
X124998Y69645D02*
X125097Y69685D01*
X125670Y69763D02*
X126034Y69763D01*
X145670Y69763D02*
X146034Y69763D01*
X165670Y69763D02*
X166034Y69763D01*
X185670Y69763D02*
X186034Y69763D01*
X185097Y69685D02*
X185277Y69724D01*
X165097Y69685D02*
X165277Y69724D01*
X145097Y69685D02*
X145277Y69724D01*
X125097Y69685D02*
X125277Y69724D01*
X185277Y69724D02*
X185670Y69763D01*
X165277Y69724D02*
X165670Y69763D01*
X145277Y69724D02*
X145670Y69763D01*
X125277Y69724D02*
X125670Y69763D01*
X188086Y69606D02*
X186991Y69763D01*
X168086Y69606D02*
X166991Y69763D01*
X148086Y69606D02*
X146991Y69763D01*
X128086Y69606D02*
X126991Y69763D01*
X186991Y69763D02*
X186709Y69803D01*
X186428Y69763D02*
X186709Y69803D01*
X166991Y69763D02*
X166709Y69803D01*
X166428Y69763D02*
X166709Y69803D01*
X146991Y69763D02*
X146709Y69803D01*
X146428Y69763D02*
X146709Y69803D01*
X126991Y69763D02*
X126709Y69803D01*
X126428Y69763D02*
X126709Y69803D01*
X2303Y70000D02*
X340216Y70000D01*
X2303Y70551D02*
X340216Y70551D01*
X2303Y71102D02*
X340216Y71102D01*
X2303Y71653D02*
X340216Y71653D01*
X2303Y72204D02*
X340216Y72204D01*
X2303Y72755D02*
X340216Y72755D01*
X2303Y73307D02*
X340216Y73307D01*
X2303Y73858D02*
X340216Y73858D01*
X2303Y74409D02*
X340216Y74409D01*
X2303Y74960D02*
X340216Y74960D01*
X2303Y75511D02*
X340216Y75511D01*
X2303Y76062D02*
X340216Y76062D01*
X2303Y76614D02*
X340216Y76614D01*
X2303Y77165D02*
X340216Y77165D01*
X2303Y77716D02*
X340216Y77716D01*
X2303Y78267D02*
X340216Y78267D01*
X2303Y78818D02*
X340216Y78818D01*
X2303Y79370D02*
X340216Y79370D01*
X2303Y79921D02*
X340216Y79921D01*
X2303Y80472D02*
X340216Y80472D01*
X2303Y81023D02*
X340216Y81023D01*
X2303Y81574D02*
X340216Y81574D01*
X2303Y82125D02*
X340216Y82125D01*
X2303Y82677D02*
X340216Y82677D01*
X2303Y83228D02*
X340216Y83228D01*
X2303Y83779D02*
X340216Y83779D01*
X2303Y84330D02*
X340216Y84330D01*
X2303Y84881D02*
X340216Y84881D01*
X2303Y85433D02*
X340216Y85433D01*
X2303Y85984D02*
X340216Y85984D01*
X2303Y86535D02*
X340216Y86535D01*
X2303Y87086D02*
X340216Y87086D01*
X2303Y87637D02*
X340216Y87637D01*
X2303Y88188D02*
X340216Y88188D01*
X2303Y88740D02*
X340216Y88740D01*
X2303Y89291D02*
X340216Y89291D01*
X2303Y89842D02*
X340216Y89842D01*
X2303Y90393D02*
X340216Y90393D01*
X2303Y90944D02*
X340216Y90944D01*
X2303Y91496D02*
X340216Y91496D01*
X2303Y92047D02*
X340216Y92047D01*
X2303Y92598D02*
X340216Y92598D01*
X2303Y93149D02*
X340216Y93149D01*
X2303Y93700D02*
X340216Y93700D01*
X2303Y94251D02*
X340216Y94251D01*
X2303Y94803D02*
X340216Y94803D01*
X2303Y95354D02*
X340216Y95354D01*
X2303Y95905D02*
X340216Y95905D01*
X2303Y96456D02*
X340216Y96456D01*
X2303Y97007D02*
X340216Y97007D01*
X2303Y97559D02*
X340216Y97559D01*
X2303Y98110D02*
X340216Y98110D01*
X2303Y98661D02*
X340216Y98661D01*
X2303Y99212D02*
X340216Y99212D01*
X2303Y99763D02*
X340216Y99763D01*
X2303Y100314D02*
X340216Y100314D01*
X2303Y100866D02*
X340216Y100866D01*
X2303Y101417D02*
X340216Y101417D01*
X2303Y101968D02*
X340216Y101968D01*
X2303Y102519D02*
X340216Y102519D01*
X2303Y103070D02*
X340216Y103070D01*
X2303Y103622D02*
X340216Y103622D01*
X2303Y104173D02*
X340216Y104173D01*
X2303Y104724D02*
X340216Y104724D01*
X2303Y105275D02*
X340216Y105275D01*
X2303Y105826D02*
X340216Y105826D01*
X2303Y106377D02*
X340216Y106377D01*
X2303Y106929D02*
X340216Y106929D01*
X2303Y107480D02*
X340216Y107480D01*
X2303Y108031D02*
X340216Y108031D01*
X2303Y108582D02*
X340216Y108582D01*
X2303Y109133D02*
X340216Y109133D01*
X2303Y109685D02*
X340216Y109685D01*
X2303Y110236D02*
X340216Y110236D01*
X2303Y110787D02*
X340216Y110787D01*
X2303Y111338D02*
X340216Y111338D01*
X2303Y111889D02*
X340216Y111889D01*
X2303Y112440D02*
X340216Y112440D01*
X2303Y112992D02*
X340216Y112992D01*
X2303Y113543D02*
X340216Y113543D01*
X2303Y114094D02*
X340216Y114094D01*
X2303Y114645D02*
X340216Y114645D01*
X2303Y115196D02*
X340216Y115196D01*
X2303Y115748D02*
X340216Y115748D01*
X2303Y116299D02*
X340216Y116299D01*
X2303Y116850D02*
X340216Y116850D01*
X2303Y117401D02*
X340216Y117401D01*
X2303Y117952D02*
X340216Y117952D01*
X2303Y118503D02*
X340216Y118503D01*
X2303Y119055D02*
X340216Y119055D01*
X2303Y119606D02*
X340216Y119606D01*
X2303Y120157D02*
X340216Y120157D01*
X2303Y120708D02*
X340216Y120708D01*
X2303Y121259D02*
X340216Y121259D01*
X2303Y121811D02*
X340216Y121811D01*
X2303Y122362D02*
X340216Y122362D01*
X2303Y122913D02*
X340216Y122913D01*
X2303Y123464D02*
X340216Y123464D01*
X2303Y124015D02*
X340216Y124015D01*
X2303Y124566D02*
X340216Y124566D01*
X2303Y125118D02*
X340216Y125118D01*
X2303Y125669D02*
X340216Y125669D01*
X2303Y126220D02*
X340216Y126220D01*
X2303Y126771D02*
X340216Y126771D01*
X2303Y127322D02*
X340216Y127322D01*
X2303Y127874D02*
X340216Y127874D01*
X2303Y128425D02*
X340216Y128425D01*
X2303Y128976D02*
X340216Y128976D01*
X2303Y129527D02*
X340216Y129527D01*
X2303Y130078D02*
X340216Y130078D01*
X2303Y130629D02*
X340216Y130629D01*
X2303Y131181D02*
X340216Y131181D01*
X2303Y131732D02*
X340216Y131732D01*
X2303Y132283D02*
X340216Y132283D01*
X2303Y132834D02*
X340216Y132834D01*
X2303Y133385D02*
X340216Y133385D01*
X2303Y133937D02*
X340216Y133937D01*
X2303Y134488D02*
X340216Y134488D01*
X2303Y135039D02*
X340216Y135039D01*
X2303Y135590D02*
X340216Y135590D01*
X2303Y136141D02*
X340216Y136141D01*
X2303Y136692D02*
X340216Y136692D01*
X2303Y137244D02*
X340216Y137244D01*
X2303Y137795D02*
X340216Y137795D01*
X2303Y138346D02*
X340216Y138346D01*
X2303Y138897D02*
X340216Y138897D01*
X2303Y139448D02*
X340216Y139448D01*
X2303Y140000D02*
X340216Y140000D01*
X2303Y140551D02*
X340216Y140551D01*
X2303Y141102D02*
X340216Y141102D01*
X2303Y141653D02*
X340216Y141653D01*
X2303Y142204D02*
X340216Y142204D01*
X2303Y142755D02*
X340216Y142755D01*
X2303Y143307D02*
X340216Y143307D01*
X2303Y143858D02*
X340216Y143858D01*
X2303Y144409D02*
X340216Y144409D01*
X2303Y144960D02*
X340216Y144960D01*
X2303Y145511D02*
X340216Y145511D01*
X2303Y146062D02*
X340216Y146062D01*
X2303Y146614D02*
X340216Y146614D01*
X2303Y147165D02*
X340216Y147165D01*
X2303Y147716D02*
X340216Y147716D01*
X2303Y148267D02*
X340216Y148267D01*
X2303Y148818D02*
X340216Y148818D01*
X2303Y149370D02*
X340216Y149370D01*
X2303Y149921D02*
X340216Y149921D01*
X2303Y150472D02*
X340216Y150472D01*
X2303Y151023D02*
X340216Y151023D01*
X2303Y151574D02*
X340216Y151574D01*
X2303Y152125D02*
X340216Y152125D01*
X2303Y152677D02*
X340216Y152677D01*
X2303Y153228D02*
X340216Y153228D01*
X2303Y153779D02*
X340216Y153779D01*
X2303Y154330D02*
X340216Y154330D01*
X2303Y154881D02*
X340216Y154881D01*
X2303Y155433D02*
X340216Y155433D01*
X2303Y155984D02*
X340216Y155984D01*
X2303Y156535D02*
X340216Y156535D01*
X2303Y157086D02*
X340216Y157086D01*
X2303Y157637D02*
X340216Y157637D01*
X2303Y158188D02*
X340216Y158188D01*
X2303Y158740D02*
X340216Y158740D01*
X2303Y159291D02*
X340216Y159291D01*
X2303Y159842D02*
X340216Y159842D01*
X2303Y160393D02*
X340216Y160393D01*
X2303Y160944D02*
X340216Y160944D01*
X2303Y161496D02*
X340216Y161496D01*
X2303Y162047D02*
X340216Y162047D01*
X2303Y162598D02*
X340216Y162598D01*
X2303Y163149D02*
X340216Y163149D01*
X2303Y163700D02*
X340216Y163700D01*
X2303Y164251D02*
X340216Y164251D01*
X2303Y164803D02*
X340216Y164803D01*
X2303Y165354D02*
X340216Y165354D01*
X2303Y165905D02*
X340216Y165905D01*
X2303Y166456D02*
X340216Y166456D01*
X2303Y167007D02*
X340216Y167007D01*
X2303Y167559D02*
X340216Y167559D01*
X2303Y168110D02*
X340216Y168110D01*
X2303Y168661D02*
X340216Y168661D01*
X2303Y169212D02*
X340216Y169212D01*
X2303Y169763D02*
X340216Y169763D01*
X2303Y170314D02*
X340216Y170314D01*
X2303Y170866D02*
X340216Y170866D01*
X2303Y171417D02*
X340216Y171417D01*
X2303Y171968D02*
X340216Y171968D01*
X2303Y172519D02*
X340216Y172519D01*
X2303Y173070D02*
X340216Y173070D01*
X2303Y173622D02*
X340216Y173622D01*
X2303Y174173D02*
X340216Y174173D01*
X2303Y174724D02*
X340216Y174724D01*
X2303Y175275D02*
X340216Y175275D01*
X2303Y175826D02*
X340216Y175826D01*
X2303Y176377D02*
X340216Y176377D01*
X2303Y176929D02*
X340216Y176929D01*
X2303Y177480D02*
X340216Y177480D01*
X2303Y178031D02*
X340216Y178031D01*
X2303Y178582D02*
X340216Y178582D01*
X2303Y179133D02*
X340216Y179133D01*
X2303Y179685D02*
X340216Y179685D01*
X2303Y180236D02*
X340216Y180236D01*
X2303Y180787D02*
X340216Y180787D01*
X2303Y181338D02*
X340216Y181338D01*
X2303Y181889D02*
X340216Y181889D01*
X2303Y182440D02*
X340216Y182440D01*
X2303Y182992D02*
X340216Y182992D01*
X2303Y183543D02*
X340216Y183543D01*
X2303Y184094D02*
X340216Y184094D01*
X2303Y184645D02*
X340216Y184645D01*
X2303Y185196D02*
X340216Y185196D01*
X2303Y185748D02*
X340216Y185748D01*
X2303Y186299D02*
X340216Y186299D01*
X2303Y186850D02*
X340216Y186850D01*
X2303Y187401D02*
X340216Y187401D01*
X2303Y187952D02*
X340216Y187952D01*
X2303Y188503D02*
X340216Y188503D01*
X2303Y189055D02*
X340216Y189055D01*
X2303Y189606D02*
X340216Y189606D01*
X2303Y190157D02*
X340216Y190157D01*
X2303Y190708D02*
X340216Y190708D01*
X2303Y191259D02*
X340216Y191259D01*
X19299Y191456D02*
X19539Y191456D01*
X322449Y191456D02*
X322688Y191456D01*
X323259Y191417D02*
X323437Y191456D01*
X323259Y191417D02*
X323082Y191456D01*
X20110Y191417D02*
X20287Y191456D01*
X20110Y191417D02*
X19933Y191456D01*
X322449Y191456D02*
X322055Y191496D01*
X19299Y191456D02*
X18905Y191496D01*
X321698Y191496D02*
X321305Y191535D01*
X18549Y191496D02*
X18155Y191535D01*
X323437Y191456D02*
X324801Y191614D01*
X20287Y191456D02*
X21651Y191614D01*
X324919Y191614D02*
X325312Y191653D01*
X21769Y191614D02*
X22163Y191653D01*
X325312Y191653D02*
X325493Y191692D01*
X22163Y191653D02*
X22343Y191692D01*
X325493Y191692D02*
X325564Y191732D01*
X22343Y191692D02*
X22415Y191732D01*
X2303Y191811D02*
X16734Y191811D01*
X22701Y191811D02*
X319884Y191811D01*
X325851Y191811D02*
X340216Y191811D01*
X321305Y191535D02*
X319681Y191850D01*
X18155Y191535D02*
X16531Y191850D01*
X319681Y191850D02*
X319432Y191889D01*
X16531Y191850D02*
X16282Y191889D01*
X319432Y191889D02*
X319252Y191929D01*
X16282Y191889D02*
X16102Y191929D01*
X319252Y191929D02*
X319167Y191968D01*
X16102Y191929D02*
X16017Y191968D01*
X325564Y191732D02*
X327283Y192204D01*
X22415Y191732D02*
X24134Y192204D01*
X327283Y192204D02*
X327416Y192244D01*
X24134Y192204D02*
X24266Y192244D01*
X2303Y192362D02*
X14921Y192362D01*
X24530Y192362D02*
X318071Y192362D01*
X327679Y192362D02*
X340216Y192362D01*
X319167Y191968D02*
X317523Y192559D01*
X16017Y191968D02*
X14373Y192559D01*
X317523Y192559D02*
X317391Y192598D01*
X14373Y192559D02*
X14242Y192598D01*
X317391Y192598D02*
X317323Y192637D01*
X14242Y192598D02*
X14174Y192637D01*
X317323Y192637D02*
X317261Y192677D01*
X14174Y192637D02*
X14111Y192677D01*
X2303Y192913D02*
X13677Y192913D01*
X25759Y192913D02*
X316826Y192913D01*
X328909Y192913D02*
X340216Y192913D01*
X327416Y192244D02*
X329085Y192992D01*
X24266Y192244D02*
X25935Y192992D01*
X329085Y192992D02*
X329203Y193031D01*
X25935Y192992D02*
X26053Y193031D01*
X329203Y193031D02*
X329271Y193070D01*
X26053Y193031D02*
X26121Y193070D01*
X329271Y193070D02*
X329318Y193110D01*
X26121Y193070D02*
X26168Y193110D01*
X329318Y193110D02*
X329371Y193149D01*
X26168Y193110D02*
X26222Y193149D01*
X2303Y193464D02*
X12663Y193464D01*
X26708Y193464D02*
X315813Y193464D01*
X329858Y193464D02*
X340216Y193464D01*
X317261Y192677D02*
X315740Y193503D01*
X14111Y192677D02*
X12591Y193503D01*
X315740Y193503D02*
X315654Y193543D01*
X12591Y193503D02*
X12505Y193543D01*
X315654Y193543D02*
X315587Y193582D01*
X12505Y193543D02*
X12437Y193582D01*
X315587Y193582D02*
X315441Y193700D01*
X12437Y193582D02*
X12292Y193700D01*
X2303Y194015D02*
X11878Y194015D01*
X27559Y194015D02*
X315028Y194015D01*
X330709Y194015D02*
X340216Y194015D01*
X329371Y193149D02*
X330891Y194133D01*
X26222Y193149D02*
X27742Y194133D01*
X330891Y194133D02*
X330946Y194173D01*
X27742Y194133D02*
X27796Y194173D01*
X330946Y194173D02*
X331037Y194251D01*
X27796Y194173D02*
X27888Y194251D01*
X2303Y194566D02*
X11155Y194566D01*
X28241Y194566D02*
X314305Y194566D01*
X331391Y194566D02*
X340216Y194566D01*
X315441Y193700D02*
X314047Y194763D01*
X12292Y193700D02*
X10897Y194763D01*
X314047Y194763D02*
X313953Y194842D01*
X10897Y194763D02*
X10803Y194842D01*
X2303Y195118D02*
X10538Y195118D01*
X28860Y195118D02*
X313688Y195118D01*
X332009Y195118D02*
X340216Y195118D01*
X331037Y194251D02*
X332453Y195511D01*
X27888Y194251D02*
X29304Y195511D01*
X332453Y195511D02*
X332489Y195551D01*
X29304Y195511D02*
X29339Y195551D01*
X2303Y195669D02*
X10008Y195669D01*
X29435Y195669D02*
X313157Y195669D01*
X332585Y195669D02*
X340216Y195669D01*
X332489Y195551D02*
X332585Y195669D01*
X29339Y195551D02*
X29435Y195669D01*
X2303Y196220D02*
X9477Y196220D01*
X29890Y196220D02*
X312627Y196220D01*
X333039Y196220D02*
X340216Y196220D01*
X313953Y194842D02*
X312591Y196259D01*
X10803Y194842D02*
X9441Y196259D01*
X312591Y196259D02*
X312555Y196299D01*
X9441Y196259D02*
X9406Y196299D01*
X2303Y196771D02*
X9073Y196771D01*
X30344Y196771D02*
X312223Y196771D01*
X333494Y196771D02*
X340216Y196771D01*
X332585Y195669D02*
X333752Y197086D01*
X29435Y195669D02*
X30602Y197086D01*
X333752Y197086D02*
X333802Y197165D01*
X30602Y197086D02*
X30653Y197165D01*
X2303Y197322D02*
X8686Y197322D01*
X30746Y197322D02*
X311835Y197322D01*
X333896Y197322D02*
X340216Y197322D01*
X2303Y197874D02*
X8298Y197874D01*
X31074Y197874D02*
X311448Y197874D01*
X334224Y197874D02*
X340216Y197874D01*
X312555Y196299D02*
X311394Y197952D01*
X9406Y196299D02*
X8244Y197952D01*
X311394Y197952D02*
X311334Y198070D01*
X8244Y197952D02*
X8184Y198070D01*
X2303Y198425D02*
X8009Y198425D01*
X31402Y198425D02*
X311158Y198425D01*
X334551Y198425D02*
X340216Y198425D01*
X333802Y197165D02*
X334806Y198858D01*
X30653Y197165D02*
X31656Y198858D01*
X2303Y198976D02*
X7736Y198976D01*
X31704Y198976D02*
X310885Y198976D01*
X334853Y198976D02*
X340216Y198976D01*
X2303Y199527D02*
X7463Y199527D01*
X31926Y199527D02*
X310613Y199527D01*
X335076Y199527D02*
X340216Y199527D01*
X311334Y198070D02*
X310496Y199763D01*
X8184Y198070D02*
X7347Y199763D01*
X310496Y199763D02*
X310468Y199842D01*
X7347Y199763D02*
X7319Y199842D01*
X2303Y200078D02*
X7244Y200078D01*
X32148Y200078D02*
X310394Y200078D01*
X335298Y200078D02*
X340216Y200078D01*
X2303Y200629D02*
X7070Y200629D01*
X32370Y200629D02*
X310219Y200629D01*
X335520Y200629D02*
X340216Y200629D01*
X334806Y198858D02*
X335564Y200748D01*
X31656Y198858D02*
X32414Y200748D01*
X335564Y200748D02*
X335593Y200866D01*
X32414Y200748D02*
X32444Y200866D01*
X2303Y201181D02*
X6895Y201181D01*
X32517Y201181D02*
X310045Y201181D01*
X335667Y201181D02*
X340216Y201181D01*
X2303Y201732D02*
X6724Y201732D01*
X32646Y201732D02*
X309874Y201732D01*
X335796Y201732D02*
X340216Y201732D01*
X310468Y199842D02*
X309874Y201732D01*
X7319Y199842D02*
X6724Y201732D01*
X2303Y202283D02*
X6639Y202283D01*
X32775Y202283D02*
X309788Y202283D01*
X335925Y202283D02*
X340216Y202283D01*
X309874Y201732D02*
X309752Y202519D01*
X6724Y201732D02*
X6602Y202519D01*
X335593Y200866D02*
X336010Y202637D01*
X32444Y200866D02*
X32861Y202637D01*
X336010Y202637D02*
X336021Y202677D01*
X32861Y202637D02*
X32871Y202677D01*
X336021Y202677D02*
X336027Y202716D01*
X32871Y202677D02*
X32878Y202716D01*
X2303Y202834D02*
X6554Y202834D01*
X32885Y202834D02*
X309703Y202834D01*
X336035Y202834D02*
X340216Y202834D01*
X336027Y202716D02*
X336041Y202913D01*
X32878Y202716D02*
X32891Y202913D01*
X2303Y203385D02*
X6468Y203385D01*
X32928Y203385D02*
X309618Y203385D01*
X336077Y203385D02*
X340216Y203385D01*
X309752Y202519D02*
X309565Y203740D01*
X6602Y202519D02*
X6415Y203740D01*
X2303Y203937D02*
X6415Y203937D01*
X32970Y203937D02*
X309565Y203937D01*
X336120Y203937D02*
X340216Y203937D01*
X2303Y204488D02*
X6415Y204488D01*
X33012Y204488D02*
X309565Y204488D01*
X336162Y204488D02*
X340216Y204488D01*
X336041Y202913D02*
X336181Y204763D01*
X32891Y202913D02*
X33031Y204763D01*
X336181Y204763D02*
X336171Y204881D01*
X33031Y204763D02*
X33021Y204881D01*
X2303Y205039D02*
X6415Y205039D01*
X33009Y205039D02*
X309565Y205039D01*
X336159Y205039D02*
X340216Y205039D01*
X2303Y205590D02*
X6415Y205590D01*
X32967Y205590D02*
X309565Y205590D01*
X336117Y205590D02*
X340216Y205590D01*
X309565Y203740D02*
X309567Y205787D01*
X6415Y203740D02*
X6417Y205787D01*
X2303Y206141D02*
X6475Y206141D01*
X32925Y206141D02*
X309624Y206141D01*
X336074Y206141D02*
X340216Y206141D01*
X2303Y206692D02*
X6560Y206692D01*
X32882Y206692D02*
X309709Y206692D01*
X336032Y206692D02*
X340216Y206692D01*
X336171Y204881D02*
X336021Y206811D01*
X33021Y204881D02*
X32871Y206811D01*
X336021Y206811D02*
X335971Y207007D01*
X32871Y206811D02*
X32821Y207007D01*
X309567Y205787D02*
X309758Y207007D01*
X6417Y205787D02*
X6608Y207007D01*
X2303Y207244D02*
X6645Y207244D01*
X32766Y207244D02*
X309794Y207244D01*
X335916Y207244D02*
X340216Y207244D01*
X2303Y207795D02*
X6735Y207795D01*
X32637Y207795D02*
X309884Y207795D01*
X335787Y207795D02*
X340216Y207795D01*
X309758Y207007D02*
X309874Y207755D01*
X6608Y207007D02*
X6724Y207755D01*
X309874Y207755D02*
X309920Y207913D01*
X6724Y207755D02*
X6771Y207913D01*
X2303Y208346D02*
X6908Y208346D01*
X32508Y208346D02*
X310057Y208346D01*
X335658Y208346D02*
X340216Y208346D01*
X335971Y207007D02*
X335564Y208740D01*
X32821Y207007D02*
X32414Y208740D01*
X335564Y208740D02*
X335536Y208818D01*
X32414Y208740D02*
X32386Y208818D01*
X2303Y208897D02*
X7082Y208897D01*
X32354Y208897D02*
X310232Y208897D01*
X335504Y208897D02*
X340216Y208897D01*
X2303Y209448D02*
X7257Y209448D01*
X32132Y209448D02*
X310406Y209448D01*
X335282Y209448D02*
X340216Y209448D01*
X309920Y207913D02*
X310496Y209724D01*
X6771Y207913D02*
X7347Y209724D01*
X310496Y209724D02*
X310593Y209921D01*
X7347Y209724D02*
X7443Y209921D01*
X2303Y210000D02*
X7482Y210000D01*
X31910Y210000D02*
X310632Y210000D01*
X335060Y210000D02*
X340216Y210000D01*
X2303Y210551D02*
X7755Y210551D01*
X31688Y210551D02*
X310905Y210551D01*
X334838Y210551D02*
X340216Y210551D01*
X335536Y208818D02*
X334806Y210629D01*
X32386Y208818D02*
X31656Y210629D01*
X334806Y210629D02*
X334762Y210708D01*
X31656Y210629D02*
X31612Y210708D01*
X2303Y211102D02*
X8028Y211102D01*
X31378Y211102D02*
X311178Y211102D01*
X334528Y211102D02*
X340216Y211102D01*
X310593Y209921D02*
X311394Y211535D01*
X7443Y209921D02*
X8244Y211535D01*
X2303Y211653D02*
X8326Y211653D01*
X31051Y211653D02*
X311475Y211653D01*
X334200Y211653D02*
X340216Y211653D01*
X311394Y211535D02*
X311531Y211732D01*
X8244Y211535D02*
X8381Y211732D01*
X2303Y212204D02*
X8713Y212204D01*
X30723Y212204D02*
X311863Y212204D01*
X333872Y212204D02*
X340216Y212204D01*
X334762Y210708D02*
X333752Y212401D01*
X31612Y210708D02*
X30602Y212401D01*
X333752Y212401D02*
X333656Y212519D01*
X30602Y212401D02*
X30506Y212519D01*
X2303Y212755D02*
X9101Y212755D01*
X30312Y212755D02*
X312251Y212755D01*
X333461Y212755D02*
X340216Y212755D01*
X311531Y211732D02*
X312555Y213188D01*
X8381Y211732D02*
X9406Y213188D01*
X2303Y213307D02*
X9515Y213307D01*
X29857Y213307D02*
X312665Y213307D01*
X333007Y213307D02*
X340216Y213307D01*
X312555Y213188D02*
X312665Y213307D01*
X9406Y213188D02*
X9515Y213307D01*
X2303Y213858D02*
X10046Y213858D01*
X29402Y213858D02*
X313195Y213858D01*
X332552Y213858D02*
X340216Y213858D01*
X333656Y212519D02*
X332453Y213976D01*
X30506Y212519D02*
X29304Y213976D01*
X332453Y213976D02*
X332363Y214055D01*
X29304Y213976D02*
X29213Y214055D01*
X2303Y214409D02*
X10576Y214409D01*
X28815Y214409D02*
X313726Y214409D01*
X331965Y214409D02*
X340216Y214409D01*
X312665Y213307D02*
X313953Y214645D01*
X9515Y213307D02*
X10803Y214645D01*
X313953Y214645D02*
X314047Y214724D01*
X10803Y214645D02*
X10897Y214724D01*
X2303Y214960D02*
X11207Y214960D01*
X28197Y214960D02*
X314357Y214960D01*
X331347Y214960D02*
X340216Y214960D01*
X332363Y214055D02*
X330946Y215314D01*
X29213Y214055D02*
X27796Y215314D01*
X330946Y215314D02*
X330891Y215354D01*
X27796Y215314D02*
X27742Y215354D01*
X2303Y215511D02*
X11930Y215511D01*
X27498Y215511D02*
X315080Y215511D01*
X330648Y215511D02*
X340216Y215511D01*
X314047Y214724D02*
X315493Y215826D01*
X10897Y214724D02*
X12343Y215826D01*
X315493Y215826D02*
X315587Y215905D01*
X12343Y215826D02*
X12437Y215905D01*
X315587Y215905D02*
X315654Y215944D01*
X12437Y215905D02*
X12505Y215944D01*
X315654Y215944D02*
X315740Y215984D01*
X12505Y215944D02*
X12591Y215984D01*
X2303Y216062D02*
X12736Y216062D01*
X26647Y216062D02*
X315885Y216062D01*
X329797Y216062D02*
X340216Y216062D01*
X330891Y215354D02*
X329371Y216338D01*
X27742Y215354D02*
X26222Y216338D01*
X329371Y216338D02*
X329318Y216377D01*
X26222Y216338D02*
X26168Y216377D01*
X329318Y216377D02*
X329271Y216417D01*
X26168Y216377D02*
X26121Y216417D01*
X329271Y216417D02*
X329203Y216456D01*
X26121Y216417D02*
X26053Y216456D01*
X329203Y216456D02*
X329085Y216496D01*
X26053Y216456D02*
X25935Y216496D01*
X2303Y216614D02*
X13749Y216614D01*
X25672Y216614D02*
X316899Y216614D01*
X328821Y216614D02*
X340216Y216614D01*
X315740Y215984D02*
X317261Y216811D01*
X12591Y215984D02*
X14111Y216811D01*
X317261Y216811D02*
X317323Y216850D01*
X14111Y216811D02*
X14174Y216850D01*
X317323Y216850D02*
X317391Y216889D01*
X14174Y216850D02*
X14242Y216889D01*
X317391Y216889D02*
X317523Y216929D01*
X14242Y216889D02*
X14373Y216929D01*
X2303Y217165D02*
X15031Y217165D01*
X24442Y217165D02*
X318180Y217165D01*
X327592Y217165D02*
X340216Y217165D01*
X329085Y216496D02*
X327416Y217244D01*
X25935Y216496D02*
X24266Y217244D01*
X327416Y217244D02*
X327283Y217283D01*
X24266Y217244D02*
X24134Y217283D01*
X317523Y216929D02*
X319167Y217519D01*
X14373Y216929D02*
X16017Y217519D01*
X319167Y217519D02*
X319252Y217559D01*
X16017Y217519D02*
X16102Y217559D01*
X319252Y217559D02*
X319432Y217598D01*
X16102Y217559D02*
X16282Y217598D01*
X319432Y217598D02*
X319681Y217637D01*
X16282Y217598D02*
X16531Y217637D01*
X2303Y217716D02*
X16937Y217716D01*
X22558Y217716D02*
X320087Y217716D01*
X325708Y217716D02*
X340216Y217716D01*
X327283Y217283D02*
X325564Y217755D01*
X24134Y217283D02*
X22415Y217755D01*
X325564Y217755D02*
X325493Y217795D01*
X22415Y217755D02*
X22343Y217795D01*
X325493Y217795D02*
X325312Y217834D01*
X22343Y217795D02*
X22163Y217834D01*
X325312Y217834D02*
X324919Y217874D01*
X22163Y217834D02*
X21769Y217874D01*
X319681Y217637D02*
X321305Y217952D01*
X16531Y217637D02*
X18155Y217952D01*
X19299Y218031D02*
X19539Y218031D01*
X322449Y218031D02*
X322688Y218031D01*
X321305Y217952D02*
X321698Y217992D01*
X18155Y217952D02*
X18549Y217992D01*
X322055Y217992D02*
X322449Y218031D01*
X18905Y217992D02*
X19299Y218031D01*
X324801Y217874D02*
X323437Y218031D01*
X21651Y217874D02*
X20287Y218031D01*
X323437Y218031D02*
X323259Y218070D01*
X323082Y218031D02*
X323259Y218070D01*
X20287Y218031D02*
X20110Y218070D01*
X19933Y218031D02*
X20110Y218070D01*
X2303Y218267D02*
X340216Y218267D01*
X2303Y218818D02*
X340216Y218818D01*
X2303Y219370D02*
X340216Y219370D01*
X2303Y219921D02*
X340216Y219921D01*
X2303Y220472D02*
X340216Y220472D01*
X112125Y220551D02*
X112323Y220551D01*
X112323Y220551D02*
X112717Y220590D01*
X112125Y220551D02*
X111731Y220590D01*
X112717Y220590D02*
X112897Y220629D01*
X111731Y220590D02*
X111551Y220629D01*
X112897Y220629D02*
X112978Y220669D01*
X111551Y220629D02*
X111470Y220669D01*
X112978Y220669D02*
X113515Y220826D01*
X111470Y220669D02*
X110933Y220826D01*
X113515Y220826D02*
X113663Y220866D01*
X110933Y220826D02*
X110785Y220866D01*
X113663Y220866D02*
X113843Y220905D01*
X110785Y220866D02*
X110604Y220905D01*
X113843Y220905D02*
X113911Y220944D01*
X110604Y220905D02*
X110537Y220944D01*
X2303Y221023D02*
X110442Y221023D01*
X114006Y221023D02*
X340216Y221023D01*
X113911Y220944D02*
X114006Y221023D01*
X110537Y220944D02*
X110442Y221023D01*
X114006Y221023D02*
X114741Y221496D01*
X110442Y221023D02*
X109707Y221496D01*
X2303Y221574D02*
X109624Y221574D01*
X114824Y221574D02*
X340216Y221574D01*
X114741Y221496D02*
X114788Y221535D01*
X109707Y221496D02*
X109660Y221535D01*
X114788Y221535D02*
X114892Y221653D01*
X109660Y221535D02*
X109556Y221653D01*
X2303Y222125D02*
X109147Y222125D01*
X115301Y222125D02*
X340216Y222125D01*
X114892Y221653D02*
X115471Y222322D01*
X109556Y221653D02*
X108977Y222322D01*
X115471Y222322D02*
X115498Y222362D01*
X108977Y222322D02*
X108950Y222362D01*
X115498Y222362D02*
X115537Y222440D01*
X108950Y222362D02*
X108911Y222440D01*
X2303Y222677D02*
X108803Y222677D01*
X115645Y222677D02*
X340216Y222677D01*
X2303Y223228D02*
X108552Y223228D01*
X115896Y223228D02*
X340216Y223228D01*
X115537Y222440D02*
X115930Y223307D01*
X108911Y222440D02*
X108518Y223307D01*
X115930Y223307D02*
X115955Y223385D01*
X108518Y223307D02*
X108493Y223385D01*
X115955Y223385D02*
X115995Y223661D01*
X108493Y223385D02*
X108453Y223661D01*
X2303Y223779D02*
X108436Y223779D01*
X116012Y223779D02*
X340216Y223779D01*
X2303Y224330D02*
X108357Y224330D01*
X116091Y224330D02*
X340216Y224330D01*
X115995Y223661D02*
X116100Y224409D01*
X108453Y223661D02*
X108348Y224409D01*
X116100Y224409D02*
X116102Y224448D01*
X108348Y224409D02*
X108346Y224448D01*
X116102Y224448D02*
X116100Y224488D01*
X108346Y224448D02*
X108348Y224488D01*
X2303Y224881D02*
X108407Y224881D01*
X116040Y224881D02*
X340216Y224881D01*
X116100Y224488D02*
X116040Y224881D01*
X108348Y224488D02*
X108407Y224881D01*
X2303Y225433D02*
X108487Y225433D01*
X115961Y225433D02*
X340216Y225433D01*
X116040Y224881D02*
X115955Y225472D01*
X108407Y224881D02*
X108493Y225472D01*
X115955Y225472D02*
X115930Y225551D01*
X108493Y225472D02*
X108518Y225551D01*
X115930Y225551D02*
X115896Y225629D01*
X108518Y225551D02*
X108552Y225629D01*
X2303Y225984D02*
X108713Y225984D01*
X115734Y225984D02*
X340216Y225984D01*
X121967Y226456D02*
X122166Y226456D01*
X2303Y226535D02*
X108977Y226535D01*
X115471Y226535D02*
X121393Y226535D01*
X122740Y226535D02*
X340216Y226535D01*
X122166Y226456D02*
X122559Y226496D01*
X121967Y226456D02*
X121573Y226496D01*
X115896Y225629D02*
X115498Y226496D01*
X108552Y225629D02*
X108950Y226496D01*
X122559Y226496D02*
X122740Y226535D01*
X121573Y226496D02*
X121393Y226535D01*
X115498Y226496D02*
X115471Y226535D01*
X108950Y226496D02*
X108977Y226535D01*
X122740Y226535D02*
X122821Y226574D01*
X121393Y226535D02*
X121312Y226574D01*
X115471Y226535D02*
X115335Y226692D01*
X108977Y226535D02*
X109112Y226692D01*
X122821Y226574D02*
X123357Y226732D01*
X121312Y226574D02*
X120776Y226732D01*
X123357Y226732D02*
X123506Y226771D01*
X120776Y226732D02*
X120627Y226771D01*
X123506Y226771D02*
X123686Y226811D01*
X120627Y226771D02*
X120447Y226811D01*
X123686Y226811D02*
X123754Y226850D01*
X120447Y226811D02*
X120379Y226850D01*
X123754Y226850D02*
X123849Y226929D01*
X120379Y226850D02*
X120284Y226929D01*
X124365Y227007D02*
X168897Y227007D01*
X123849Y226929D02*
X123971Y227007D01*
X2303Y227086D02*
X109454Y227086D01*
X114994Y227086D02*
X120039Y227086D01*
X169753Y227086D02*
X340216Y227086D01*
X168897Y227007D02*
X169291Y227047D01*
X169359Y227047D02*
X169753Y227086D01*
X169753Y227086D02*
X169933Y227125D01*
X169933Y227125D02*
X170054Y227165D01*
X170054Y227165D02*
X170217Y227204D01*
X170217Y227204D02*
X170392Y227244D01*
X170392Y227244D02*
X170547Y227322D01*
X115335Y226692D02*
X114788Y227322D01*
X109112Y226692D02*
X109660Y227322D01*
X170547Y227322D02*
X170660Y227362D01*
X114788Y227322D02*
X114741Y227362D01*
X109660Y227322D02*
X109707Y227362D01*
X170660Y227362D02*
X170778Y227401D01*
X120284Y226929D02*
X119549Y227401D01*
X170778Y227401D02*
X170846Y227440D01*
X119549Y227401D02*
X119502Y227440D01*
X170846Y227440D02*
X171010Y227559D01*
X119502Y227440D02*
X119398Y227559D01*
X2303Y227637D02*
X110136Y227637D01*
X114312Y227637D02*
X119330Y227637D01*
X171163Y227637D02*
X340216Y227637D01*
X171010Y227559D02*
X171163Y227637D01*
X171163Y227637D02*
X171230Y227677D01*
X171230Y227677D02*
X171278Y227716D01*
X171278Y227716D02*
X171396Y227834D01*
X114741Y227362D02*
X114006Y227834D01*
X109707Y227362D02*
X110442Y227834D01*
X171396Y227834D02*
X171442Y227874D01*
X171442Y227874D02*
X171503Y227913D01*
X114006Y227834D02*
X113911Y227913D01*
X110442Y227834D02*
X110537Y227913D01*
X171503Y227913D02*
X171571Y227952D01*
X113911Y227913D02*
X113843Y227952D01*
X110537Y227913D02*
X110604Y227952D01*
X171571Y227952D02*
X171618Y227992D01*
X113843Y227952D02*
X113663Y227992D01*
X110604Y227952D02*
X110785Y227992D01*
X171618Y227992D02*
X171654Y228031D01*
X113663Y227992D02*
X113515Y228031D01*
X110785Y227992D02*
X110933Y228031D01*
X171654Y228031D02*
X171682Y228070D01*
X2303Y228188D02*
X111470Y228188D01*
X112978Y228188D02*
X118853Y228188D01*
X171800Y228188D02*
X340216Y228188D01*
X113515Y228031D02*
X112978Y228188D01*
X110933Y228031D02*
X111470Y228188D01*
X112978Y228188D02*
X112897Y228228D01*
X111470Y228188D02*
X111551Y228228D01*
X119398Y227559D02*
X118820Y228228D01*
X112125Y228307D02*
X112323Y228307D01*
X118820Y228228D02*
X118792Y228267D01*
X112897Y228228D02*
X112717Y228267D01*
X111551Y228228D02*
X111731Y228267D01*
X112717Y228267D02*
X112323Y228307D01*
X111731Y228267D02*
X112125Y228307D01*
X118792Y228267D02*
X118754Y228346D01*
X2303Y228740D02*
X118574Y228740D01*
X172351Y228740D02*
X340216Y228740D01*
X118754Y228346D02*
X118361Y229212D01*
X2303Y229291D02*
X118336Y229291D01*
X172902Y229291D02*
X340216Y229291D01*
X118361Y229212D02*
X118336Y229291D01*
X118336Y229291D02*
X118295Y229566D01*
X2303Y229842D02*
X118256Y229842D01*
X173454Y229842D02*
X340216Y229842D01*
X118295Y229566D02*
X118191Y230314D01*
X2303Y230393D02*
X118191Y230393D01*
X174005Y230393D02*
X340216Y230393D01*
X118191Y230314D02*
X118188Y230354D01*
X118188Y230354D02*
X118191Y230393D01*
X118191Y230393D02*
X118250Y230787D01*
X2303Y230944D02*
X118273Y230944D01*
X174556Y230944D02*
X340216Y230944D01*
X177047Y231181D02*
X184625Y231181D01*
X185452Y231181D02*
X193031Y231181D01*
X185019Y231220D02*
X185059Y231220D01*
X193031Y231181D02*
X193425Y231220D01*
X185452Y231181D02*
X185059Y231220D01*
X184625Y231181D02*
X185019Y231220D01*
X177047Y231181D02*
X176653Y231220D01*
X193425Y231220D02*
X193605Y231259D01*
X176653Y231220D02*
X176473Y231259D01*
X193605Y231259D02*
X193673Y231299D01*
X176473Y231259D02*
X176405Y231299D01*
X193673Y231299D02*
X193720Y231338D01*
X176405Y231299D02*
X176358Y231338D01*
X193720Y231338D02*
X193755Y231377D01*
X176358Y231338D02*
X176322Y231377D01*
X118250Y230787D02*
X118336Y231377D01*
X193755Y231377D02*
X193783Y231417D01*
X176322Y231377D02*
X176295Y231417D01*
X2303Y231496D02*
X118376Y231496D01*
X175107Y231496D02*
X176259Y231496D01*
X193819Y231496D02*
X340216Y231496D01*
X193783Y231417D02*
X193804Y231456D01*
X176295Y231417D02*
X176274Y231456D01*
X118336Y231377D02*
X118361Y231456D01*
X193804Y231456D02*
X193819Y231496D01*
X176274Y231456D02*
X176259Y231496D01*
X193819Y231496D02*
X193830Y231535D01*
X176259Y231496D02*
X176248Y231535D01*
X118361Y231456D02*
X118394Y231535D01*
X193830Y231535D02*
X193836Y231574D01*
X176248Y231535D02*
X176242Y231574D01*
X193836Y231574D02*
X193838Y231653D01*
X176242Y231574D02*
X176240Y231653D01*
X2303Y232047D02*
X118628Y232047D01*
X175658Y232047D02*
X176240Y232047D01*
X193838Y232047D02*
X340216Y232047D01*
X118394Y231535D02*
X118792Y232401D01*
X118792Y232401D02*
X118820Y232440D01*
X193838Y231653D02*
X193838Y232519D01*
X2303Y232598D02*
X118955Y232598D01*
X176210Y232598D02*
X176240Y232598D01*
X194089Y232598D02*
X340216Y232598D01*
X193838Y232519D02*
X193955Y232559D01*
X118820Y232440D02*
X118955Y232598D01*
X176240Y231653D02*
X176240Y232598D01*
X171682Y228070D02*
X176210Y232598D01*
X193955Y232559D02*
X194223Y232637D01*
X194223Y232637D02*
X194372Y232677D01*
X194372Y232677D02*
X194552Y232716D01*
X194552Y232716D02*
X194620Y232755D01*
X194620Y232755D02*
X194715Y232834D01*
X195231Y232913D02*
X200393Y232913D01*
X194715Y232834D02*
X194837Y232913D01*
X200393Y232913D02*
X200787Y232952D01*
X200855Y232952D02*
X201249Y232992D01*
X201249Y232992D02*
X201429Y233031D01*
X201429Y233031D02*
X201550Y233070D01*
X2303Y233149D02*
X119433Y233149D01*
X201888Y233149D02*
X340216Y233149D01*
X201550Y233070D02*
X201713Y233110D01*
X201713Y233110D02*
X201888Y233149D01*
X201888Y233149D02*
X202043Y233228D01*
X118955Y232598D02*
X119502Y233228D01*
X202043Y233228D02*
X202156Y233267D01*
X119502Y233228D02*
X119549Y233267D01*
X202156Y233267D02*
X202274Y233307D01*
X202274Y233307D02*
X202342Y233346D01*
X202342Y233346D02*
X202506Y233464D01*
X202506Y233464D02*
X202659Y233543D01*
X124032Y233622D02*
X167963Y233622D01*
X202659Y233543D02*
X202727Y233582D01*
X202727Y233582D02*
X202774Y233622D01*
X2303Y233700D02*
X120223Y233700D01*
X123910Y233700D02*
X168041Y233700D01*
X202852Y233700D02*
X340216Y233700D01*
X202774Y233622D02*
X202892Y233740D01*
X124032Y233622D02*
X123849Y233740D01*
X119549Y233267D02*
X120284Y233740D01*
X202892Y233740D02*
X202938Y233779D01*
X202938Y233779D02*
X202999Y233818D01*
X123849Y233740D02*
X123754Y233818D01*
X120284Y233740D02*
X120379Y233818D01*
X202999Y233818D02*
X203067Y233858D01*
X123754Y233818D02*
X123686Y233858D01*
X120379Y233818D02*
X120447Y233858D01*
X203067Y233858D02*
X203114Y233897D01*
X123686Y233858D02*
X123506Y233897D01*
X120447Y233858D02*
X120627Y233897D01*
X203114Y233897D02*
X203150Y233937D01*
X123506Y233897D02*
X123357Y233937D01*
X120627Y233897D02*
X120776Y233937D01*
X203150Y233937D02*
X203178Y233976D01*
X123357Y233937D02*
X122821Y234094D01*
X120776Y233937D02*
X121312Y234094D01*
X122821Y234094D02*
X122740Y234133D01*
X121312Y234094D02*
X121393Y234133D01*
X121967Y234212D02*
X122166Y234212D01*
X122740Y234133D02*
X122559Y234173D01*
X121393Y234133D02*
X121573Y234173D01*
X2303Y234251D02*
X168593Y234251D01*
X203454Y234251D02*
X340216Y234251D01*
X122559Y234173D02*
X122166Y234212D01*
X121573Y234173D02*
X121967Y234212D01*
X2303Y234803D02*
X169144Y234803D01*
X204005Y234803D02*
X340216Y234803D01*
X2303Y235354D02*
X169695Y235354D01*
X204556Y235354D02*
X340216Y235354D01*
X2303Y235905D02*
X170246Y235905D01*
X205107Y235905D02*
X340216Y235905D01*
X2303Y236456D02*
X170797Y236456D01*
X205658Y236456D02*
X340216Y236456D01*
X2303Y237007D02*
X171348Y237007D01*
X206210Y237007D02*
X340216Y237007D01*
X216456Y237165D02*
X221102Y237165D01*
X226456Y237165D02*
X231102Y237165D01*
X236456Y237165D02*
X241102Y237165D01*
X246456Y237165D02*
X251102Y237165D01*
X256456Y237165D02*
X261102Y237165D01*
X266456Y237165D02*
X271102Y237165D01*
X276456Y237165D02*
X281102Y237165D01*
X286456Y237165D02*
X291102Y237165D01*
X296456Y237165D02*
X301102Y237165D01*
X306456Y237165D02*
X311102Y237165D01*
X311102Y237165D02*
X311496Y237204D01*
X306456Y237165D02*
X306062Y237204D01*
X301102Y237165D02*
X301496Y237204D01*
X296456Y237165D02*
X296062Y237204D01*
X291102Y237165D02*
X291496Y237204D01*
X286456Y237165D02*
X286062Y237204D01*
X281102Y237165D02*
X281496Y237204D01*
X276456Y237165D02*
X276062Y237204D01*
X271102Y237165D02*
X271496Y237204D01*
X266456Y237165D02*
X266062Y237204D01*
X261102Y237165D02*
X261496Y237204D01*
X256456Y237165D02*
X256062Y237204D01*
X251102Y237165D02*
X251496Y237204D01*
X246456Y237165D02*
X246062Y237204D01*
X241102Y237165D02*
X241496Y237204D01*
X236456Y237165D02*
X236062Y237204D01*
X231102Y237165D02*
X231496Y237204D01*
X226456Y237165D02*
X226062Y237204D01*
X221102Y237165D02*
X221496Y237204D01*
X216456Y237165D02*
X216062Y237204D01*
X311496Y237204D02*
X311676Y237244D01*
X306062Y237204D02*
X305882Y237244D01*
X301496Y237204D02*
X301676Y237244D01*
X296062Y237204D02*
X295882Y237244D01*
X291496Y237204D02*
X291676Y237244D01*
X286062Y237204D02*
X285882Y237244D01*
X281496Y237204D02*
X281676Y237244D01*
X276062Y237204D02*
X275882Y237244D01*
X271496Y237204D02*
X271676Y237244D01*
X266062Y237204D02*
X265882Y237244D01*
X261496Y237204D02*
X261676Y237244D01*
X256062Y237204D02*
X255882Y237244D01*
X251496Y237204D02*
X251676Y237244D01*
X246062Y237204D02*
X245882Y237244D01*
X241496Y237204D02*
X241676Y237244D01*
X236062Y237204D02*
X235882Y237244D01*
X231496Y237204D02*
X231676Y237244D01*
X226062Y237204D02*
X225882Y237244D01*
X221496Y237204D02*
X221676Y237244D01*
X216062Y237204D02*
X215882Y237244D01*
X311676Y237244D02*
X311744Y237283D01*
X305882Y237244D02*
X305814Y237283D01*
X301676Y237244D02*
X301744Y237283D01*
X295882Y237244D02*
X295814Y237283D01*
X291676Y237244D02*
X291744Y237283D01*
X285882Y237244D02*
X285814Y237283D01*
X281676Y237244D02*
X281744Y237283D01*
X275882Y237244D02*
X275814Y237283D01*
X271676Y237244D02*
X271744Y237283D01*
X265882Y237244D02*
X265814Y237283D01*
X261676Y237244D02*
X261744Y237283D01*
X255882Y237244D02*
X255814Y237283D01*
X251676Y237244D02*
X251744Y237283D01*
X245882Y237244D02*
X245814Y237283D01*
X241676Y237244D02*
X241744Y237283D01*
X235882Y237244D02*
X235814Y237283D01*
X231676Y237244D02*
X231744Y237283D01*
X225882Y237244D02*
X225814Y237283D01*
X221676Y237244D02*
X221744Y237283D01*
X215882Y237244D02*
X215814Y237283D01*
X311744Y237283D02*
X311791Y237322D01*
X305814Y237283D02*
X305767Y237322D01*
X301744Y237283D02*
X301791Y237322D01*
X295814Y237283D02*
X295767Y237322D01*
X291744Y237283D02*
X291791Y237322D01*
X285814Y237283D02*
X285767Y237322D01*
X281744Y237283D02*
X281791Y237322D01*
X275814Y237283D02*
X275767Y237322D01*
X271744Y237283D02*
X271791Y237322D01*
X265814Y237283D02*
X265767Y237322D01*
X261744Y237283D02*
X261791Y237322D01*
X255814Y237283D02*
X255767Y237322D01*
X251744Y237283D02*
X251791Y237322D01*
X245814Y237283D02*
X245767Y237322D01*
X241744Y237283D02*
X241791Y237322D01*
X235814Y237283D02*
X235767Y237322D01*
X231744Y237283D02*
X231791Y237322D01*
X225814Y237283D02*
X225767Y237322D01*
X221744Y237283D02*
X221791Y237322D01*
X215814Y237283D02*
X215767Y237322D01*
X2303Y237559D02*
X171900Y237559D01*
X206761Y237559D02*
X215531Y237559D01*
X222027Y237559D02*
X225531Y237559D01*
X232027Y237559D02*
X235531Y237559D01*
X242027Y237559D02*
X245531Y237559D01*
X252027Y237559D02*
X255531Y237559D01*
X262027Y237559D02*
X265531Y237559D01*
X272027Y237559D02*
X275531Y237559D01*
X282027Y237559D02*
X285531Y237559D01*
X292027Y237559D02*
X295531Y237559D01*
X302027Y237559D02*
X305531Y237559D01*
X312027Y237559D02*
X340216Y237559D01*
X2303Y238110D02*
X172451Y238110D01*
X207312Y238110D02*
X214980Y238110D01*
X222578Y238110D02*
X224980Y238110D01*
X232578Y238110D02*
X234980Y238110D01*
X242578Y238110D02*
X244980Y238110D01*
X252578Y238110D02*
X254980Y238110D01*
X262578Y238110D02*
X264980Y238110D01*
X272578Y238110D02*
X274980Y238110D01*
X282578Y238110D02*
X284980Y238110D01*
X292578Y238110D02*
X294980Y238110D01*
X302578Y238110D02*
X304980Y238110D01*
X312578Y238110D02*
X340216Y238110D01*
X17411Y238307D02*
X21958Y238307D01*
X25285Y238307D02*
X29832Y238307D01*
X33159Y238307D02*
X37706Y238307D01*
X41033Y238307D02*
X45580Y238307D01*
X48907Y238307D02*
X53454Y238307D01*
X56781Y238307D02*
X61328Y238307D01*
X64655Y238307D02*
X69202Y238307D01*
X72529Y238307D02*
X77076Y238307D01*
X80403Y238307D02*
X84950Y238307D01*
X88277Y238307D02*
X92824Y238307D01*
X92824Y238307D02*
X93218Y238346D01*
X88277Y238307D02*
X87883Y238346D01*
X84950Y238307D02*
X85344Y238346D01*
X80403Y238307D02*
X80009Y238346D01*
X77076Y238307D02*
X77470Y238346D01*
X72529Y238307D02*
X72135Y238346D01*
X69202Y238307D02*
X69596Y238346D01*
X64655Y238307D02*
X64261Y238346D01*
X61328Y238307D02*
X61722Y238346D01*
X56781Y238307D02*
X56387Y238346D01*
X53454Y238307D02*
X53848Y238346D01*
X48907Y238307D02*
X48513Y238346D01*
X45580Y238307D02*
X45974Y238346D01*
X41033Y238307D02*
X40639Y238346D01*
X37706Y238307D02*
X38100Y238346D01*
X33159Y238307D02*
X32765Y238346D01*
X29832Y238307D02*
X30226Y238346D01*
X25285Y238307D02*
X24891Y238346D01*
X21958Y238307D02*
X22352Y238346D01*
X17411Y238307D02*
X17017Y238346D01*
X93218Y238346D02*
X93398Y238385D01*
X87883Y238346D02*
X87703Y238385D01*
X85344Y238346D02*
X85524Y238385D01*
X80009Y238346D02*
X79829Y238385D01*
X77470Y238346D02*
X77650Y238385D01*
X72135Y238346D02*
X71955Y238385D01*
X69596Y238346D02*
X69776Y238385D01*
X64261Y238346D02*
X64081Y238385D01*
X61722Y238346D02*
X61902Y238385D01*
X56387Y238346D02*
X56207Y238385D01*
X53848Y238346D02*
X54028Y238385D01*
X48513Y238346D02*
X48333Y238385D01*
X45974Y238346D02*
X46154Y238385D01*
X40639Y238346D02*
X40459Y238385D01*
X38100Y238346D02*
X38280Y238385D01*
X32765Y238346D02*
X32585Y238385D01*
X30226Y238346D02*
X30406Y238385D01*
X24891Y238346D02*
X24711Y238385D01*
X22352Y238346D02*
X22532Y238385D01*
X17017Y238346D02*
X16837Y238385D01*
X93398Y238385D02*
X93466Y238425D01*
X87703Y238385D02*
X87635Y238425D01*
X85524Y238385D02*
X85592Y238425D01*
X79829Y238385D02*
X79761Y238425D01*
X77650Y238385D02*
X77718Y238425D01*
X71955Y238385D02*
X71887Y238425D01*
X69776Y238385D02*
X69844Y238425D01*
X64081Y238385D02*
X64013Y238425D01*
X61902Y238385D02*
X61970Y238425D01*
X56207Y238385D02*
X56139Y238425D01*
X54028Y238385D02*
X54096Y238425D01*
X48333Y238385D02*
X48265Y238425D01*
X46154Y238385D02*
X46222Y238425D01*
X40459Y238385D02*
X40391Y238425D01*
X38280Y238385D02*
X38348Y238425D01*
X32585Y238385D02*
X32517Y238425D01*
X30406Y238385D02*
X30474Y238425D01*
X24711Y238385D02*
X24643Y238425D01*
X22532Y238385D02*
X22600Y238425D01*
X16837Y238385D02*
X16769Y238425D01*
X93466Y238425D02*
X93513Y238464D01*
X87635Y238425D02*
X87588Y238464D01*
X85592Y238425D02*
X85639Y238464D01*
X79761Y238425D02*
X79714Y238464D01*
X77718Y238425D02*
X77765Y238464D01*
X71887Y238425D02*
X71840Y238464D01*
X69844Y238425D02*
X69891Y238464D01*
X64013Y238425D02*
X63966Y238464D01*
X61970Y238425D02*
X62017Y238464D01*
X56139Y238425D02*
X56092Y238464D01*
X54096Y238425D02*
X54143Y238464D01*
X48265Y238425D02*
X48218Y238464D01*
X46222Y238425D02*
X46269Y238464D01*
X40391Y238425D02*
X40344Y238464D01*
X38348Y238425D02*
X38395Y238464D01*
X32517Y238425D02*
X32470Y238464D01*
X30474Y238425D02*
X30521Y238464D01*
X24643Y238425D02*
X24596Y238464D01*
X22600Y238425D02*
X22647Y238464D01*
X16769Y238425D02*
X16722Y238464D01*
X167963Y233622D02*
X172805Y238464D01*
X172805Y238464D02*
X172833Y238503D01*
X93513Y238464D02*
X93549Y238503D01*
X87588Y238464D02*
X87553Y238503D01*
X85639Y238464D02*
X85675Y238503D01*
X79714Y238464D02*
X79679Y238503D01*
X77765Y238464D02*
X77801Y238503D01*
X71840Y238464D02*
X71805Y238503D01*
X69891Y238464D02*
X69927Y238503D01*
X63966Y238464D02*
X63931Y238503D01*
X62017Y238464D02*
X62053Y238503D01*
X56092Y238464D02*
X56057Y238503D01*
X54143Y238464D02*
X54179Y238503D01*
X48218Y238464D02*
X48183Y238503D01*
X46269Y238464D02*
X46305Y238503D01*
X40344Y238464D02*
X40309Y238503D01*
X38395Y238464D02*
X38431Y238503D01*
X32470Y238464D02*
X32435Y238503D01*
X30521Y238464D02*
X30557Y238503D01*
X24596Y238464D02*
X24561Y238503D01*
X22647Y238464D02*
X22683Y238503D01*
X16722Y238464D02*
X16687Y238503D01*
X172833Y238503D02*
X172869Y238543D01*
X93549Y238503D02*
X93576Y238543D01*
X87553Y238503D02*
X87525Y238543D01*
X85675Y238503D02*
X85702Y238543D01*
X79679Y238503D02*
X79651Y238543D01*
X77801Y238503D02*
X77828Y238543D01*
X71805Y238503D02*
X71777Y238543D01*
X69927Y238503D02*
X69954Y238543D01*
X63931Y238503D02*
X63903Y238543D01*
X62053Y238503D02*
X62080Y238543D01*
X56057Y238503D02*
X56029Y238543D01*
X54179Y238503D02*
X54206Y238543D01*
X48183Y238503D02*
X48155Y238543D01*
X46305Y238503D02*
X46332Y238543D01*
X40309Y238503D02*
X40281Y238543D01*
X38431Y238503D02*
X38458Y238543D01*
X32435Y238503D02*
X32407Y238543D01*
X30557Y238503D02*
X30584Y238543D01*
X24561Y238503D02*
X24533Y238543D01*
X22683Y238503D02*
X22710Y238543D01*
X16687Y238503D02*
X16659Y238543D01*
X172869Y238543D02*
X172916Y238582D01*
X2303Y238661D02*
X16545Y238661D01*
X22824Y238661D02*
X24419Y238661D01*
X30698Y238661D02*
X32293Y238661D01*
X38572Y238661D02*
X40167Y238661D01*
X46446Y238661D02*
X48041Y238661D01*
X54320Y238661D02*
X55915Y238661D01*
X62194Y238661D02*
X63789Y238661D01*
X70068Y238661D02*
X71663Y238661D01*
X77942Y238661D02*
X79537Y238661D01*
X85816Y238661D02*
X87411Y238661D01*
X93690Y238661D02*
X173045Y238661D01*
X207863Y238661D02*
X214429Y238661D01*
X223129Y238661D02*
X224429Y238661D01*
X233129Y238661D02*
X234429Y238661D01*
X243129Y238661D02*
X244429Y238661D01*
X253129Y238661D02*
X254429Y238661D01*
X263129Y238661D02*
X264429Y238661D01*
X273129Y238661D02*
X274429Y238661D01*
X283129Y238661D02*
X284429Y238661D01*
X293129Y238661D02*
X294429Y238661D01*
X303129Y238661D02*
X304429Y238661D01*
X313129Y238661D02*
X340216Y238661D01*
X172916Y238582D02*
X172984Y238622D01*
X93576Y238543D02*
X93651Y238622D01*
X87525Y238543D02*
X87450Y238622D01*
X85702Y238543D02*
X85777Y238622D01*
X79651Y238543D02*
X79576Y238622D01*
X77828Y238543D02*
X77903Y238622D01*
X71777Y238543D02*
X71702Y238622D01*
X69954Y238543D02*
X70029Y238622D01*
X63903Y238543D02*
X63828Y238622D01*
X62080Y238543D02*
X62155Y238622D01*
X56029Y238543D02*
X55954Y238622D01*
X54206Y238543D02*
X54281Y238622D01*
X48155Y238543D02*
X48080Y238622D01*
X46332Y238543D02*
X46407Y238622D01*
X40281Y238543D02*
X40206Y238622D01*
X38458Y238543D02*
X38533Y238622D01*
X32407Y238543D02*
X32332Y238622D01*
X30584Y238543D02*
X30659Y238622D01*
X24533Y238543D02*
X24458Y238622D01*
X22710Y238543D02*
X22785Y238622D01*
X16659Y238543D02*
X16584Y238622D01*
X172984Y238622D02*
X173045Y238661D01*
X173045Y238661D02*
X173091Y238700D01*
X173091Y238700D02*
X173210Y238818D01*
X173210Y238818D02*
X173257Y238858D01*
X173257Y238858D02*
X173325Y238897D01*
X107952Y239015D02*
X116456Y239015D01*
X120275Y239015D02*
X124133Y239015D01*
X130275Y239015D02*
X134133Y239015D01*
X140275Y239015D02*
X144133Y239015D01*
X150275Y239015D02*
X154133Y239015D01*
X160275Y239015D02*
X164133Y239015D01*
X173325Y238897D02*
X173477Y238976D01*
X164133Y239015D02*
X164527Y239055D01*
X160275Y239015D02*
X159881Y239055D01*
X154133Y239015D02*
X154527Y239055D01*
X150275Y239015D02*
X149881Y239055D01*
X144133Y239015D02*
X144527Y239055D01*
X140275Y239015D02*
X139881Y239055D01*
X134133Y239015D02*
X134527Y239055D01*
X130275Y239015D02*
X129881Y239055D01*
X124133Y239015D02*
X124527Y239055D01*
X120275Y239015D02*
X119881Y239055D01*
X116456Y239015D02*
X116850Y239055D01*
X107952Y239015D02*
X107559Y239055D01*
X164527Y239055D02*
X164707Y239094D01*
X159881Y239055D02*
X159701Y239094D01*
X154527Y239055D02*
X154707Y239094D01*
X149881Y239055D02*
X149701Y239094D01*
X144527Y239055D02*
X144707Y239094D01*
X139881Y239055D02*
X139701Y239094D01*
X134527Y239055D02*
X134707Y239094D01*
X129881Y239055D02*
X129701Y239094D01*
X124527Y239055D02*
X124707Y239094D01*
X119881Y239055D02*
X119701Y239094D01*
X116850Y239055D02*
X117030Y239094D01*
X107559Y239055D02*
X107378Y239094D01*
X173477Y238976D02*
X173641Y239094D01*
X173641Y239094D02*
X173709Y239133D01*
X164707Y239094D02*
X164775Y239133D01*
X159701Y239094D02*
X159633Y239133D01*
X154707Y239094D02*
X154775Y239133D01*
X149701Y239094D02*
X149633Y239133D01*
X144707Y239094D02*
X144775Y239133D01*
X139701Y239094D02*
X139633Y239133D01*
X134707Y239094D02*
X134775Y239133D01*
X129701Y239094D02*
X129633Y239133D01*
X124707Y239094D02*
X124775Y239133D01*
X119701Y239094D02*
X119633Y239133D01*
X117030Y239094D02*
X117098Y239133D01*
X107378Y239094D02*
X107311Y239133D01*
X2303Y239212D02*
X15994Y239212D01*
X23375Y239212D02*
X23868Y239212D01*
X31249Y239212D02*
X31742Y239212D01*
X39123Y239212D02*
X39616Y239212D01*
X46997Y239212D02*
X47490Y239212D01*
X54871Y239212D02*
X55364Y239212D01*
X62746Y239212D02*
X63238Y239212D01*
X70620Y239212D02*
X71112Y239212D01*
X78494Y239212D02*
X78986Y239212D01*
X86368Y239212D02*
X86860Y239212D01*
X94242Y239212D02*
X107228Y239212D01*
X117181Y239212D02*
X119547Y239212D01*
X124862Y239212D02*
X129547Y239212D01*
X134862Y239212D02*
X139547Y239212D01*
X144862Y239212D02*
X149547Y239212D01*
X154862Y239212D02*
X159547Y239212D01*
X164862Y239212D02*
X173941Y239212D01*
X208414Y239212D02*
X213878Y239212D01*
X223681Y239212D02*
X223878Y239212D01*
X233681Y239212D02*
X233878Y239212D01*
X243681Y239212D02*
X243878Y239212D01*
X253681Y239212D02*
X253878Y239212D01*
X263681Y239212D02*
X263878Y239212D01*
X273681Y239212D02*
X273878Y239212D01*
X283681Y239212D02*
X283878Y239212D01*
X293681Y239212D02*
X293878Y239212D01*
X303681Y239212D02*
X303878Y239212D01*
X313681Y239212D02*
X340216Y239212D01*
X173709Y239133D02*
X173827Y239173D01*
X164775Y239133D02*
X164822Y239173D01*
X159633Y239133D02*
X159586Y239173D01*
X154775Y239133D02*
X154822Y239173D01*
X149633Y239133D02*
X149586Y239173D01*
X144775Y239133D02*
X144822Y239173D01*
X139633Y239133D02*
X139586Y239173D01*
X134775Y239133D02*
X134822Y239173D01*
X129633Y239133D02*
X129586Y239173D01*
X124775Y239133D02*
X124822Y239173D01*
X119633Y239133D02*
X119586Y239173D01*
X117098Y239133D02*
X117145Y239173D01*
X107311Y239133D02*
X107263Y239173D01*
X173827Y239173D02*
X173941Y239212D01*
X117145Y239173D02*
X117181Y239212D01*
X107263Y239173D02*
X107228Y239212D01*
X223759Y239291D02*
X223799Y239291D01*
X233759Y239291D02*
X233799Y239291D01*
X243759Y239291D02*
X243799Y239291D01*
X253759Y239291D02*
X253799Y239291D01*
X263759Y239291D02*
X263799Y239291D01*
X273759Y239291D02*
X273799Y239291D01*
X283759Y239291D02*
X283799Y239291D01*
X293759Y239291D02*
X293799Y239291D01*
X303759Y239291D02*
X303799Y239291D01*
X117181Y239212D02*
X117208Y239251D01*
X107228Y239212D02*
X107201Y239251D01*
X117208Y239251D02*
X117229Y239291D01*
X107201Y239251D02*
X107180Y239291D01*
X173941Y239212D02*
X174095Y239291D01*
X305767Y237322D02*
X303799Y239291D01*
X301791Y237322D02*
X303759Y239291D01*
X295767Y237322D02*
X293799Y239291D01*
X291791Y237322D02*
X293759Y239291D01*
X285767Y237322D02*
X283799Y239291D01*
X281791Y237322D02*
X283759Y239291D01*
X275767Y237322D02*
X273799Y239291D01*
X271791Y237322D02*
X273759Y239291D01*
X265767Y237322D02*
X263799Y239291D01*
X261791Y237322D02*
X263759Y239291D01*
X255767Y237322D02*
X253799Y239291D01*
X251791Y237322D02*
X253759Y239291D01*
X245767Y237322D02*
X243799Y239291D01*
X241791Y237322D02*
X243759Y239291D01*
X235767Y237322D02*
X233799Y239291D01*
X231791Y237322D02*
X233759Y239291D01*
X225767Y237322D02*
X223799Y239291D01*
X221791Y237322D02*
X223759Y239291D01*
X174095Y239291D02*
X174270Y239330D01*
X117229Y239291D02*
X117244Y239330D01*
X107180Y239291D02*
X107164Y239330D01*
X174270Y239330D02*
X174433Y239370D01*
X117244Y239330D02*
X117255Y239370D01*
X107164Y239330D02*
X107154Y239370D01*
X23612Y239448D02*
X23631Y239448D01*
X31486Y239448D02*
X31505Y239448D01*
X39360Y239448D02*
X39379Y239448D01*
X47234Y239448D02*
X47253Y239448D01*
X55108Y239448D02*
X55128Y239448D01*
X62982Y239448D02*
X63002Y239448D01*
X70856Y239448D02*
X70876Y239448D01*
X78730Y239448D02*
X78750Y239448D01*
X86604Y239448D02*
X86624Y239448D01*
X174433Y239370D02*
X174554Y239409D01*
X117255Y239370D02*
X117261Y239409D01*
X107154Y239370D02*
X107147Y239409D01*
X174554Y239409D02*
X174734Y239448D01*
X87450Y238622D02*
X86624Y239448D01*
X85777Y238622D02*
X86604Y239448D01*
X79576Y238622D02*
X78750Y239448D01*
X77903Y238622D02*
X78730Y239448D01*
X71702Y238622D02*
X70876Y239448D01*
X70029Y238622D02*
X70856Y239448D01*
X63828Y238622D02*
X63002Y239448D01*
X62155Y238622D02*
X62982Y239448D01*
X55954Y238622D02*
X55128Y239448D01*
X54281Y238622D02*
X55108Y239448D01*
X48080Y238622D02*
X47253Y239448D01*
X46407Y238622D02*
X47234Y239448D01*
X40206Y238622D02*
X39379Y239448D01*
X38533Y238622D02*
X39360Y239448D01*
X32332Y238622D02*
X31505Y239448D01*
X30659Y238622D02*
X31486Y239448D01*
X24458Y238622D02*
X23631Y239448D01*
X22785Y238622D02*
X23612Y239448D01*
X175590Y239527D02*
X175846Y239527D01*
X194898Y239527D02*
X199459Y239527D01*
X174734Y239448D02*
X175128Y239488D01*
X117261Y239409D02*
X117263Y239488D01*
X107147Y239409D02*
X107145Y239488D01*
X175196Y239488D02*
X175590Y239527D01*
X194898Y239527D02*
X194715Y239645D01*
X314586Y239724D02*
X317598Y239724D01*
X2303Y239763D02*
X15442Y239763D01*
X94793Y239763D02*
X107145Y239763D01*
X117263Y239763D02*
X118996Y239763D01*
X125413Y239763D02*
X128996Y239763D01*
X135413Y239763D02*
X138996Y239763D01*
X145413Y239763D02*
X148996Y239763D01*
X155413Y239763D02*
X158996Y239763D01*
X165413Y239763D02*
X176240Y239763D01*
X194552Y239763D02*
X199695Y239763D01*
X208965Y239763D02*
X213326Y239763D01*
X317992Y239763D02*
X340216Y239763D01*
X194715Y239645D02*
X194620Y239724D01*
X311791Y237322D02*
X314192Y239724D01*
X317598Y239724D02*
X317992Y239763D01*
X194620Y239724D02*
X194552Y239763D01*
X194552Y239763D02*
X194372Y239803D01*
X194372Y239803D02*
X194223Y239842D01*
X317992Y239763D02*
X318737Y239881D01*
X318737Y239881D02*
X318918Y239921D01*
X194223Y239842D02*
X193955Y239921D01*
X318918Y239921D02*
X319093Y239960D01*
X193955Y239921D02*
X193838Y239960D01*
X215767Y237322D02*
X213015Y240078D01*
X213015Y240078D02*
X212988Y240118D01*
X212988Y240118D02*
X212967Y240157D01*
X212967Y240157D02*
X212952Y240196D01*
X212952Y240196D02*
X212941Y240236D01*
X2303Y240314D02*
X14891Y240314D01*
X95344Y240314D02*
X107145Y240314D01*
X117263Y240314D02*
X118444Y240314D01*
X125964Y240314D02*
X128444Y240314D01*
X135964Y240314D02*
X138444Y240314D01*
X145964Y240314D02*
X148444Y240314D01*
X155964Y240314D02*
X158444Y240314D01*
X165964Y240314D02*
X176240Y240314D01*
X193838Y240314D02*
X200246Y240314D01*
X209517Y240314D02*
X212933Y240314D01*
X319788Y240314D02*
X340216Y240314D01*
X212941Y240236D02*
X212935Y240275D01*
X212935Y240275D02*
X212933Y240354D01*
X319093Y239960D02*
X319863Y240354D01*
X319863Y240354D02*
X319931Y240393D01*
X193838Y239960D02*
X193838Y240393D01*
X319931Y240393D02*
X319978Y240433D01*
X193838Y240393D02*
X193955Y240433D01*
X193955Y240433D02*
X194223Y240511D01*
X194223Y240511D02*
X194372Y240551D01*
X194372Y240551D02*
X194552Y240590D01*
X194552Y240590D02*
X194620Y240629D01*
X194620Y240629D02*
X194715Y240708D01*
X195231Y240787D02*
X198425Y240787D01*
X194715Y240708D02*
X194837Y240787D01*
X2303Y240866D02*
X14340Y240866D01*
X95895Y240866D02*
X107145Y240866D01*
X117263Y240866D02*
X117893Y240866D01*
X126515Y240866D02*
X127893Y240866D01*
X136515Y240866D02*
X137893Y240866D01*
X146515Y240866D02*
X147893Y240866D01*
X156515Y240866D02*
X157893Y240866D01*
X166515Y240866D02*
X176240Y240866D01*
X199280Y240866D02*
X200797Y240866D01*
X210068Y240866D02*
X212933Y240866D01*
X320412Y240866D02*
X340216Y240866D01*
X198425Y240787D02*
X198818Y240826D01*
X198887Y240826D02*
X199280Y240866D01*
X199280Y240866D02*
X199460Y240905D01*
X199460Y240905D02*
X199582Y240944D01*
X199582Y240944D02*
X199744Y240984D01*
X199744Y240984D02*
X199920Y241023D01*
X199920Y241023D02*
X200074Y241102D01*
X319978Y240433D02*
X320647Y241102D01*
X93651Y238622D02*
X96133Y241102D01*
X16584Y238622D02*
X14102Y241102D01*
X320647Y241102D02*
X320675Y241141D01*
X200074Y241102D02*
X200187Y241141D01*
X96133Y241102D02*
X96181Y241141D01*
X14102Y241102D02*
X14055Y241141D01*
X200187Y241141D02*
X200306Y241181D01*
X96181Y241141D02*
X96216Y241181D01*
X14055Y241141D02*
X14019Y241181D01*
X200306Y241181D02*
X200374Y241220D01*
X96216Y241181D02*
X96243Y241220D01*
X14019Y241181D02*
X13992Y241220D01*
X96243Y241220D02*
X96264Y241259D01*
X13992Y241220D02*
X13971Y241259D01*
X320675Y241141D02*
X320734Y241259D01*
X96264Y241259D02*
X96280Y241299D01*
X13971Y241259D02*
X13956Y241299D01*
X96280Y241299D02*
X96290Y241338D01*
X13956Y241299D02*
X13945Y241338D01*
X200374Y241220D02*
X200538Y241338D01*
X2303Y241417D02*
X13937Y241417D01*
X96299Y241417D02*
X107145Y241417D01*
X117263Y241417D02*
X117342Y241417D01*
X127066Y241417D02*
X127342Y241417D01*
X137066Y241417D02*
X137342Y241417D01*
X147066Y241417D02*
X147342Y241417D01*
X157066Y241417D02*
X157342Y241417D01*
X167066Y241417D02*
X176240Y241417D01*
X200690Y241417D02*
X201348Y241417D01*
X210619Y241417D02*
X212933Y241417D01*
X320814Y241417D02*
X340216Y241417D01*
X96290Y241338D02*
X96297Y241377D01*
X13945Y241338D02*
X13939Y241377D01*
X200538Y241338D02*
X200690Y241417D01*
X117263Y241496D02*
X117263Y241496D01*
X200690Y241417D02*
X200758Y241456D01*
X96297Y241377D02*
X96299Y241456D01*
X13939Y241377D02*
X13937Y241456D01*
X127181Y241535D02*
X127228Y241535D01*
X137181Y241535D02*
X137228Y241535D01*
X147181Y241535D02*
X147228Y241535D01*
X157181Y241535D02*
X157228Y241535D01*
X200758Y241456D02*
X200805Y241496D01*
X117263Y239488D02*
X117263Y241496D01*
X119586Y239173D02*
X117263Y241496D01*
X164822Y239173D02*
X167181Y241535D01*
X159586Y239173D02*
X157228Y241535D01*
X154822Y239173D02*
X157181Y241535D01*
X149586Y239173D02*
X147228Y241535D01*
X144822Y239173D02*
X147181Y241535D01*
X139586Y239173D02*
X137228Y241535D01*
X134822Y239173D02*
X137181Y241535D01*
X129586Y239173D02*
X127228Y241535D01*
X124822Y239173D02*
X127181Y241535D01*
X167181Y241535D02*
X167208Y241574D01*
X167208Y241574D02*
X167229Y241614D01*
X200805Y241496D02*
X200923Y241614D01*
X200923Y241614D02*
X200970Y241653D01*
X167229Y241614D02*
X167244Y241653D01*
X200970Y241653D02*
X201031Y241692D01*
X167244Y241653D02*
X167255Y241692D01*
X203178Y233976D02*
X210895Y241692D01*
X201031Y241692D02*
X201099Y241732D01*
X167255Y241692D02*
X167261Y241732D01*
X201099Y241732D02*
X201146Y241771D01*
X210895Y241692D02*
X210988Y241771D01*
X210988Y241771D02*
X211024Y241811D01*
X201146Y241771D02*
X201181Y241811D01*
X167261Y241732D02*
X167263Y241811D01*
X211024Y241811D02*
X211051Y241850D01*
X201181Y241811D02*
X201210Y241850D01*
X211051Y241850D02*
X211072Y241889D01*
X320734Y241259D02*
X321056Y241889D01*
X2303Y241968D02*
X13937Y241968D01*
X96299Y241968D02*
X107145Y241968D01*
X167263Y241968D02*
X176240Y241968D01*
X201328Y241968D02*
X201900Y241968D01*
X211127Y241968D02*
X212933Y241968D01*
X321104Y241968D02*
X340216Y241968D01*
X321056Y241889D02*
X321083Y241929D01*
X321083Y241929D02*
X321104Y241968D01*
X211072Y241889D02*
X211127Y241968D01*
X321104Y241968D02*
X321119Y242007D01*
X211127Y241968D02*
X211160Y242007D01*
X321119Y242007D02*
X321130Y242047D01*
X211160Y242007D02*
X211317Y242165D01*
X211317Y242165D02*
X211344Y242204D01*
X211344Y242204D02*
X211403Y242322D01*
X211403Y242322D02*
X211443Y242401D01*
X2303Y242519D02*
X13937Y242519D01*
X96299Y242519D02*
X107145Y242519D01*
X167263Y242519D02*
X176240Y242519D01*
X201879Y242519D02*
X202451Y242519D01*
X211528Y242519D02*
X212933Y242519D01*
X321202Y242519D02*
X340216Y242519D01*
X211443Y242401D02*
X211581Y242598D01*
X211581Y242598D02*
X211602Y242637D01*
X211602Y242637D02*
X211631Y242716D01*
X211631Y242716D02*
X211684Y242874D01*
X211684Y242874D02*
X211725Y242952D01*
X211725Y242952D02*
X211752Y242992D01*
X321130Y242047D02*
X321277Y242992D01*
X2303Y243070D02*
X13937Y243070D01*
X96299Y243070D02*
X107145Y243070D01*
X167263Y243070D02*
X176240Y243070D01*
X202430Y243070D02*
X203002Y243070D01*
X211789Y243070D02*
X212933Y243070D01*
X321279Y243070D02*
X340216Y243070D01*
X211752Y242992D02*
X211773Y243031D01*
X211773Y243031D02*
X211789Y243070D01*
X321277Y242992D02*
X321279Y243070D01*
X211789Y243070D02*
X211799Y243110D01*
X211799Y243110D02*
X211835Y243346D01*
X211835Y243346D02*
X211897Y243543D01*
X2303Y243622D02*
X13937Y243622D01*
X96299Y243622D02*
X107145Y243622D01*
X167263Y243622D02*
X176240Y243622D01*
X202981Y243622D02*
X203553Y243622D01*
X211911Y243622D02*
X212933Y243622D01*
X321279Y243622D02*
X340216Y243622D01*
X211897Y243543D02*
X211911Y243622D01*
X211911Y243622D02*
X211913Y243700D01*
X211913Y243700D02*
X211915Y243858D01*
X211915Y243858D02*
X211946Y244055D01*
X2303Y244173D02*
X13937Y244173D01*
X96299Y244173D02*
X107145Y244173D01*
X167263Y244173D02*
X176240Y244173D01*
X203532Y244173D02*
X204104Y244173D01*
X211948Y244173D02*
X212933Y244173D01*
X321279Y244173D02*
X340216Y244173D01*
X211946Y244055D02*
X211948Y244133D01*
X173347Y244173D02*
X173741Y244212D01*
X173148Y244173D02*
X172754Y244212D01*
X173741Y244212D02*
X173921Y244251D01*
X172754Y244212D02*
X172574Y244251D01*
X173921Y244251D02*
X174002Y244291D01*
X172574Y244251D02*
X172493Y244291D01*
X174002Y244291D02*
X174538Y244448D01*
X172493Y244291D02*
X171957Y244448D01*
X174538Y244448D02*
X174687Y244488D01*
X171957Y244448D02*
X171808Y244488D01*
X174687Y244488D02*
X174867Y244527D01*
X171808Y244488D02*
X171628Y244527D01*
X174867Y244527D02*
X174935Y244566D01*
X171628Y244527D02*
X171560Y244566D01*
X174935Y244566D02*
X175030Y244645D01*
X171560Y244566D02*
X171465Y244645D01*
X2303Y244724D02*
X13937Y244724D01*
X96299Y244724D02*
X107145Y244724D01*
X167263Y244724D02*
X171343Y244724D01*
X175152Y244724D02*
X176240Y244724D01*
X204084Y244724D02*
X204656Y244724D01*
X211948Y244724D02*
X212933Y244724D01*
X321279Y244724D02*
X340216Y244724D01*
X175030Y244645D02*
X175765Y245118D01*
X171465Y244645D02*
X170730Y245118D01*
X175765Y245118D02*
X175812Y245157D01*
X170730Y245118D02*
X170683Y245157D01*
X2303Y245275D02*
X13937Y245275D01*
X96299Y245275D02*
X107145Y245275D01*
X167263Y245275D02*
X170580Y245275D01*
X175915Y245275D02*
X176240Y245275D01*
X204635Y245275D02*
X205207Y245275D01*
X211948Y245275D02*
X212933Y245275D01*
X321279Y245275D02*
X340216Y245275D01*
X175812Y245157D02*
X175915Y245275D01*
X170683Y245157D02*
X170580Y245275D01*
X199459Y239527D02*
X205364Y245433D01*
X205364Y245433D02*
X205374Y245472D01*
X176223Y245629D02*
X176240Y245629D01*
X175915Y245275D02*
X176223Y245629D01*
X176240Y239527D02*
X176240Y245629D01*
X2303Y245826D02*
X13937Y245826D01*
X96299Y245826D02*
X107145Y245826D01*
X167263Y245826D02*
X170102Y245826D01*
X205186Y245826D02*
X205374Y245826D01*
X211948Y245826D02*
X212941Y245826D01*
X321279Y245826D02*
X340216Y245826D01*
X212933Y240354D02*
X212935Y245787D01*
X212935Y245787D02*
X212941Y245826D01*
X212941Y245826D02*
X212952Y245866D01*
X212952Y245866D02*
X212967Y245905D01*
X205343Y245984D02*
X205374Y245984D01*
X212967Y245905D02*
X212988Y245944D01*
X170580Y245275D02*
X170001Y245944D01*
X212988Y245944D02*
X213015Y245984D01*
X170001Y245944D02*
X169974Y245984D01*
X205374Y245472D02*
X205374Y245984D01*
X201210Y241850D02*
X205343Y245984D01*
X213015Y245984D02*
X213090Y246062D01*
X169974Y245984D02*
X169935Y246062D01*
X314192Y246338D02*
X314704Y246338D01*
X2303Y246377D02*
X13937Y246377D01*
X96299Y246377D02*
X107145Y246377D01*
X167263Y246377D02*
X169791Y246377D01*
X211948Y246377D02*
X213405Y246377D01*
X314153Y246377D02*
X314704Y246377D01*
X321279Y246377D02*
X340216Y246377D01*
X167263Y241811D02*
X167261Y246456D01*
X167261Y246456D02*
X167255Y246496D01*
X167255Y246496D02*
X167244Y246535D01*
X167244Y246535D02*
X167229Y246574D01*
X127181Y246653D02*
X127228Y246653D01*
X137181Y246653D02*
X137228Y246653D01*
X157181Y246653D02*
X157228Y246653D01*
X167229Y246574D02*
X167208Y246614D01*
X167208Y246614D02*
X167181Y246653D01*
X223759Y246771D02*
X223799Y246771D01*
X233759Y246771D02*
X233799Y246771D01*
X243759Y246771D02*
X243799Y246771D01*
X253759Y246771D02*
X253799Y246771D01*
X263759Y246771D02*
X263799Y246771D01*
X273759Y246771D02*
X273799Y246771D01*
X283759Y246771D02*
X283799Y246771D01*
X293759Y246771D02*
X293799Y246771D01*
X303759Y246771D02*
X303799Y246771D01*
X167181Y246653D02*
X167106Y246732D01*
X157228Y246653D02*
X157303Y246732D01*
X157181Y246653D02*
X157106Y246732D01*
X137228Y246653D02*
X137303Y246732D01*
X137181Y246653D02*
X137106Y246732D01*
X127228Y246653D02*
X127303Y246732D01*
X127181Y246653D02*
X127106Y246732D01*
X13937Y241456D02*
X13939Y246811D01*
X13939Y246811D02*
X13945Y246850D01*
X2303Y246929D02*
X13971Y246929D01*
X96299Y246929D02*
X107145Y246929D01*
X126909Y246929D02*
X127500Y246929D01*
X136909Y246929D02*
X137500Y246929D01*
X156909Y246929D02*
X157500Y246929D01*
X166909Y246929D02*
X169542Y246929D01*
X211948Y246929D02*
X213956Y246929D01*
X223602Y246929D02*
X223956Y246929D01*
X233602Y246929D02*
X233956Y246929D01*
X243602Y246929D02*
X243956Y246929D01*
X253602Y246929D02*
X253956Y246929D01*
X263602Y246929D02*
X263956Y246929D01*
X273602Y246929D02*
X273956Y246929D01*
X283602Y246929D02*
X283956Y246929D01*
X293602Y246929D02*
X293956Y246929D01*
X303602Y246929D02*
X303956Y246929D01*
X313602Y246929D02*
X314704Y246929D01*
X321279Y246929D02*
X340216Y246929D01*
X13945Y246850D02*
X13956Y246889D01*
X13956Y246889D02*
X13971Y246929D01*
X169935Y246062D02*
X169542Y246929D01*
X13971Y246929D02*
X13992Y246968D01*
X13992Y246968D02*
X14019Y247007D01*
X169542Y246929D02*
X169517Y247007D01*
X169015Y247086D02*
X169111Y247086D01*
X14019Y247007D02*
X14055Y247047D01*
X14055Y247047D02*
X14102Y247086D01*
X169517Y247007D02*
X169505Y247086D01*
X169015Y247086D02*
X168622Y247125D01*
X168622Y247125D02*
X168441Y247165D01*
X14102Y247086D02*
X14183Y247165D01*
X168441Y247165D02*
X168374Y247204D01*
X168374Y247204D02*
X168326Y247244D01*
X168326Y247244D02*
X168291Y247283D01*
X168291Y247283D02*
X168264Y247322D01*
X194898Y247401D02*
X197490Y247401D01*
X168264Y247322D02*
X168243Y247362D01*
X168243Y247362D02*
X168227Y247401D01*
X2303Y247480D02*
X14498Y247480D01*
X96299Y247480D02*
X107145Y247480D01*
X126358Y247480D02*
X128051Y247480D01*
X136358Y247480D02*
X138051Y247480D01*
X156358Y247480D02*
X158051Y247480D01*
X166358Y247480D02*
X168210Y247480D01*
X194776Y247480D02*
X197569Y247480D01*
X211948Y247480D02*
X214507Y247480D01*
X223051Y247480D02*
X224507Y247480D01*
X233051Y247480D02*
X234507Y247480D01*
X243051Y247480D02*
X244507Y247480D01*
X253051Y247480D02*
X254507Y247480D01*
X263051Y247480D02*
X264507Y247480D01*
X273051Y247480D02*
X274507Y247480D01*
X283051Y247480D02*
X284507Y247480D01*
X293051Y247480D02*
X294507Y247480D01*
X303051Y247480D02*
X304507Y247480D01*
X313051Y247480D02*
X314704Y247480D01*
X321279Y247480D02*
X340216Y247480D01*
X168227Y247401D02*
X168217Y247440D01*
X168217Y247440D02*
X168210Y247480D01*
X194898Y247401D02*
X194715Y247519D01*
X168210Y247480D02*
X168208Y247559D01*
X194715Y247519D02*
X194620Y247598D01*
X194620Y247598D02*
X194552Y247637D01*
X194552Y247637D02*
X194372Y247677D01*
X194372Y247677D02*
X194223Y247716D01*
X194223Y247716D02*
X193955Y247795D01*
X193955Y247795D02*
X193838Y247834D01*
X2303Y248031D02*
X15049Y248031D01*
X96299Y248031D02*
X107145Y248031D01*
X125807Y248031D02*
X128602Y248031D01*
X135807Y248031D02*
X138602Y248031D01*
X155807Y248031D02*
X158602Y248031D01*
X165807Y248031D02*
X168208Y248031D01*
X193838Y248031D02*
X198120Y248031D01*
X211948Y248031D02*
X215059Y248031D01*
X222499Y248031D02*
X225059Y248031D01*
X232499Y248031D02*
X235059Y248031D01*
X242499Y248031D02*
X245059Y248031D01*
X252499Y248031D02*
X255059Y248031D01*
X262499Y248031D02*
X265059Y248031D01*
X272499Y248031D02*
X275059Y248031D01*
X282499Y248031D02*
X285059Y248031D01*
X292499Y248031D02*
X295059Y248031D01*
X302499Y248031D02*
X305059Y248031D01*
X312499Y248031D02*
X314704Y248031D01*
X321279Y248031D02*
X340216Y248031D01*
X14183Y247165D02*
X15049Y248031D01*
X303799Y246771D02*
X305059Y248031D01*
X303759Y246771D02*
X302499Y248031D01*
X293799Y246771D02*
X295059Y248031D01*
X293759Y246771D02*
X292499Y248031D01*
X283799Y246771D02*
X285059Y248031D01*
X283759Y246771D02*
X282499Y248031D01*
X273799Y246771D02*
X275059Y248031D01*
X273759Y246771D02*
X272499Y248031D01*
X263799Y246771D02*
X265059Y248031D01*
X263759Y246771D02*
X262499Y248031D01*
X253799Y246771D02*
X255059Y248031D01*
X253759Y246771D02*
X252499Y248031D01*
X243799Y246771D02*
X245059Y248031D01*
X243759Y246771D02*
X242499Y248031D01*
X233799Y246771D02*
X235059Y248031D01*
X233759Y246771D02*
X232499Y248031D01*
X223799Y246771D02*
X225059Y248031D01*
X223759Y246771D02*
X222499Y248031D01*
X314192Y246338D02*
X312499Y248031D01*
X213090Y246062D02*
X215059Y248031D01*
X137106Y246732D02*
X135492Y248346D01*
X127303Y246732D02*
X128917Y248346D01*
X2303Y248582D02*
X14498Y248582D01*
X96299Y248582D02*
X107145Y248582D01*
X125255Y248582D02*
X128917Y248582D01*
X135492Y248582D02*
X139153Y248582D01*
X155255Y248582D02*
X159153Y248582D01*
X165255Y248582D02*
X168208Y248582D01*
X193838Y248582D02*
X198671Y248582D01*
X211948Y248582D02*
X214507Y248582D01*
X223051Y248582D02*
X224507Y248582D01*
X233051Y248582D02*
X234507Y248582D01*
X243051Y248582D02*
X244507Y248582D01*
X253051Y248582D02*
X254507Y248582D01*
X263051Y248582D02*
X264507Y248582D01*
X273051Y248582D02*
X274507Y248582D01*
X283051Y248582D02*
X284507Y248582D01*
X293051Y248582D02*
X294507Y248582D01*
X303051Y248582D02*
X304507Y248582D01*
X313051Y248582D02*
X314704Y248582D01*
X321279Y248582D02*
X340216Y248582D01*
X107145Y239488D02*
X107147Y248779D01*
X107147Y248779D02*
X107154Y248818D01*
X107154Y248818D02*
X107164Y248858D01*
X107164Y248858D02*
X107180Y248897D01*
X107180Y248897D02*
X107201Y248937D01*
X107201Y248937D02*
X107228Y248976D01*
X15049Y248031D02*
X14102Y248976D01*
X107228Y248976D02*
X107263Y249015D01*
X14102Y248976D02*
X14055Y249015D01*
X167106Y246732D02*
X164822Y249015D01*
X157303Y246732D02*
X159586Y249015D01*
X157106Y246732D02*
X154822Y249015D01*
X137303Y246732D02*
X139586Y249015D01*
X127106Y246732D02*
X124822Y249015D01*
X164822Y249015D02*
X164775Y249055D01*
X159586Y249015D02*
X159633Y249055D01*
X154822Y249015D02*
X154775Y249055D01*
X139586Y249015D02*
X139633Y249055D01*
X124822Y249015D02*
X124775Y249055D01*
X107263Y249015D02*
X107311Y249055D01*
X14055Y249015D02*
X14019Y249055D01*
X2303Y249133D02*
X13971Y249133D01*
X96299Y249133D02*
X107559Y249133D01*
X124527Y249133D02*
X128917Y249133D01*
X135492Y249133D02*
X139881Y249133D01*
X154527Y249133D02*
X159881Y249133D01*
X164527Y249133D02*
X168208Y249133D01*
X193838Y249133D02*
X199222Y249133D01*
X211948Y249133D02*
X213956Y249133D01*
X223602Y249133D02*
X223956Y249133D01*
X233602Y249133D02*
X233956Y249133D01*
X243602Y249133D02*
X243956Y249133D01*
X253602Y249133D02*
X253956Y249133D01*
X263602Y249133D02*
X263956Y249133D01*
X273602Y249133D02*
X273956Y249133D01*
X283602Y249133D02*
X283956Y249133D01*
X293602Y249133D02*
X293956Y249133D01*
X303602Y249133D02*
X303956Y249133D01*
X313602Y249133D02*
X314704Y249133D01*
X321279Y249133D02*
X340216Y249133D01*
X164775Y249055D02*
X164707Y249094D01*
X159633Y249055D02*
X159701Y249094D01*
X154775Y249055D02*
X154707Y249094D01*
X139633Y249055D02*
X139701Y249094D01*
X124775Y249055D02*
X124707Y249094D01*
X107311Y249055D02*
X107378Y249094D01*
X14019Y249055D02*
X13992Y249094D01*
X107952Y249173D02*
X112097Y249173D01*
X122154Y249173D02*
X124133Y249173D01*
X140275Y249173D02*
X142097Y249173D01*
X152154Y249173D02*
X154133Y249173D01*
X160275Y249173D02*
X164133Y249173D01*
X164707Y249094D02*
X164527Y249133D01*
X159701Y249094D02*
X159881Y249133D01*
X154707Y249094D02*
X154527Y249133D01*
X139701Y249094D02*
X139881Y249133D01*
X124707Y249094D02*
X124527Y249133D01*
X107378Y249094D02*
X107559Y249133D01*
X13992Y249094D02*
X13971Y249133D01*
X164527Y249133D02*
X164133Y249173D01*
X159881Y249133D02*
X160275Y249173D01*
X154527Y249133D02*
X154133Y249173D01*
X139881Y249133D02*
X140275Y249173D01*
X124527Y249133D02*
X124133Y249173D01*
X107559Y249133D02*
X107952Y249173D01*
X13971Y249133D02*
X13956Y249173D01*
X13956Y249173D02*
X13945Y249212D01*
X223759Y249291D02*
X223799Y249291D01*
X233759Y249291D02*
X233799Y249291D01*
X243759Y249291D02*
X243799Y249291D01*
X253759Y249291D02*
X253799Y249291D01*
X263759Y249291D02*
X263799Y249291D01*
X273759Y249291D02*
X273799Y249291D01*
X283759Y249291D02*
X283799Y249291D01*
X293759Y249291D02*
X293799Y249291D01*
X303759Y249291D02*
X303799Y249291D01*
X13945Y249212D02*
X13939Y249251D01*
X305059Y248031D02*
X303799Y249291D01*
X302499Y248031D02*
X303759Y249291D01*
X295059Y248031D02*
X293799Y249291D01*
X292499Y248031D02*
X293759Y249291D01*
X285059Y248031D02*
X283799Y249291D01*
X282499Y248031D02*
X283759Y249291D01*
X275059Y248031D02*
X273799Y249291D01*
X272499Y248031D02*
X273759Y249291D01*
X265059Y248031D02*
X263799Y249291D01*
X262499Y248031D02*
X263759Y249291D01*
X255059Y248031D02*
X253799Y249291D01*
X252499Y248031D02*
X253759Y249291D01*
X245059Y248031D02*
X243799Y249291D01*
X242499Y248031D02*
X243759Y249291D01*
X235059Y248031D02*
X233799Y249291D01*
X232499Y248031D02*
X233759Y249291D01*
X225059Y248031D02*
X223799Y249291D01*
X222499Y248031D02*
X223759Y249291D01*
X13939Y249251D02*
X13937Y249330D01*
X2303Y249685D02*
X13937Y249685D01*
X96299Y249685D02*
X111978Y249685D01*
X121249Y249685D02*
X128917Y249685D01*
X135492Y249685D02*
X141978Y249685D01*
X151249Y249685D02*
X168208Y249685D01*
X193838Y249685D02*
X199774Y249685D01*
X211948Y249685D02*
X213405Y249685D01*
X314153Y249685D02*
X314704Y249685D01*
X321279Y249685D02*
X340216Y249685D01*
X314192Y249724D02*
X314704Y249724D01*
X312499Y248031D02*
X314192Y249724D01*
X314704Y246338D02*
X314704Y249724D01*
X215059Y248031D02*
X213015Y250078D01*
X213015Y250078D02*
X212988Y250118D01*
X212988Y250118D02*
X212967Y250157D01*
X2303Y250236D02*
X13937Y250236D01*
X96299Y250236D02*
X111427Y250236D01*
X120698Y250236D02*
X128917Y250236D01*
X135492Y250236D02*
X141427Y250236D01*
X150698Y250236D02*
X168208Y250236D01*
X193838Y250236D02*
X200325Y250236D01*
X211948Y250236D02*
X212941Y250236D01*
X321279Y250236D02*
X340216Y250236D01*
X212967Y250157D02*
X212952Y250196D01*
X212952Y250196D02*
X212941Y250236D01*
X212941Y250236D02*
X212935Y250275D01*
X137323Y250236D02*
X137717Y250275D01*
X137125Y250236D02*
X136731Y250275D01*
X137717Y250275D02*
X137897Y250314D01*
X136731Y250275D02*
X136551Y250314D01*
X137897Y250314D02*
X137978Y250354D01*
X136551Y250314D02*
X136470Y250354D01*
X212935Y250275D02*
X212933Y250354D01*
X137978Y250354D02*
X138514Y250511D01*
X136470Y250354D02*
X135933Y250511D01*
X138514Y250511D02*
X138663Y250551D01*
X135933Y250511D02*
X135785Y250551D01*
X135492Y250629D02*
X135537Y250629D01*
X138663Y250551D02*
X138843Y250590D01*
X135785Y250551D02*
X135604Y250590D01*
X138843Y250590D02*
X138911Y250629D01*
X135604Y250590D02*
X135537Y250629D01*
X135492Y248346D02*
X135492Y250629D01*
X138911Y250629D02*
X139006Y250708D01*
X2303Y250787D02*
X13937Y250787D01*
X96299Y250787D02*
X110876Y250787D01*
X120147Y250787D02*
X128917Y250787D01*
X139128Y250787D02*
X140876Y250787D01*
X150147Y250787D02*
X168208Y250787D01*
X193838Y250787D02*
X200876Y250787D01*
X211948Y250787D02*
X212933Y250787D01*
X321279Y250787D02*
X340216Y250787D01*
X139006Y250708D02*
X139128Y250787D01*
X142490Y249173D02*
X140876Y250787D01*
X2303Y251338D02*
X13937Y251338D01*
X96299Y251338D02*
X110325Y251338D01*
X119595Y251338D02*
X128917Y251338D01*
X149595Y251338D02*
X168208Y251338D01*
X193838Y251338D02*
X201427Y251338D01*
X211948Y251338D02*
X212933Y251338D01*
X321279Y251338D02*
X340216Y251338D01*
X197490Y247401D02*
X201427Y251338D01*
X201427Y251338D02*
X201437Y251377D01*
X2303Y251889D02*
X13937Y251889D01*
X96299Y251889D02*
X109774Y251889D01*
X119044Y251889D02*
X128917Y251889D01*
X149044Y251889D02*
X168208Y251889D01*
X193838Y251889D02*
X201437Y251889D01*
X211948Y251889D02*
X212933Y251889D01*
X321279Y251889D02*
X340216Y251889D01*
X2303Y252440D02*
X13937Y252440D01*
X96299Y252440D02*
X109222Y252440D01*
X118493Y252440D02*
X128917Y252440D01*
X148493Y252440D02*
X168208Y252440D01*
X193838Y252440D02*
X201437Y252440D01*
X211948Y252440D02*
X212933Y252440D01*
X321279Y252440D02*
X340216Y252440D01*
X2303Y252992D02*
X13937Y252992D01*
X96299Y252992D02*
X108671Y252992D01*
X117942Y252992D02*
X128917Y252992D01*
X147942Y252992D02*
X168208Y252992D01*
X193838Y252992D02*
X201437Y252992D01*
X211948Y252992D02*
X212933Y252992D01*
X321279Y252992D02*
X340216Y252992D01*
X321279Y243070D02*
X321277Y253070D01*
X2303Y253543D02*
X13937Y253543D01*
X96299Y253543D02*
X108120Y253543D01*
X117391Y253543D02*
X128917Y253543D01*
X147391Y253543D02*
X168208Y253543D01*
X193838Y253543D02*
X201437Y253543D01*
X211948Y253543D02*
X212933Y253543D01*
X321202Y253543D02*
X340216Y253543D01*
X2303Y254094D02*
X13937Y254094D01*
X96299Y254094D02*
X107569Y254094D01*
X116840Y254094D02*
X128917Y254094D01*
X146840Y254094D02*
X168208Y254094D01*
X193838Y254094D02*
X201437Y254094D01*
X211948Y254094D02*
X212933Y254094D01*
X321104Y254094D02*
X340216Y254094D01*
X321277Y253070D02*
X321119Y254055D01*
X321119Y254055D02*
X321104Y254094D01*
X321104Y254094D02*
X321083Y254133D01*
X321083Y254133D02*
X321056Y254173D01*
X321056Y254173D02*
X320955Y254370D01*
X2303Y254645D02*
X13937Y254645D01*
X96299Y254645D02*
X107018Y254645D01*
X116288Y254645D02*
X128917Y254645D01*
X146288Y254645D02*
X168208Y254645D01*
X193838Y254645D02*
X201437Y254645D01*
X211948Y254645D02*
X212933Y254645D01*
X320814Y254645D02*
X340216Y254645D01*
X13937Y249330D02*
X13939Y254685D01*
X13939Y254685D02*
X13945Y254724D01*
X13945Y254724D02*
X13956Y254763D01*
X13956Y254763D02*
X13971Y254803D01*
X13971Y254803D02*
X13992Y254842D01*
X13992Y254842D02*
X14019Y254881D01*
X14019Y254881D02*
X14055Y254921D01*
X320955Y254370D02*
X320675Y254921D01*
X320675Y254921D02*
X320647Y254960D01*
X14055Y254921D02*
X14102Y254960D01*
X320647Y254960D02*
X320612Y255000D01*
X14102Y254960D02*
X14183Y255039D01*
X320612Y255000D02*
X320530Y255078D01*
X2303Y255196D02*
X14340Y255196D01*
X96299Y255196D02*
X106467Y255196D01*
X115737Y255196D02*
X128917Y255196D01*
X145737Y255196D02*
X168208Y255196D01*
X193838Y255196D02*
X201437Y255196D01*
X211948Y255196D02*
X212933Y255196D01*
X320412Y255196D02*
X340216Y255196D01*
X320530Y255078D02*
X319978Y255629D01*
X319978Y255629D02*
X319931Y255669D01*
X2303Y255748D02*
X14891Y255748D01*
X96299Y255748D02*
X105915Y255748D01*
X115186Y255748D02*
X128917Y255748D01*
X145186Y255748D02*
X168208Y255748D01*
X193838Y255748D02*
X201437Y255748D01*
X211948Y255748D02*
X212933Y255748D01*
X319788Y255748D02*
X340216Y255748D01*
X319931Y255669D02*
X319863Y255708D01*
X319863Y255708D02*
X319711Y255787D01*
X212933Y250354D02*
X212935Y255787D01*
X212935Y255787D02*
X212941Y255826D01*
X212941Y255826D02*
X212952Y255866D01*
X212952Y255866D02*
X212967Y255905D01*
X340216Y19803D02*
X340212Y255905D01*
X2303Y19803D02*
X2306Y255905D01*
X212967Y255905D02*
X212988Y255944D01*
X212988Y255944D02*
X213015Y255984D01*
X213015Y255984D02*
X213090Y256062D01*
X319711Y255787D02*
X319093Y256102D01*
X319093Y256102D02*
X318918Y256141D01*
X318918Y256141D02*
X318737Y256181D01*
X2330Y256299D02*
X15442Y256299D01*
X96299Y256299D02*
X105364Y256299D01*
X114635Y256299D02*
X128917Y256299D01*
X144635Y256299D02*
X168208Y256299D01*
X193838Y256299D02*
X201437Y256299D01*
X211948Y256299D02*
X213326Y256299D01*
X317992Y256299D02*
X340188Y256299D01*
X314586Y256338D02*
X317598Y256338D01*
X318737Y256181D02*
X317992Y256299D01*
X317992Y256299D02*
X317598Y256338D01*
X151761Y249173D02*
X144595Y256338D01*
X144595Y256338D02*
X144567Y256377D01*
X144567Y256377D02*
X144532Y256417D01*
X144532Y256417D02*
X144484Y256456D01*
X144484Y256456D02*
X144417Y256496D01*
X211948Y244133D02*
X211948Y256496D01*
X211948Y256496D02*
X211958Y256535D01*
X144417Y256496D02*
X144355Y256535D01*
X23612Y256614D02*
X23631Y256614D01*
X31486Y256614D02*
X31505Y256614D01*
X39360Y256614D02*
X39379Y256614D01*
X55108Y256614D02*
X55128Y256614D01*
X70856Y256614D02*
X70876Y256614D01*
X78730Y256614D02*
X78750Y256614D01*
X144355Y256535D02*
X144309Y256574D01*
X144309Y256574D02*
X144191Y256692D01*
X223759Y256771D02*
X223799Y256771D01*
X233759Y256771D02*
X233799Y256771D01*
X243759Y256771D02*
X243799Y256771D01*
X253759Y256771D02*
X253799Y256771D01*
X263759Y256771D02*
X263799Y256771D01*
X273759Y256771D02*
X273799Y256771D01*
X283759Y256771D02*
X283799Y256771D01*
X293759Y256771D02*
X293799Y256771D01*
X303759Y256771D02*
X303799Y256771D01*
X144191Y256692D02*
X144144Y256732D01*
X144144Y256732D02*
X144076Y256771D01*
X2364Y256850D02*
X15994Y256850D01*
X23375Y256850D02*
X23868Y256850D01*
X31249Y256850D02*
X31742Y256850D01*
X39123Y256850D02*
X39616Y256850D01*
X54871Y256850D02*
X55364Y256850D01*
X70620Y256850D02*
X71112Y256850D01*
X78494Y256850D02*
X78986Y256850D01*
X96299Y256850D02*
X104813Y256850D01*
X114084Y256850D02*
X128917Y256850D01*
X143924Y256850D02*
X168208Y256850D01*
X193838Y256850D02*
X201437Y256850D01*
X212273Y256850D02*
X213878Y256850D01*
X223681Y256850D02*
X223878Y256850D01*
X233681Y256850D02*
X233878Y256850D01*
X243681Y256850D02*
X243878Y256850D01*
X253681Y256850D02*
X253878Y256850D01*
X263681Y256850D02*
X263878Y256850D01*
X273681Y256850D02*
X273878Y256850D01*
X283681Y256850D02*
X283878Y256850D01*
X293681Y256850D02*
X293878Y256850D01*
X303681Y256850D02*
X303878Y256850D01*
X313681Y256850D02*
X340155Y256850D01*
X144076Y256771D02*
X143924Y256850D01*
X143924Y256850D02*
X143759Y256968D01*
X143759Y256968D02*
X143692Y257007D01*
X143692Y257007D02*
X143573Y257047D01*
X143573Y257047D02*
X143460Y257086D01*
X143460Y257086D02*
X143306Y257165D01*
X143306Y257165D02*
X143130Y257204D01*
X143130Y257204D02*
X142967Y257244D01*
X142967Y257244D02*
X142846Y257283D01*
X142846Y257283D02*
X142666Y257322D01*
X2397Y257401D02*
X16545Y257401D01*
X22824Y257401D02*
X24419Y257401D01*
X30698Y257401D02*
X32293Y257401D01*
X38572Y257401D02*
X40167Y257401D01*
X54320Y257401D02*
X55915Y257401D01*
X70068Y257401D02*
X71663Y257401D01*
X77942Y257401D02*
X79537Y257401D01*
X96290Y257401D02*
X104262Y257401D01*
X113532Y257401D02*
X128917Y257401D01*
X139190Y257401D02*
X168208Y257401D01*
X193838Y257401D02*
X201437Y257401D01*
X212824Y257401D02*
X214429Y257401D01*
X223129Y257401D02*
X224429Y257401D01*
X233129Y257401D02*
X234429Y257401D01*
X243129Y257401D02*
X244429Y257401D01*
X253129Y257401D02*
X254429Y257401D01*
X263129Y257401D02*
X264429Y257401D01*
X273129Y257401D02*
X274429Y257401D01*
X283129Y257401D02*
X284429Y257401D01*
X293129Y257401D02*
X294429Y257401D01*
X303129Y257401D02*
X304429Y257401D01*
X313129Y257401D02*
X340122Y257401D01*
X142666Y257322D02*
X142272Y257362D01*
X96299Y241456D02*
X96297Y257362D01*
X142204Y257362D02*
X141811Y257401D01*
X96297Y257362D02*
X96290Y257401D01*
X96290Y257401D02*
X96280Y257440D01*
X96280Y257440D02*
X96264Y257480D01*
X96264Y257480D02*
X96243Y257519D01*
X139190Y257401D02*
X139006Y257519D01*
X78750Y256614D02*
X79651Y257519D01*
X78730Y256614D02*
X77828Y257519D01*
X70876Y256614D02*
X71777Y257519D01*
X70856Y256614D02*
X69954Y257519D01*
X55128Y256614D02*
X56029Y257519D01*
X55108Y256614D02*
X54206Y257519D01*
X39379Y256614D02*
X40281Y257519D01*
X39360Y256614D02*
X38458Y257519D01*
X31505Y256614D02*
X32407Y257519D01*
X31486Y256614D02*
X30584Y257519D01*
X23631Y256614D02*
X24533Y257519D01*
X23612Y256614D02*
X22710Y257519D01*
X14183Y255039D02*
X16659Y257519D01*
X135492Y257598D02*
X135537Y257598D01*
X96243Y257519D02*
X96216Y257559D01*
X79651Y257519D02*
X79679Y257559D01*
X77828Y257519D02*
X77801Y257559D01*
X71777Y257519D02*
X71805Y257559D01*
X69954Y257519D02*
X69927Y257559D01*
X56029Y257519D02*
X56057Y257559D01*
X54206Y257519D02*
X54179Y257559D01*
X40281Y257519D02*
X40309Y257559D01*
X38458Y257519D02*
X38431Y257559D01*
X32407Y257519D02*
X32435Y257559D01*
X30584Y257519D02*
X30557Y257559D01*
X24533Y257519D02*
X24561Y257559D01*
X22710Y257519D02*
X22683Y257559D01*
X16659Y257519D02*
X16687Y257559D01*
X96216Y257559D02*
X96181Y257598D01*
X79679Y257559D02*
X79714Y257598D01*
X77801Y257559D02*
X77765Y257598D01*
X71805Y257559D02*
X71840Y257598D01*
X69927Y257559D02*
X69891Y257598D01*
X56057Y257559D02*
X56092Y257598D01*
X54179Y257559D02*
X54143Y257598D01*
X40309Y257559D02*
X40344Y257598D01*
X38431Y257559D02*
X38395Y257598D01*
X32435Y257559D02*
X32470Y257598D01*
X30557Y257559D02*
X30521Y257598D01*
X24561Y257559D02*
X24596Y257598D01*
X22683Y257559D02*
X22647Y257598D01*
X16687Y257559D02*
X16722Y257598D01*
X139006Y257519D02*
X138911Y257598D01*
X138911Y257598D02*
X138843Y257637D01*
X135537Y257598D02*
X135604Y257637D01*
X96181Y257598D02*
X96133Y257637D01*
X79714Y257598D02*
X79761Y257637D01*
X77765Y257598D02*
X77718Y257637D01*
X71840Y257598D02*
X71887Y257637D01*
X69891Y257598D02*
X69844Y257637D01*
X56092Y257598D02*
X56139Y257637D01*
X54143Y257598D02*
X54096Y257637D01*
X40344Y257598D02*
X40391Y257637D01*
X38395Y257598D02*
X38348Y257637D01*
X32470Y257598D02*
X32517Y257637D01*
X30521Y257598D02*
X30474Y257637D01*
X24596Y257598D02*
X24643Y257637D01*
X22647Y257598D02*
X22600Y257637D01*
X16722Y257598D02*
X16769Y257637D01*
X138843Y257637D02*
X138663Y257677D01*
X135604Y257637D02*
X135785Y257677D01*
X96133Y257637D02*
X96066Y257677D01*
X79761Y257637D02*
X79829Y257677D01*
X77718Y257637D02*
X77650Y257677D01*
X71887Y257637D02*
X71955Y257677D01*
X69844Y257637D02*
X69776Y257677D01*
X56139Y257637D02*
X56207Y257677D01*
X54096Y257637D02*
X54028Y257677D01*
X40391Y257637D02*
X40459Y257677D01*
X38348Y257637D02*
X38280Y257677D01*
X32517Y257637D02*
X32585Y257677D01*
X30474Y257637D02*
X30406Y257677D01*
X24643Y257637D02*
X24711Y257677D01*
X22600Y257637D02*
X22532Y257677D01*
X16769Y257637D02*
X16837Y257677D01*
X17411Y257755D02*
X21958Y257755D01*
X25285Y257755D02*
X29832Y257755D01*
X33159Y257755D02*
X37706Y257755D01*
X41033Y257755D02*
X43674Y257755D01*
X56781Y257755D02*
X59403Y257755D01*
X72529Y257755D02*
X77076Y257755D01*
X80403Y257755D02*
X95492Y257755D01*
X138663Y257677D02*
X138515Y257716D01*
X135785Y257677D02*
X135933Y257716D01*
X96066Y257677D02*
X95885Y257716D01*
X79829Y257677D02*
X80009Y257716D01*
X77650Y257677D02*
X77470Y257716D01*
X71955Y257677D02*
X72135Y257716D01*
X69776Y257677D02*
X69596Y257716D01*
X56207Y257677D02*
X56387Y257716D01*
X54028Y257677D02*
X53848Y257716D01*
X40459Y257677D02*
X40639Y257716D01*
X38280Y257677D02*
X38100Y257716D01*
X32585Y257677D02*
X32765Y257716D01*
X30406Y257677D02*
X30226Y257716D01*
X24711Y257677D02*
X24891Y257716D01*
X22532Y257677D02*
X22352Y257716D01*
X16837Y257677D02*
X17017Y257716D01*
X95885Y257716D02*
X95492Y257755D01*
X80009Y257716D02*
X80403Y257755D01*
X77470Y257716D02*
X77076Y257755D01*
X72135Y257716D02*
X72529Y257755D01*
X69596Y257716D02*
X69202Y257755D01*
X56387Y257716D02*
X56781Y257755D01*
X53848Y257716D02*
X53454Y257755D01*
X40639Y257716D02*
X41033Y257755D01*
X38100Y257716D02*
X37706Y257755D01*
X32765Y257716D02*
X33159Y257755D01*
X30226Y257716D02*
X29832Y257755D01*
X24891Y257716D02*
X25285Y257755D01*
X22352Y257716D02*
X21958Y257755D01*
X17017Y257716D02*
X17411Y257755D01*
X273799Y256771D02*
X274862Y257834D01*
X274862Y257834D02*
X274892Y257874D01*
X138515Y257716D02*
X137978Y257874D01*
X135933Y257716D02*
X136470Y257874D01*
X2430Y257952D02*
X44265Y257952D01*
X53535Y257952D02*
X59993Y257952D01*
X69264Y257952D02*
X103711Y257952D01*
X112981Y257952D02*
X128917Y257952D01*
X135492Y257952D02*
X136731Y257952D01*
X137717Y257952D02*
X168208Y257952D01*
X193838Y257952D02*
X201437Y257952D01*
X213375Y257952D02*
X214980Y257952D01*
X222578Y257952D02*
X224980Y257952D01*
X232578Y257952D02*
X234980Y257952D01*
X242578Y257952D02*
X244980Y257952D01*
X252578Y257952D02*
X254980Y257952D01*
X262578Y257952D02*
X264971Y257952D01*
X272578Y257952D02*
X274813Y257952D01*
X282578Y257952D02*
X284980Y257952D01*
X292578Y257952D02*
X294980Y257952D01*
X302578Y257952D02*
X304980Y257952D01*
X312578Y257952D02*
X340088Y257952D01*
X137978Y257874D02*
X137897Y257913D01*
X136470Y257874D02*
X136551Y257913D01*
X263799Y256771D02*
X264941Y257913D01*
X137125Y257992D02*
X137323Y257992D01*
X264941Y257913D02*
X264971Y257952D01*
X137897Y257913D02*
X137717Y257952D01*
X136551Y257913D02*
X136731Y257952D01*
X137717Y257952D02*
X137323Y257992D01*
X136731Y257952D02*
X137125Y257992D01*
X340212Y255905D02*
X340080Y258031D01*
X2306Y255905D02*
X2439Y258031D01*
X2525Y258503D02*
X44816Y258503D01*
X54087Y258503D02*
X60545Y258503D01*
X69815Y258503D02*
X103159Y258503D01*
X112430Y258503D02*
X128917Y258503D01*
X135492Y258503D02*
X168208Y258503D01*
X193838Y258503D02*
X201437Y258503D01*
X213926Y258503D02*
X215531Y258503D01*
X222027Y258503D02*
X225531Y258503D01*
X232027Y258503D02*
X235531Y258503D01*
X242027Y258503D02*
X245531Y258503D01*
X252027Y258503D02*
X255531Y258503D01*
X262027Y258503D02*
X264419Y258503D01*
X272066Y258503D02*
X274262Y258503D01*
X282066Y258503D02*
X285531Y258503D01*
X292027Y258503D02*
X295531Y258503D01*
X302027Y258503D02*
X305531Y258503D01*
X312027Y258503D02*
X339994Y258503D01*
X283759Y256771D02*
X282066Y258464D01*
X273759Y256771D02*
X272066Y258464D01*
X264971Y257952D02*
X264419Y258503D01*
X263759Y256771D02*
X262027Y258503D01*
X253799Y256771D02*
X255531Y258503D01*
X253759Y256771D02*
X252027Y258503D01*
X243799Y256771D02*
X245531Y258503D01*
X243759Y256771D02*
X242027Y258503D01*
X233799Y256771D02*
X235531Y258503D01*
X233759Y256771D02*
X232027Y258503D01*
X223799Y256771D02*
X225531Y258503D01*
X223759Y256771D02*
X222027Y258503D01*
X211958Y256535D02*
X213926Y258503D01*
X213090Y256062D02*
X215531Y258503D01*
X282066Y258464D02*
X282064Y258661D01*
X303799Y256771D02*
X305767Y258740D01*
X303759Y256771D02*
X301791Y258740D01*
X293799Y256771D02*
X295767Y258740D01*
X293759Y256771D02*
X291791Y258740D01*
X283799Y256771D02*
X285767Y258740D01*
X314192Y256338D02*
X311791Y258740D01*
X311791Y258740D02*
X311744Y258779D01*
X305767Y258740D02*
X305814Y258779D01*
X301791Y258740D02*
X301744Y258779D01*
X295767Y258740D02*
X295814Y258779D01*
X291791Y258740D02*
X291744Y258779D01*
X285767Y258740D02*
X285814Y258779D01*
X311744Y258779D02*
X311676Y258818D01*
X305814Y258779D02*
X305882Y258818D01*
X301744Y258779D02*
X301676Y258818D01*
X295814Y258779D02*
X295882Y258818D01*
X291744Y258779D02*
X291676Y258818D01*
X285814Y258779D02*
X285882Y258818D01*
X272066Y258464D02*
X272064Y258818D01*
X286456Y258897D02*
X291102Y258897D01*
X296456Y258897D02*
X301102Y258897D01*
X306456Y258897D02*
X311102Y258897D01*
X311676Y258818D02*
X311496Y258858D01*
X305882Y258818D02*
X306062Y258858D01*
X301676Y258818D02*
X301496Y258858D01*
X295882Y258818D02*
X296062Y258858D01*
X291676Y258818D02*
X291496Y258858D01*
X285882Y258818D02*
X286062Y258858D01*
X282064Y258661D02*
X282033Y258858D01*
X311496Y258858D02*
X311102Y258897D01*
X306062Y258858D02*
X306456Y258897D01*
X301496Y258858D02*
X301102Y258897D01*
X296062Y258858D02*
X296456Y258897D01*
X291496Y258858D02*
X291102Y258897D01*
X286062Y258858D02*
X286456Y258897D01*
X282033Y258858D02*
X282031Y258937D01*
X2626Y259055D02*
X45367Y259055D01*
X54638Y259055D02*
X61096Y259055D01*
X70366Y259055D02*
X102608Y259055D01*
X111879Y259055D02*
X128917Y259055D01*
X135492Y259055D02*
X168208Y259055D01*
X193838Y259055D02*
X201437Y259055D01*
X272031Y259055D02*
X273711Y259055D01*
X282031Y259055D02*
X339893Y259055D01*
X272064Y258818D02*
X272033Y259015D01*
X272033Y259015D02*
X272031Y259094D01*
X282031Y258937D02*
X282029Y259094D01*
X282029Y259094D02*
X282015Y259173D01*
X282015Y259173D02*
X281992Y259251D01*
X272031Y259094D02*
X272029Y259251D01*
X272029Y259251D02*
X272015Y259330D01*
X281992Y259251D02*
X281953Y259370D01*
X272015Y259330D02*
X271992Y259409D01*
X271992Y259409D02*
X271953Y259527D01*
X281953Y259370D02*
X281927Y259527D01*
X2727Y259606D02*
X45918Y259606D01*
X55189Y259606D02*
X61647Y259606D01*
X70918Y259606D02*
X102057Y259606D01*
X111328Y259606D02*
X128917Y259606D01*
X135492Y259606D02*
X168208Y259606D01*
X193838Y259606D02*
X201437Y259606D01*
X271940Y259606D02*
X273159Y259606D01*
X281917Y259606D02*
X339792Y259606D01*
X281927Y259527D02*
X281917Y259606D01*
X281917Y259606D02*
X281907Y259645D01*
X281907Y259645D02*
X281891Y259685D01*
X271953Y259527D02*
X271927Y259685D01*
X281891Y259685D02*
X281870Y259724D01*
X281870Y259724D02*
X281843Y259763D01*
X271927Y259685D02*
X271917Y259763D01*
X271917Y259763D02*
X271907Y259803D01*
X271907Y259803D02*
X271891Y259842D01*
X281843Y259763D02*
X281802Y259842D01*
X271891Y259842D02*
X271870Y259881D01*
X201437Y251377D02*
X201439Y259881D01*
X271870Y259881D02*
X271843Y259921D01*
X281802Y259842D02*
X281774Y259921D01*
X271843Y259921D02*
X271802Y260000D01*
X271802Y260000D02*
X271774Y260078D01*
X281774Y259921D02*
X281720Y260078D01*
X201439Y259881D02*
X201470Y260078D01*
X340080Y258031D02*
X339704Y260078D01*
X2439Y258031D02*
X2814Y260078D01*
X2839Y260157D02*
X46470Y260157D01*
X55740Y260157D02*
X62198Y260157D01*
X71469Y260157D02*
X101506Y260157D01*
X110777Y260157D02*
X128917Y260157D01*
X135492Y260157D02*
X168208Y260157D01*
X193838Y260157D02*
X201472Y260157D01*
X271749Y260157D02*
X272608Y260157D01*
X281673Y260157D02*
X339680Y260157D01*
X281720Y260078D02*
X281700Y260118D01*
X201470Y260078D02*
X201472Y260157D01*
X281700Y260118D02*
X281617Y260236D01*
X271774Y260078D02*
X271720Y260236D01*
X271720Y260236D02*
X271700Y260275D01*
X281617Y260236D02*
X281561Y260314D01*
X201472Y260157D02*
X201474Y260314D01*
X201474Y260314D02*
X201488Y260393D01*
X271700Y260275D02*
X271617Y260393D01*
X271617Y260393D02*
X271561Y260472D01*
X201488Y260393D02*
X201511Y260472D01*
X281561Y260314D02*
X281462Y260511D01*
X281462Y260511D02*
X281435Y260551D01*
X281435Y260551D02*
X281399Y260590D01*
X201511Y260472D02*
X201550Y260590D01*
X3011Y260708D02*
X47021Y260708D01*
X56291Y260708D02*
X62749Y260708D01*
X72020Y260708D02*
X100955Y260708D01*
X110225Y260708D02*
X128917Y260708D01*
X135492Y260708D02*
X168208Y260708D01*
X193838Y260708D02*
X201570Y260708D01*
X271435Y260708D02*
X272057Y260708D01*
X281278Y260708D02*
X339508Y260708D01*
X281399Y260590D02*
X281317Y260669D01*
X271561Y260472D02*
X271462Y260669D01*
X281317Y260669D02*
X281278Y260708D01*
X271462Y260669D02*
X271435Y260708D01*
X271435Y260708D02*
X271399Y260748D01*
X201550Y260590D02*
X201576Y260748D01*
X281278Y260708D02*
X281217Y260787D01*
X281217Y260787D02*
X281190Y260826D01*
X271399Y260748D02*
X271317Y260826D01*
X201576Y260748D02*
X201586Y260826D01*
X281190Y260826D02*
X281169Y260866D01*
X271317Y260826D02*
X271278Y260866D01*
X201586Y260826D02*
X201596Y260866D01*
X281169Y260866D02*
X281142Y260905D01*
X201596Y260866D02*
X201612Y260905D01*
X281142Y260905D02*
X281106Y260944D01*
X201612Y260905D02*
X201633Y260944D01*
X271278Y260866D02*
X271217Y260944D01*
X271217Y260944D02*
X271190Y260984D01*
X201633Y260944D02*
X201660Y260984D01*
X271190Y260984D02*
X271169Y261023D01*
X281106Y260944D02*
X281013Y261023D01*
X271169Y261023D02*
X271142Y261062D01*
X201660Y260984D02*
X201701Y261062D01*
X271142Y261062D02*
X271106Y261102D01*
X201701Y261062D02*
X201729Y261141D01*
X271106Y261102D02*
X271013Y261181D01*
X3183Y261259D02*
X47572Y261259D01*
X56843Y261259D02*
X63301Y261259D01*
X72571Y261259D02*
X100404Y261259D01*
X109674Y261259D02*
X128917Y261259D01*
X135492Y261259D02*
X168208Y261259D01*
X193838Y261259D02*
X201767Y261259D01*
X270934Y261259D02*
X271506Y261259D01*
X280777Y261259D02*
X339336Y261259D01*
X201729Y261141D02*
X201782Y261299D01*
X201782Y261299D02*
X201803Y261338D01*
X201803Y261338D02*
X201886Y261456D01*
X201886Y261456D02*
X201942Y261535D01*
X201942Y261535D02*
X202041Y261732D01*
X3354Y261811D02*
X48123Y261811D01*
X57394Y261811D02*
X63852Y261811D01*
X73122Y261811D02*
X99852Y261811D01*
X109123Y261811D02*
X128917Y261811D01*
X135492Y261811D02*
X168208Y261811D01*
X193838Y261811D02*
X202104Y261811D01*
X270383Y261811D02*
X270955Y261811D01*
X280225Y261811D02*
X339164Y261811D01*
X202041Y261732D02*
X202068Y261771D01*
X202068Y261771D02*
X202104Y261811D01*
X91810Y261889D02*
X92008Y261889D01*
X202104Y261811D02*
X202186Y261889D01*
X202186Y261889D02*
X202225Y261929D01*
X92008Y261889D02*
X92402Y261929D01*
X91810Y261889D02*
X91416Y261929D01*
X92402Y261929D02*
X92582Y261968D01*
X91416Y261929D02*
X91236Y261968D01*
X92582Y261968D02*
X92663Y262007D01*
X91236Y261968D02*
X91155Y262007D01*
X202225Y261929D02*
X202286Y262007D01*
X202286Y262007D02*
X202313Y262047D01*
X202313Y262047D02*
X202334Y262086D01*
X339704Y260078D02*
X339078Y262086D01*
X2814Y260078D02*
X3441Y262086D01*
X202334Y262086D02*
X202361Y262125D01*
X202361Y262125D02*
X202396Y262165D01*
X92663Y262007D02*
X93200Y262165D01*
X91155Y262007D02*
X90618Y262165D01*
X93200Y262165D02*
X93348Y262204D01*
X90618Y262165D02*
X90470Y262204D01*
X93348Y262204D02*
X93528Y262244D01*
X90470Y262204D02*
X90290Y262244D01*
X202396Y262165D02*
X202490Y262244D01*
X93528Y262244D02*
X93596Y262283D01*
X90290Y262244D02*
X90222Y262283D01*
X3565Y262362D02*
X48674Y262362D01*
X57945Y262362D02*
X64403Y262362D01*
X73673Y262362D02*
X90127Y262362D01*
X93691Y262362D02*
X99301Y262362D01*
X108572Y262362D02*
X128917Y262362D01*
X135492Y262362D02*
X168208Y262362D01*
X193838Y262362D02*
X202608Y262362D01*
X269832Y262362D02*
X270404Y262362D01*
X279674Y262362D02*
X338954Y262362D01*
X93596Y262283D02*
X93691Y262362D01*
X90222Y262283D02*
X90127Y262362D01*
X73752Y262440D02*
X90004Y262440D01*
X269753Y262440D02*
X270325Y262440D01*
X90127Y262362D02*
X90004Y262440D01*
X271013Y261181D02*
X269753Y262440D01*
X274892Y257874D02*
X270325Y262440D01*
X69067Y257755D02*
X73752Y262440D01*
X93691Y262362D02*
X94426Y262834D01*
X3813Y262913D02*
X49226Y262913D01*
X58496Y262913D02*
X64954Y262913D01*
X94509Y262913D02*
X98750Y262913D01*
X108021Y262913D02*
X128917Y262913D01*
X135492Y262913D02*
X168208Y262913D01*
X193838Y262913D02*
X203159Y262913D01*
X279123Y262913D02*
X338706Y262913D01*
X94426Y262834D02*
X94473Y262874D01*
X94473Y262874D02*
X94577Y262992D01*
X128917Y248346D02*
X128917Y263346D01*
X128917Y263346D02*
X128900Y263385D01*
X4061Y263464D02*
X49777Y263464D01*
X59047Y263464D02*
X65505Y263464D01*
X94986Y263464D02*
X98199Y263464D01*
X107469Y263464D02*
X128832Y263464D01*
X135492Y263464D02*
X168208Y263464D01*
X193838Y263464D02*
X203711Y263464D01*
X278572Y263464D02*
X338457Y263464D01*
X128900Y263385D02*
X128662Y263661D01*
X94577Y262992D02*
X95156Y263661D01*
X128662Y263661D02*
X128635Y263700D01*
X95156Y263661D02*
X95183Y263700D01*
X128635Y263700D02*
X128596Y263779D01*
X95183Y263700D02*
X95222Y263779D01*
X4312Y264015D02*
X50328Y264015D01*
X59598Y264015D02*
X66056Y264015D01*
X95330Y264015D02*
X97648Y264015D01*
X106918Y264015D02*
X128488Y264015D01*
X135492Y264015D02*
X168208Y264015D01*
X193838Y264015D02*
X204262Y264015D01*
X278021Y264015D02*
X338207Y264015D01*
X339078Y262086D02*
X338207Y264015D01*
X3441Y262086D02*
X4312Y264015D01*
X168208Y247559D02*
X168210Y264330D01*
X168210Y264330D02*
X168217Y264370D01*
X135492Y257598D02*
X135492Y264370D01*
X168217Y264370D02*
X168227Y264409D01*
X168227Y264409D02*
X168243Y264448D01*
X168243Y264448D02*
X168264Y264488D01*
X193838Y247834D02*
X193836Y264488D01*
X4645Y264566D02*
X50879Y264566D01*
X60150Y264566D02*
X66608Y264566D01*
X95581Y264566D02*
X97097Y264566D01*
X106367Y264566D02*
X128237Y264566D01*
X135581Y264566D02*
X168326Y264566D01*
X193819Y264566D02*
X204813Y264566D01*
X277469Y264566D02*
X337873Y264566D01*
X193836Y264488D02*
X193830Y264527D01*
X168264Y264488D02*
X168291Y264527D01*
X193830Y264527D02*
X193819Y264566D01*
X168291Y264527D02*
X168326Y264566D01*
X193819Y264566D02*
X193804Y264606D01*
X168326Y264566D02*
X168374Y264606D01*
X193804Y264606D02*
X193783Y264645D01*
X168374Y264606D02*
X168441Y264645D01*
X135492Y264370D02*
X135615Y264645D01*
X128596Y263779D02*
X128203Y264645D01*
X95222Y263779D02*
X95615Y264645D01*
X169015Y264724D02*
X169105Y264724D01*
X193783Y264645D02*
X193755Y264685D01*
X168441Y264645D02*
X168622Y264685D01*
X193755Y264685D02*
X193720Y264724D01*
X168622Y264685D02*
X169015Y264724D01*
X135615Y264645D02*
X135640Y264724D01*
X128203Y264645D02*
X128178Y264724D01*
X95615Y264645D02*
X95640Y264724D01*
X193720Y264724D02*
X193673Y264763D01*
X185019Y264842D02*
X185059Y264842D01*
X193673Y264763D02*
X193605Y264803D01*
X179359Y264881D02*
X184625Y264881D01*
X185452Y264881D02*
X193031Y264881D01*
X193605Y264803D02*
X193425Y264842D01*
X169499Y264724D02*
X169517Y264842D01*
X193425Y264842D02*
X193031Y264881D01*
X185059Y264842D02*
X185452Y264881D01*
X185019Y264842D02*
X184625Y264881D01*
X169517Y264842D02*
X169542Y264921D01*
X169542Y264921D02*
X169575Y265000D01*
X135640Y264724D02*
X135680Y265000D01*
X128178Y264724D02*
X128138Y265000D01*
X95640Y264724D02*
X95680Y265000D01*
X4979Y265118D02*
X51430Y265118D01*
X60701Y265118D02*
X67159Y265118D01*
X95697Y265118D02*
X96545Y265118D01*
X105816Y265118D02*
X128121Y265118D01*
X135697Y265118D02*
X169629Y265118D01*
X179202Y265118D02*
X205364Y265118D01*
X276918Y265118D02*
X337540Y265118D01*
X5312Y265669D02*
X51981Y265669D01*
X61252Y265669D02*
X67710Y265669D01*
X95776Y265669D02*
X95994Y265669D01*
X105265Y265669D02*
X128042Y265669D01*
X135776Y265669D02*
X169881Y265669D01*
X179753Y265669D02*
X205915Y265669D01*
X276367Y265669D02*
X337207Y265669D01*
X135680Y265000D02*
X135785Y265748D01*
X128138Y265000D02*
X128033Y265748D01*
X95680Y265000D02*
X95785Y265748D01*
X135785Y265748D02*
X135787Y265787D01*
X128033Y265748D02*
X128031Y265787D01*
X95785Y265748D02*
X95787Y265787D01*
X338207Y264015D02*
X337136Y265787D01*
X4312Y264015D02*
X5383Y265787D01*
X95779Y265866D02*
X95797Y265866D01*
X135787Y265787D02*
X135785Y265826D01*
X128031Y265787D02*
X128033Y265826D01*
X95787Y265787D02*
X95785Y265826D01*
X95785Y265826D02*
X95779Y265866D01*
X169575Y265000D02*
X169974Y265866D01*
X112490Y249173D02*
X95797Y265866D01*
X169974Y265866D02*
X170001Y265905D01*
X337136Y265787D02*
X337045Y265905D01*
X5383Y265787D02*
X5474Y265905D01*
X170001Y265905D02*
X170136Y266062D01*
X5721Y266220D02*
X52533Y266220D01*
X61803Y266220D02*
X68261Y266220D01*
X104714Y266220D02*
X128093Y266220D01*
X135725Y266220D02*
X170273Y266220D01*
X180304Y266220D02*
X206467Y266220D01*
X275816Y266220D02*
X336798Y266220D01*
X295Y266259D02*
X298Y266259D01*
X342220Y266259D02*
X342224Y266259D01*
X135785Y265826D02*
X135725Y266220D01*
X128033Y265826D02*
X128093Y266220D01*
X170136Y266062D02*
X170683Y266692D01*
X295Y266771D02*
X608Y266771D01*
X6153Y266771D02*
X53084Y266771D01*
X62354Y266771D02*
X68812Y266771D01*
X104162Y266771D02*
X128172Y266771D01*
X135646Y266771D02*
X170792Y266771D01*
X180855Y266771D02*
X207018Y266771D01*
X275265Y266771D02*
X336366Y266771D01*
X341911Y266771D02*
X342224Y266771D01*
X170683Y266692D02*
X170730Y266732D01*
X135725Y266220D02*
X135640Y266811D01*
X128093Y266220D02*
X128178Y266811D01*
X135640Y266811D02*
X135615Y266889D01*
X128178Y266811D02*
X128203Y266889D01*
X181091Y267007D02*
X207254Y267007D01*
X135615Y266889D02*
X135581Y266968D01*
X128203Y266889D02*
X128237Y266968D01*
X178965Y264881D02*
X181091Y267007D01*
X202490Y262244D02*
X207254Y267007D01*
X170730Y266732D02*
X171465Y267204D01*
X295Y267322D02*
X941Y267322D01*
X6585Y267322D02*
X53635Y267322D01*
X62906Y267322D02*
X69364Y267322D01*
X103611Y267322D02*
X128398Y267322D01*
X135420Y267322D02*
X171628Y267322D01*
X274714Y267322D02*
X335934Y267322D01*
X341578Y267322D02*
X342224Y267322D01*
X171465Y267204D02*
X171560Y267283D01*
X171560Y267283D02*
X171628Y267322D01*
X171628Y267322D02*
X171808Y267362D01*
X171808Y267362D02*
X171957Y267401D01*
X337045Y265905D02*
X335842Y267440D01*
X5474Y265905D02*
X6677Y267440D01*
X171957Y267401D02*
X172225Y267480D01*
X63142Y267559D02*
X69600Y267559D01*
X172225Y267480D02*
X172333Y267519D01*
X335842Y267440D02*
X335725Y267559D01*
X6677Y267440D02*
X6793Y267559D01*
X59797Y257755D02*
X69600Y267559D01*
X53339Y257755D02*
X63142Y267559D01*
X295Y267874D02*
X1274Y267874D01*
X7108Y267874D02*
X54186Y267874D01*
X103060Y267874D02*
X128662Y267874D01*
X135156Y267874D02*
X172687Y267874D01*
X274162Y267874D02*
X335410Y267874D01*
X341245Y267874D02*
X342224Y267874D01*
X135581Y266968D02*
X135183Y267834D01*
X128237Y266968D02*
X128635Y267834D01*
X135183Y267834D02*
X135156Y267874D01*
X128635Y267834D02*
X128662Y267874D01*
X281013Y261023D02*
X274044Y267992D01*
X274044Y267992D02*
X274016Y268031D01*
X135156Y267874D02*
X135020Y268031D01*
X128662Y267874D02*
X128798Y268031D01*
X274016Y268031D02*
X273980Y268070D01*
X273980Y268070D02*
X273933Y268110D01*
X273933Y268110D02*
X273865Y268149D01*
X273865Y268149D02*
X273804Y268188D01*
X273804Y268188D02*
X273758Y268228D01*
X342220Y266259D02*
X340983Y268307D01*
X298Y266259D02*
X1536Y268307D01*
X340983Y268307D02*
X340947Y268346D01*
X1536Y268307D02*
X1572Y268346D01*
X273758Y268228D02*
X273640Y268346D01*
X295Y268425D02*
X1618Y268425D01*
X7660Y268425D02*
X54737Y268425D01*
X102509Y268425D02*
X129139Y268425D01*
X134679Y268425D02*
X173238Y268425D01*
X273525Y268425D02*
X334859Y268425D01*
X340901Y268425D02*
X342224Y268425D01*
X340947Y268346D02*
X340917Y268385D01*
X273640Y268346D02*
X273593Y268385D01*
X1572Y268346D02*
X1602Y268385D01*
X340917Y268385D02*
X340901Y268425D01*
X273593Y268385D02*
X273525Y268425D01*
X1602Y268385D02*
X1618Y268425D01*
X340901Y268425D02*
X340880Y268464D01*
X1618Y268425D02*
X1638Y268464D01*
X340880Y268464D02*
X340853Y268503D01*
X1638Y268464D02*
X1666Y268503D01*
X273525Y268425D02*
X273372Y268503D01*
X340853Y268503D02*
X340749Y268622D01*
X273372Y268503D02*
X273208Y268622D01*
X1666Y268503D02*
X1770Y268622D01*
X273208Y268622D02*
X273140Y268661D01*
X135020Y268031D02*
X134473Y268661D01*
X128798Y268031D02*
X129345Y268661D01*
X273140Y268661D02*
X273022Y268700D01*
X134473Y268661D02*
X134426Y268700D01*
X129345Y268661D02*
X129392Y268700D01*
X273022Y268700D02*
X272909Y268740D01*
X272909Y268740D02*
X272754Y268818D01*
X272754Y268818D02*
X272579Y268858D01*
X272579Y268858D02*
X272416Y268897D01*
X295Y268976D02*
X2047Y268976D01*
X8222Y268976D02*
X55289Y268976D01*
X101958Y268976D02*
X129821Y268976D01*
X133997Y268976D02*
X173789Y268976D01*
X272115Y268976D02*
X334297Y268976D01*
X340472Y268976D02*
X342224Y268976D01*
X272416Y268897D02*
X272295Y268937D01*
X335725Y267559D02*
X334347Y268937D01*
X6793Y267559D02*
X8172Y268937D01*
X272295Y268937D02*
X272115Y268976D01*
X247377Y269055D02*
X271259Y269055D01*
X272115Y268976D02*
X271721Y269015D01*
X271653Y269015D02*
X271259Y269055D01*
X134426Y268700D02*
X133691Y269173D01*
X129392Y268700D02*
X130127Y269173D01*
X133691Y269173D02*
X133596Y269251D01*
X130127Y269173D02*
X130222Y269251D01*
X246983Y269055D02*
X247074Y269251D01*
X247074Y269251D02*
X247085Y269291D01*
X133596Y269251D02*
X133528Y269291D01*
X130222Y269251D02*
X130290Y269291D01*
X133528Y269291D02*
X133348Y269330D01*
X130290Y269291D02*
X130470Y269330D01*
X133348Y269330D02*
X133200Y269370D01*
X130470Y269330D02*
X130618Y269370D01*
X295Y269527D02*
X2479Y269527D01*
X8925Y269527D02*
X55840Y269527D01*
X101406Y269527D02*
X131155Y269527D01*
X132663Y269527D02*
X174341Y269527D01*
X247118Y269527D02*
X333593Y269527D01*
X340040Y269527D02*
X342224Y269527D01*
X247085Y269291D02*
X247113Y269488D01*
X133200Y269370D02*
X132663Y269527D01*
X130618Y269370D02*
X131155Y269527D01*
X132663Y269527D02*
X132582Y269566D01*
X131155Y269527D02*
X131236Y269566D01*
X131810Y269645D02*
X132008Y269645D01*
X132582Y269566D02*
X132402Y269606D01*
X131236Y269566D02*
X131416Y269606D01*
X132402Y269606D02*
X132008Y269645D01*
X131416Y269606D02*
X131810Y269645D01*
X295Y270078D02*
X2911Y270078D01*
X9629Y270078D02*
X56391Y270078D01*
X100855Y270078D02*
X174892Y270078D01*
X247198Y270078D02*
X332890Y270078D01*
X339608Y270078D02*
X342224Y270078D01*
X334347Y268937D02*
X332688Y270236D01*
X8172Y268937D02*
X9831Y270236D01*
X247113Y269488D02*
X247234Y270354D01*
X340749Y268622D02*
X339392Y270354D01*
X1770Y268622D02*
X3127Y270354D01*
X339392Y270354D02*
X339356Y270393D01*
X3127Y270354D02*
X3162Y270393D01*
X339356Y270393D02*
X339313Y270433D01*
X3162Y270393D02*
X3206Y270433D01*
X247234Y270354D02*
X247226Y270433D01*
X339313Y270433D02*
X339284Y270472D01*
X3206Y270433D02*
X3235Y270472D01*
X339284Y270472D02*
X339263Y270511D01*
X3235Y270472D02*
X3256Y270511D01*
X339263Y270511D02*
X339236Y270551D01*
X3256Y270511D02*
X3283Y270551D01*
X295Y270629D02*
X3366Y270629D01*
X10482Y270629D02*
X56942Y270629D01*
X100304Y270629D02*
X175443Y270629D01*
X247198Y270629D02*
X332036Y270629D01*
X339153Y270629D02*
X342224Y270629D01*
X339236Y270551D02*
X339200Y270590D01*
X3283Y270551D02*
X3319Y270590D01*
X339200Y270590D02*
X339153Y270629D01*
X3319Y270590D02*
X3366Y270629D01*
X339153Y270629D02*
X339102Y270669D01*
X3366Y270629D02*
X3417Y270669D01*
X295Y271181D02*
X3929Y271181D01*
X11394Y271181D02*
X57493Y271181D01*
X99753Y271181D02*
X175994Y271181D01*
X247118Y271181D02*
X331125Y271181D01*
X338590Y271181D02*
X342224Y271181D01*
X332688Y270236D02*
X330929Y271299D01*
X9831Y270236D02*
X11590Y271299D01*
X330929Y271299D02*
X330848Y271338D01*
X11590Y271299D02*
X11671Y271338D01*
X247226Y270433D02*
X247085Y271417D01*
X247085Y271417D02*
X247074Y271456D01*
X247074Y271456D02*
X247059Y271496D01*
X247059Y271496D02*
X247019Y271574D01*
X295Y271732D02*
X4480Y271732D01*
X12546Y271732D02*
X58044Y271732D01*
X99202Y271732D02*
X176545Y271732D01*
X246947Y271732D02*
X329973Y271732D01*
X338039Y271732D02*
X342224Y271732D01*
X330848Y271338D02*
X329011Y272165D01*
X11671Y271338D02*
X13508Y272165D01*
X329011Y272165D02*
X328906Y272204D01*
X13508Y272165D02*
X13613Y272204D01*
X295Y272283D02*
X5039Y272283D01*
X13866Y272283D02*
X58596Y272283D01*
X98651Y272283D02*
X177097Y272283D01*
X246696Y272283D02*
X328653Y272283D01*
X337480Y272283D02*
X342224Y272283D01*
X339102Y270669D02*
X337527Y272244D01*
X3417Y270669D02*
X4992Y272244D01*
X337527Y272244D02*
X337480Y272283D01*
X4992Y272244D02*
X5039Y272283D01*
X337480Y272283D02*
X337425Y272322D01*
X5039Y272283D02*
X5094Y272322D01*
X247019Y271574D02*
X246678Y272322D01*
X337425Y272322D02*
X337385Y272362D01*
X337385Y272362D02*
X337350Y272401D01*
X246678Y272322D02*
X246649Y272401D01*
X246649Y272401D02*
X246628Y272440D01*
X5094Y272322D02*
X5216Y272440D01*
X246628Y272440D02*
X246601Y272480D01*
X337350Y272401D02*
X337253Y272480D01*
X246601Y272480D02*
X246566Y272519D01*
X246566Y272519D02*
X246518Y272559D01*
X172333Y267519D02*
X177451Y272637D01*
X177451Y272637D02*
X177498Y272677D01*
X5216Y272440D02*
X5517Y272677D01*
X295Y272834D02*
X5718Y272834D01*
X15689Y272834D02*
X59147Y272834D01*
X98099Y272834D02*
X177698Y272834D01*
X246280Y272834D02*
X326830Y272834D01*
X336801Y272834D02*
X342224Y272834D01*
X177498Y272677D02*
X177658Y272795D01*
X328906Y272204D02*
X327010Y272795D01*
X13613Y272204D02*
X15508Y272795D01*
X327010Y272795D02*
X326830Y272834D01*
X15508Y272795D02*
X15689Y272834D01*
X177658Y272795D02*
X177736Y272874D01*
X177736Y272874D02*
X177763Y272913D01*
X177763Y272913D02*
X177798Y272952D01*
X177798Y272952D02*
X177846Y272992D01*
X177846Y272992D02*
X177913Y273031D01*
X177913Y273031D02*
X178025Y273070D01*
X178025Y273070D02*
X178092Y273110D01*
X44068Y257755D02*
X59422Y273110D01*
X121761Y249173D02*
X97824Y273110D01*
X178092Y273110D02*
X178147Y273149D01*
X97824Y273110D02*
X97796Y273149D01*
X59422Y273110D02*
X59451Y273149D01*
X326830Y272834D02*
X325111Y273149D01*
X15689Y272834D02*
X17407Y273149D01*
X246518Y272559D02*
X246007Y273149D01*
X325111Y273149D02*
X324730Y273188D01*
X178147Y273149D02*
X178183Y273188D01*
X97796Y273149D02*
X97760Y273188D01*
X59451Y273149D02*
X59486Y273188D01*
X17407Y273149D02*
X17789Y273188D01*
X19091Y273267D02*
X59601Y273267D01*
X97645Y273267D02*
X178298Y273267D01*
X245920Y273267D02*
X323428Y273267D01*
X324472Y273188D02*
X324079Y273228D01*
X178183Y273188D02*
X178230Y273228D01*
X97760Y273188D02*
X97713Y273228D01*
X59486Y273188D02*
X59533Y273228D01*
X18046Y273188D02*
X18440Y273228D01*
X246007Y273149D02*
X245955Y273228D01*
X323822Y273228D02*
X323428Y273267D01*
X245955Y273228D02*
X245920Y273267D01*
X178230Y273228D02*
X178298Y273267D01*
X97713Y273228D02*
X97645Y273267D01*
X59533Y273228D02*
X59601Y273267D01*
X18697Y273228D02*
X19091Y273267D01*
X295Y273385D02*
X6421Y273385D01*
X336097Y273385D02*
X342224Y273385D01*
X295Y273937D02*
X7143Y273937D01*
X335376Y273937D02*
X342224Y273937D01*
X5517Y272677D02*
X7075Y273897D01*
X337253Y272480D02*
X335444Y273897D01*
X335444Y273897D02*
X335376Y273937D01*
X7075Y273897D02*
X7143Y273937D01*
X335376Y273937D02*
X335325Y273976D01*
X7143Y273937D02*
X7194Y273976D01*
X335325Y273976D02*
X335289Y274015D01*
X7194Y273976D02*
X7229Y274015D01*
X335289Y274015D02*
X335242Y274055D01*
X7229Y274015D02*
X7276Y274055D01*
X335242Y274055D02*
X335174Y274094D01*
X7276Y274055D02*
X7344Y274094D01*
X335174Y274094D02*
X335084Y274133D01*
X7344Y274094D02*
X7435Y274133D01*
X295Y274488D02*
X8021Y274488D01*
X334498Y274488D02*
X342224Y274488D01*
X295Y275039D02*
X8933Y275039D01*
X333586Y275039D02*
X342224Y275039D01*
X335084Y274133D02*
X333260Y275236D01*
X7435Y274133D02*
X9258Y275236D01*
X333260Y275236D02*
X333208Y275275D01*
X9258Y275236D02*
X9311Y275275D01*
X333208Y275275D02*
X333140Y275314D01*
X9311Y275275D02*
X9379Y275314D01*
X333140Y275314D02*
X333033Y275354D01*
X9379Y275314D02*
X9485Y275354D01*
X333033Y275354D02*
X332894Y275433D01*
X9485Y275354D02*
X9624Y275433D01*
X295Y275590D02*
X9974Y275590D01*
X332544Y275590D02*
X342224Y275590D01*
X332894Y275433D02*
X332544Y275590D01*
X9624Y275433D02*
X9974Y275590D01*
X342224Y266259D02*
X342224Y275590D01*
X295Y266259D02*
X295Y275590D01*
M02*
